<svg width="32" height="32" viewBox="0 0 32 32" fill="none" xmlns="http://www.w3.org/2000/svg">
<path d="M23.2383 4.08041C24.8951 3.66236 26.5 4.9271 26.5 6.65077V8.80429H27.375C28.8247 8.80429 30 9.9905 30 11.4538V27.3505C30 28.8138 28.8247 30 27.375 30H4.625C3.17525 30 2 28.8138 2 27.3505V11.4538C2 10.0305 3.11193 8.8693 4.50683 8.80693L23.2383 4.08041ZM11.7327 8.80429H24.75V6.65077C24.75 6.07621 24.215 5.65463 23.6628 5.79398L11.7327 8.80429Z" fill="#D6DBE0"/>
<path d="M14 30C14 23.3726 19.3726 18 26 18H30V27.5C30 28.8807 28.8807 30 27.5 30H14V30Z" fill="#67717C"/>
</svg>
