<svg width="32" height="32" viewBox="0 0 32 32" fill="none" xmlns="http://www.w3.org/2000/svg">
<path d="M6 11C6 9.34315 7.34315 8 9 8H27C28.6569 8 30 9.34315 30 11V25C30 26.6569 28.6569 28 27 28H9C7.34315 28 6 26.6569 6 25V11Z" fill="#D6DBE0"/>
<rect x="12" y="22" width="12" height="2" fill="#67717C"/>
<path fill-rule="evenodd" clip-rule="evenodd" d="M5 6H23C23.5336 6 23.9696 6.41794 23.9985 6.94434H25.9995C25.9698 5.31317 24.6383 4 23 4H5C3.34315 4 2 5.34315 2 7V21C2 22.6569 3.34315 24 5 24V22C4.44772 22 4 21.5523 4 21V7C4 6.44772 4.44771 6 5 6Z" fill="#D6DBE0"/>
<path d="M20.2111 15.1056C20.9482 15.4741 20.9482 16.5259 20.2111 16.8944L15.4472 19.2764C14.7823 19.6088 14 19.1253 14 18.382L14 13.618C14 12.8747 14.7823 12.3912 15.4472 12.7236L20.2111 15.1056Z" fill="#67717C"/>
</svg>
