<svg width="32" height="32" viewBox="0 0 32 32" fill="none" xmlns="http://www.w3.org/2000/svg">
<path d="M13.375 3.75C11.9255 3.75 10.75 4.92455 10.75 6.37457V7.25H4.625C3.17525 7.25 2 8.42525 2 9.875V12.2972L15.3236 15.8502C15.7668 15.9684 16.2332 15.9684 16.6764 15.8502L30 12.2972V9.875C30 8.42525 28.8247 7.25 27.375 7.25H21.25V6.37457C21.25 4.92455 20.0745 3.75 18.625 3.75H13.375ZM13.375 5.5H18.625C19.1085 5.5 19.5 5.8931 19.5 6.37608V7.25H12.5V6.37457C12.5 5.8916 12.8915 5.5 13.375 5.5Z" fill="#BFD5EE"/>
<path d="M2 23.875C2 25.3247 3.17525 26.5 4.625 26.5H27.375C28.8247 26.5 30 25.3247 30 23.875V13.9861L16.2255 17.6593C16.0777 17.6987 15.9223 17.6987 15.7745 17.6593L2 13.9861V23.875Z" fill="#BFD5EE"/>
<path d="M2 23.875C2 25.3247 3.17525 26.5 4.625 26.5H27.375C28.8247 26.5 30 25.3247 30 23.875V13.9861L16.2255 17.6593C16.0777 17.6987 15.9223 17.6987 15.7745 17.6593L2 13.9861V23.875Z" fill="#2A72C7"/>
</svg>
