<svg width="32" height="32" viewBox="0 0 32 32" fill="none" xmlns="http://www.w3.org/2000/svg">
<rect x="6" y="8" width="24" height="20" rx="3" fill="#96BAE3"/>
<rect x="12" y="22" width="12" height="2" fill="#2A72C7"/>
<path fill-rule="evenodd" clip-rule="evenodd" d="M5 6H23C23.5336 6 23.9696 6.41794 23.9985 6.94434H25.9995C25.9698 5.31317 24.6383 4 23 4H5C3.34315 4 2 5.34315 2 7V21C2 22.6569 3.34315 24 5 24V22C4.44772 22 4 21.5523 4 21V7C4 6.44772 4.44771 6 5 6Z" fill="#96BAE3"/>
<path d="M20.2111 15.1056C20.9482 15.4741 20.9482 16.5259 20.2111 16.8944L15.4472 19.2764C14.7823 19.6088 14 19.1253 14 18.382L14 13.618C14 12.8747 14.7823 12.3912 15.4472 12.7236L20.2111 15.1056Z" fill="#2A72C7"/>
</svg>
