<svg width="464" height="364" viewBox="0 0 464 364" fill="none" xmlns="http://www.w3.org/2000/svg">
<path fill-rule="evenodd" clip-rule="evenodd" d="M183.519 357.647C183.519 354.138 180.674 351.293 177.165 351.293C173.656 351.293 170.812 354.138 170.812 357.647C170.812 361.155 173.656 364 177.165 364C180.674 364 183.519 361.155 183.519 357.647ZM221.639 357.647C221.639 354.138 224.483 351.293 227.992 351.293C231.501 351.293 234.345 354.138 234.345 357.647C234.345 361.155 231.501 364 227.992 364C224.483 364 221.639 361.155 221.639 357.647ZM253.406 351.293C249.897 351.293 247.052 354.138 247.052 357.647C247.052 361.155 249.897 364 253.406 364C256.914 364 259.759 361.155 259.759 357.647C259.759 354.138 256.914 351.293 253.406 351.293ZM278.819 325.88C275.31 325.88 272.466 328.724 272.466 332.233C272.466 335.742 275.31 338.586 278.819 338.586C282.328 338.586 285.172 335.742 285.172 332.233C285.172 328.724 282.328 325.88 278.819 325.88ZM304.233 325.88C300.724 325.88 297.879 328.724 297.879 332.233C297.879 335.742 300.724 338.586 304.233 338.586C307.741 338.586 310.586 335.742 310.586 332.233C310.586 328.724 307.741 325.88 304.233 325.88ZM355.06 300.466C351.551 300.466 348.706 303.311 348.706 306.82C348.706 310.328 351.551 313.173 355.06 313.173C358.568 313.173 361.413 310.328 361.413 306.82C361.413 303.311 358.568 300.466 355.06 300.466ZM380.473 275.053C376.964 275.053 374.12 277.897 374.12 281.406C374.12 284.915 376.964 287.759 380.473 287.759C383.982 287.759 386.826 284.915 386.826 281.406C386.826 277.897 383.982 275.053 380.473 275.053ZM405.887 249.639C402.378 249.639 399.533 252.484 399.533 255.993C399.533 259.502 402.378 262.346 405.887 262.346C409.395 262.346 412.24 259.502 412.24 255.993C412.24 252.484 409.395 249.639 405.887 249.639ZM374.12 255.993C374.12 252.484 376.964 249.639 380.473 249.639C383.982 249.639 386.826 252.484 386.826 255.993C386.826 259.502 383.982 262.346 380.473 262.346C376.964 262.346 374.12 259.502 374.12 255.993ZM348.706 281.406C348.706 277.897 351.551 275.053 355.06 275.053C358.568 275.053 361.413 277.897 361.413 281.406C361.413 284.915 358.568 287.759 355.06 287.759C351.551 287.759 348.706 284.915 348.706 281.406ZM355.06 249.639C351.551 249.639 348.706 252.484 348.706 255.993C348.706 259.502 351.551 262.346 355.06 262.346C358.568 262.346 361.413 259.502 361.413 255.993C361.413 252.484 358.568 249.639 355.06 249.639ZM323.293 306.82C323.293 303.311 326.137 300.466 329.646 300.466C333.155 300.466 335.999 303.311 335.999 306.82C335.999 310.328 333.155 313.173 329.646 313.173C326.137 313.173 323.293 310.328 323.293 306.82ZM329.646 275.053C326.137 275.053 323.293 277.897 323.293 281.406C323.293 284.915 326.137 287.759 329.646 287.759C333.155 287.759 335.999 284.915 335.999 281.406C335.999 277.897 333.155 275.053 329.646 275.053ZM323.293 255.993C323.293 252.484 326.137 249.639 329.646 249.639C333.155 249.639 335.999 252.484 335.999 255.993C335.999 259.502 333.155 262.346 329.646 262.346C326.137 262.346 323.293 259.502 323.293 255.993ZM297.879 306.82C297.879 303.311 300.724 300.466 304.233 300.466C307.741 300.466 310.586 303.311 310.586 306.82C310.586 310.328 307.741 313.173 304.233 313.173C300.724 313.173 297.879 310.328 297.879 306.82ZM304.233 275.053C300.724 275.053 297.879 277.897 297.879 281.406C297.879 284.915 300.724 287.759 304.233 287.759C307.741 287.759 310.586 284.915 310.586 281.406C310.586 277.897 307.741 275.053 304.233 275.053ZM297.879 255.993C297.879 252.484 300.724 249.639 304.233 249.639C307.741 249.639 310.586 252.484 310.586 255.993C310.586 259.502 307.741 262.346 304.233 262.346C300.724 262.346 297.879 259.502 297.879 255.993ZM272.466 306.82C272.466 303.311 275.31 300.466 278.819 300.466C282.328 300.466 285.172 303.311 285.172 306.82C285.172 310.328 282.328 313.173 278.819 313.173C275.31 313.173 272.466 310.328 272.466 306.82ZM278.819 275.053C275.31 275.053 272.466 277.897 272.466 281.406C272.466 284.915 275.31 287.759 278.819 287.759C282.328 287.759 285.172 284.915 285.172 281.406C285.172 277.897 282.328 275.053 278.819 275.053ZM272.466 255.993C272.466 252.484 275.31 249.639 278.819 249.639C282.328 249.639 285.172 252.484 285.172 255.993C285.172 259.502 282.328 262.346 278.819 262.346C275.31 262.346 272.466 259.502 272.466 255.993ZM247.052 332.233C247.052 328.724 249.897 325.88 253.406 325.88C256.914 325.88 259.759 328.724 259.759 332.233C259.759 335.742 256.914 338.586 253.406 338.586C249.897 338.586 247.052 335.742 247.052 332.233ZM253.406 300.466C249.897 300.466 247.052 303.311 247.052 306.82C247.052 310.328 249.897 313.173 253.406 313.173C256.914 313.173 259.759 310.328 259.759 306.82C259.759 303.311 256.914 300.466 253.406 300.466ZM247.052 281.406C247.052 277.897 249.897 275.053 253.406 275.053C256.914 275.053 259.759 277.897 259.759 281.406C259.759 284.915 256.914 287.759 253.406 287.759C249.897 287.759 247.052 284.915 247.052 281.406ZM253.406 249.639C249.897 249.639 247.052 252.484 247.052 255.993C247.052 259.502 249.897 262.346 253.406 262.346C256.914 262.346 259.759 259.502 259.759 255.993C259.759 252.484 256.914 249.639 253.406 249.639ZM227.992 325.88C224.483 325.88 221.639 328.724 221.639 332.233C221.639 335.742 224.483 338.586 227.992 338.586C231.501 338.586 234.345 335.742 234.345 332.233C234.345 328.724 231.501 325.88 227.992 325.88ZM221.639 306.82C221.639 303.311 224.483 300.466 227.992 300.466C231.501 300.466 234.345 303.311 234.345 306.82C234.345 310.328 231.501 313.173 227.992 313.173C224.483 313.173 221.639 310.328 221.639 306.82ZM227.992 275.053C224.483 275.053 221.639 277.897 221.639 281.406C221.639 284.915 224.483 287.759 227.992 287.759C231.501 287.759 234.345 284.915 234.345 281.406C234.345 277.897 231.501 275.053 227.992 275.053ZM221.639 255.993C221.639 252.484 224.483 249.639 227.992 249.639C231.501 249.639 234.345 252.484 234.345 255.993C234.345 259.502 231.501 262.346 227.992 262.346C224.483 262.346 221.639 259.502 221.639 255.993ZM456.714 147.985C453.205 147.985 450.36 150.83 450.36 154.339C450.36 157.848 453.205 160.692 456.714 160.692C460.222 160.692 463.067 157.848 463.067 154.339C463.067 150.83 460.222 147.985 456.714 147.985ZM450.36 128.925C450.36 125.416 453.205 122.572 456.714 122.572C460.222 122.572 463.067 125.416 463.067 128.925C463.067 132.434 460.222 135.279 456.714 135.279C453.205 135.279 450.36 132.434 450.36 128.925ZM431.3 198.812C427.791 198.812 424.947 201.657 424.947 205.166C424.947 208.675 427.791 211.519 431.3 211.519C434.809 211.519 437.653 208.675 437.653 205.166C437.653 201.657 434.809 198.812 431.3 198.812ZM424.947 179.752C424.947 176.243 427.791 173.399 431.3 173.399C434.809 173.399 437.653 176.243 437.653 179.752C437.653 183.261 434.809 186.106 431.3 186.106C427.791 186.106 424.947 183.261 424.947 179.752ZM431.3 147.985C427.791 147.985 424.947 150.83 424.947 154.339C424.947 157.848 427.791 160.692 431.3 160.692C434.809 160.692 437.653 157.848 437.653 154.339C437.653 150.83 434.809 147.985 431.3 147.985ZM424.947 128.925C424.947 125.416 427.791 122.572 431.3 122.572C434.809 122.572 437.653 125.416 437.653 128.925C437.653 132.434 434.809 135.279 431.3 135.279C427.791 135.279 424.947 132.434 424.947 128.925ZM405.887 224.226C402.378 224.226 399.533 227.07 399.533 230.579C399.533 234.088 402.378 236.933 405.887 236.933C409.395 236.933 412.24 234.088 412.24 230.579C412.24 227.07 409.395 224.226 405.887 224.226ZM399.533 205.166C399.533 201.657 402.378 198.812 405.887 198.812C409.395 198.812 412.24 201.657 412.24 205.166C412.24 208.675 409.395 211.519 405.887 211.519C402.378 211.519 399.533 208.675 399.533 205.166ZM405.887 173.399C402.378 173.399 399.533 176.243 399.533 179.752C399.533 183.261 402.378 186.106 405.887 186.106C409.395 186.106 412.24 183.261 412.24 179.752C412.24 176.243 409.395 173.399 405.887 173.399ZM399.533 154.339C399.533 150.83 402.378 147.985 405.887 147.985C409.395 147.985 412.24 150.83 412.24 154.339C412.24 157.848 409.395 160.692 405.887 160.692C402.378 160.692 399.533 157.848 399.533 154.339ZM405.887 122.572C402.378 122.572 399.533 125.416 399.533 128.925C399.533 132.434 402.378 135.279 405.887 135.279C409.395 135.279 412.24 132.434 412.24 128.925C412.24 125.416 409.395 122.572 405.887 122.572ZM374.12 230.579C374.12 227.07 376.964 224.226 380.473 224.226C383.982 224.226 386.826 227.07 386.826 230.579C386.826 234.088 383.982 236.933 380.473 236.933C376.964 236.933 374.12 234.088 374.12 230.579ZM380.473 198.812C376.964 198.812 374.12 201.657 374.12 205.166C374.12 208.675 376.964 211.519 380.473 211.519C383.982 211.519 386.826 208.675 386.826 205.166C386.826 201.657 383.982 198.812 380.473 198.812ZM374.12 179.752C374.12 176.243 376.964 173.399 380.473 173.399C383.982 173.399 386.826 176.243 386.826 179.752C386.826 183.261 383.982 186.106 380.473 186.106C376.964 186.106 374.12 183.261 374.12 179.752ZM380.473 147.985C376.964 147.985 374.12 150.83 374.12 154.339C374.12 157.848 376.964 160.692 380.473 160.692C383.982 160.692 386.826 157.848 386.826 154.339C386.826 150.83 383.982 147.985 380.473 147.985ZM374.12 128.925C374.12 125.416 376.964 122.572 380.473 122.572C383.982 122.572 386.826 125.416 386.826 128.925C386.826 132.434 383.982 135.279 380.473 135.279C376.964 135.279 374.12 132.434 374.12 128.925ZM355.06 224.226C351.551 224.226 348.706 227.07 348.706 230.579C348.706 234.088 351.551 236.933 355.06 236.933C358.568 236.933 361.413 234.088 361.413 230.579C361.413 227.07 358.568 224.226 355.06 224.226ZM348.706 205.166C348.706 201.657 351.551 198.812 355.06 198.812C358.568 198.812 361.413 201.657 361.413 205.166C361.413 208.675 358.568 211.519 355.06 211.519C351.551 211.519 348.706 208.675 348.706 205.166ZM355.06 173.399C351.551 173.399 348.706 176.243 348.706 179.752C348.706 183.261 351.551 186.106 355.06 186.106C358.568 186.106 361.413 183.261 361.413 179.752C361.413 176.243 358.568 173.399 355.06 173.399ZM348.706 154.339C348.706 150.83 351.551 147.985 355.06 147.985C358.568 147.985 361.413 150.83 361.413 154.339C361.413 157.848 358.568 160.692 355.06 160.692C351.551 160.692 348.706 157.848 348.706 154.339ZM355.06 122.572C351.551 122.572 348.706 125.416 348.706 128.925C348.706 132.434 351.551 135.279 355.06 135.279C358.568 135.279 361.413 132.434 361.413 128.925C361.413 125.416 358.568 122.572 355.06 122.572ZM323.293 230.579C323.293 227.07 326.137 224.226 329.646 224.226C333.155 224.226 335.999 227.07 335.999 230.579C335.999 234.088 333.155 236.933 329.646 236.933C326.137 236.933 323.293 234.088 323.293 230.579ZM329.646 198.812C326.137 198.812 323.293 201.657 323.293 205.166C323.293 208.675 326.137 211.519 329.646 211.519C333.155 211.519 335.999 208.675 335.999 205.166C335.999 201.657 333.155 198.812 329.646 198.812ZM323.293 179.752C323.293 176.243 326.137 173.399 329.646 173.399C333.155 173.399 335.999 176.243 335.999 179.752C335.999 183.261 333.155 186.106 329.646 186.106C326.137 186.106 323.293 183.261 323.293 179.752ZM329.646 147.985C326.137 147.985 323.293 150.83 323.293 154.339C323.293 157.848 326.137 160.692 329.646 160.692C333.155 160.692 335.999 157.848 335.999 154.339C335.999 150.83 333.155 147.985 329.646 147.985ZM323.293 128.925C323.293 125.416 326.137 122.572 329.646 122.572C333.155 122.572 335.999 125.416 335.999 128.925C335.999 132.434 333.155 135.279 329.646 135.279C326.137 135.279 323.293 132.434 323.293 128.925ZM304.233 224.226C300.724 224.226 297.879 227.07 297.879 230.579C297.879 234.088 300.724 236.933 304.233 236.933C307.741 236.933 310.586 234.088 310.586 230.579C310.586 227.07 307.741 224.226 304.233 224.226ZM297.879 205.166C297.879 201.657 300.724 198.812 304.233 198.812C307.741 198.812 310.586 201.657 310.586 205.166C310.586 208.675 307.741 211.519 304.233 211.519C300.724 211.519 297.879 208.675 297.879 205.166ZM304.233 173.399C300.724 173.399 297.879 176.243 297.879 179.752C297.879 183.261 300.724 186.106 304.233 186.106C307.741 186.106 310.586 183.261 310.586 179.752C310.586 176.243 307.741 173.399 304.233 173.399ZM297.879 154.339C297.879 150.83 300.724 147.985 304.233 147.985C307.741 147.985 310.586 150.83 310.586 154.339C310.586 157.848 307.741 160.692 304.233 160.692C300.724 160.692 297.879 157.848 297.879 154.339ZM304.233 122.572C300.724 122.572 297.879 125.416 297.879 128.925C297.879 132.434 300.724 135.279 304.233 135.279C307.741 135.279 310.586 132.434 310.586 128.925C310.586 125.416 307.741 122.572 304.233 122.572ZM272.466 230.579C272.466 227.07 275.31 224.226 278.819 224.226C282.328 224.226 285.172 227.07 285.172 230.579C285.172 234.088 282.328 236.933 278.819 236.933C275.31 236.933 272.466 234.088 272.466 230.579ZM278.819 198.812C275.31 198.812 272.466 201.657 272.466 205.166C272.466 208.675 275.31 211.519 278.819 211.519C282.328 211.519 285.172 208.675 285.172 205.166C285.172 201.657 282.328 198.812 278.819 198.812ZM272.466 179.752C272.466 176.243 275.31 173.399 278.819 173.399C282.328 173.399 285.172 176.243 285.172 179.752C285.172 183.261 282.328 186.106 278.819 186.106C275.31 186.106 272.466 183.261 272.466 179.752ZM278.819 147.985C275.31 147.985 272.466 150.83 272.466 154.339C272.466 157.848 275.31 160.692 278.819 160.692C282.328 160.692 285.172 157.848 285.172 154.339C285.172 150.83 282.328 147.985 278.819 147.985ZM272.466 128.925C272.466 125.416 275.31 122.572 278.819 122.572C282.328 122.572 285.172 125.416 285.172 128.925C285.172 132.434 282.328 135.279 278.819 135.279C275.31 135.279 272.466 132.434 272.466 128.925ZM253.406 224.226C249.897 224.226 247.052 227.07 247.052 230.579C247.052 234.088 249.897 236.933 253.406 236.933C256.914 236.933 259.759 234.088 259.759 230.579C259.759 227.07 256.914 224.226 253.406 224.226ZM247.052 205.166C247.052 201.657 249.897 198.812 253.406 198.812C256.914 198.812 259.759 201.657 259.759 205.166C259.759 208.675 256.914 211.519 253.406 211.519C249.897 211.519 247.052 208.675 247.052 205.166ZM253.406 173.399C249.897 173.399 247.052 176.243 247.052 179.752C247.052 183.261 249.897 186.106 253.406 186.106C256.914 186.106 259.759 183.261 259.759 179.752C259.759 176.243 256.914 173.399 253.406 173.399ZM247.052 154.339C247.052 150.83 249.897 147.985 253.406 147.985C256.914 147.985 259.759 150.83 259.759 154.339C259.759 157.848 256.914 160.692 253.406 160.692C249.897 160.692 247.052 157.848 247.052 154.339ZM253.406 122.572C249.897 122.572 247.052 125.416 247.052 128.925C247.052 132.434 249.897 135.279 253.406 135.279C256.914 135.279 259.759 132.434 259.759 128.925C259.759 125.416 256.914 122.572 253.406 122.572ZM221.639 230.579C221.639 227.07 224.483 224.226 227.992 224.226C231.501 224.226 234.345 227.07 234.345 230.579C234.345 234.088 231.501 236.933 227.992 236.933C224.483 236.933 221.639 234.088 221.639 230.579ZM227.992 198.812C224.483 198.812 221.639 201.657 221.639 205.166C221.639 208.675 224.483 211.519 227.992 211.519C231.501 211.519 234.345 208.675 234.345 205.166C234.345 201.657 231.501 198.812 227.992 198.812ZM221.639 179.752C221.639 176.243 224.483 173.399 227.992 173.399C231.501 173.399 234.345 176.243 234.345 179.752C234.345 183.261 231.501 186.106 227.992 186.106C224.483 186.106 221.639 183.261 221.639 179.752ZM227.992 147.985C224.483 147.985 221.639 150.83 221.639 154.339C221.639 157.848 224.483 160.692 227.992 160.692C231.501 160.692 234.345 157.848 234.345 154.339C234.345 150.83 231.501 147.985 227.992 147.985ZM221.639 128.925C221.639 125.416 224.483 122.572 227.992 122.572C231.501 122.572 234.345 125.416 234.345 128.925C234.345 132.434 231.501 135.279 227.992 135.279C224.483 135.279 221.639 132.434 221.639 128.925ZM24.6842 249.639C28.1931 249.639 31.0376 252.484 31.0376 255.993C31.0376 259.502 28.1931 262.346 24.6842 262.346C21.1754 262.346 18.3309 259.502 18.3309 255.993C18.3309 252.484 21.1754 249.639 24.6842 249.639ZM56.4511 281.406C56.4511 277.897 53.6066 275.053 50.0977 275.053C46.5888 275.053 43.7444 277.897 43.7444 281.406C43.7444 284.915 46.5888 287.759 50.0977 287.759C53.6066 287.759 56.4511 284.915 56.4511 281.406ZM50.0977 249.639C53.6066 249.639 56.4511 252.484 56.4511 255.993C56.4511 259.502 53.6066 262.346 50.0977 262.346C46.5888 262.346 43.7444 259.502 43.7444 255.993C43.7444 252.484 46.5888 249.639 50.0977 249.639ZM81.8648 306.82C81.8648 303.311 79.0203 300.466 75.5114 300.466C72.0025 300.466 69.158 303.311 69.158 306.82C69.158 310.328 72.0025 313.173 75.5114 313.173C79.0203 313.173 81.8648 310.328 81.8648 306.82ZM75.5114 275.053C79.0203 275.053 81.8648 277.897 81.8648 281.406C81.8648 284.915 79.0203 287.759 75.5114 287.759C72.0025 287.759 69.158 284.915 69.158 281.406C69.158 277.897 72.0025 275.053 75.5114 275.053ZM81.8648 255.993C81.8648 252.484 79.0203 249.639 75.5114 249.639C72.0026 249.639 69.1581 252.484 69.1581 255.993C69.1581 259.502 72.0026 262.346 75.5114 262.346C79.0203 262.346 81.8648 259.502 81.8648 255.993ZM100.925 300.466C104.434 300.466 107.278 303.311 107.278 306.82C107.278 310.328 104.434 313.173 100.925 313.173C97.4161 313.173 94.5715 310.328 94.5715 306.82C94.5715 303.311 97.4161 300.466 100.925 300.466ZM107.278 281.406C107.278 277.897 104.434 275.053 100.925 275.053C97.4161 275.053 94.5715 277.897 94.5715 281.406C94.5715 284.915 97.4161 287.759 100.925 287.759C104.434 287.759 107.278 284.915 107.278 281.406ZM100.925 249.639C104.434 249.639 107.278 252.484 107.278 255.993C107.278 259.502 104.434 262.346 100.925 262.346C97.4161 262.346 94.5715 259.502 94.5715 255.993C94.5715 252.484 97.4161 249.639 100.925 249.639ZM132.692 332.233C132.692 328.724 129.847 325.88 126.338 325.88C122.829 325.88 119.985 328.724 119.985 332.233C119.985 335.742 122.829 338.586 126.338 338.586C129.847 338.586 132.692 335.742 132.692 332.233ZM126.338 300.466C129.847 300.466 132.692 303.311 132.692 306.82C132.692 310.328 129.847 313.173 126.338 313.173C122.829 313.173 119.985 310.328 119.985 306.82C119.985 303.311 122.829 300.466 126.338 300.466ZM132.692 281.406C132.692 277.897 129.847 275.053 126.338 275.053C122.829 275.053 119.985 277.897 119.985 281.406C119.985 284.915 122.829 287.759 126.338 287.759C129.847 287.759 132.692 284.915 132.692 281.406ZM126.338 249.639C129.847 249.639 132.692 252.484 132.692 255.993C132.692 259.502 129.847 262.346 126.338 262.346C122.829 262.346 119.985 259.502 119.985 255.993C119.985 252.484 122.829 249.639 126.338 249.639ZM158.105 332.233C158.105 328.724 155.261 325.88 151.752 325.88C148.243 325.88 145.398 328.724 145.398 332.233C145.398 335.742 148.243 338.586 151.752 338.586C155.261 338.586 158.105 335.742 158.105 332.233ZM151.752 300.466C155.261 300.466 158.105 303.311 158.105 306.82C158.105 310.328 155.261 313.173 151.752 313.173C148.243 313.173 145.398 310.328 145.398 306.82C145.398 303.311 148.243 300.466 151.752 300.466ZM158.105 281.406C158.105 277.897 155.261 275.053 151.752 275.053C148.243 275.053 145.398 277.897 145.398 281.406C145.398 284.915 148.243 287.759 151.752 287.759C155.261 287.759 158.105 284.915 158.105 281.406ZM151.752 249.639C155.261 249.639 158.105 252.484 158.105 255.993C158.105 259.502 155.261 262.346 151.752 262.346C148.243 262.346 145.398 259.502 145.398 255.993C145.398 252.484 148.243 249.639 151.752 249.639ZM177.165 325.88C180.674 325.88 183.519 328.724 183.519 332.233C183.519 335.742 180.674 338.586 177.165 338.586C173.656 338.586 170.812 335.742 170.812 332.233C170.812 328.724 173.656 325.88 177.165 325.88ZM183.519 306.82C183.519 303.311 180.674 300.466 177.165 300.466C173.656 300.466 170.812 303.311 170.812 306.82C170.812 310.328 173.656 313.173 177.165 313.173C180.674 313.173 183.519 310.328 183.519 306.82ZM177.165 275.053C180.674 275.053 183.519 277.897 183.519 281.406C183.519 284.915 180.674 287.759 177.165 287.759C173.656 287.759 170.812 284.915 170.812 281.406C170.812 277.897 173.656 275.053 177.165 275.053ZM183.519 255.993C183.519 252.484 180.674 249.639 177.165 249.639C173.656 249.639 170.812 252.484 170.812 255.993C170.812 259.502 173.656 262.346 177.165 262.346C180.674 262.346 183.519 259.502 183.519 255.993ZM202.579 351.293C206.088 351.293 208.932 354.138 208.932 357.647C208.932 361.155 206.088 364 202.579 364C199.07 364 196.225 361.155 196.225 357.647C196.225 354.138 199.07 351.293 202.579 351.293ZM208.932 332.233C208.932 328.724 206.088 325.88 202.579 325.88C199.07 325.88 196.225 328.724 196.225 332.233C196.225 335.742 199.07 338.586 202.579 338.586C206.088 338.586 208.932 335.742 208.932 332.233ZM202.579 300.466C206.088 300.466 208.932 303.311 208.932 306.82C208.932 310.328 206.088 313.173 202.579 313.173C199.07 313.173 196.225 310.328 196.225 306.82C196.225 303.311 199.07 300.466 202.579 300.466ZM208.932 281.406C208.932 277.897 206.088 275.053 202.579 275.053C199.07 275.053 196.225 277.897 196.225 281.406C196.225 284.915 199.07 287.759 202.579 287.759C206.088 287.759 208.932 284.915 208.932 281.406ZM202.579 249.639C206.088 249.639 208.932 252.484 208.932 255.993C208.932 259.502 206.088 262.346 202.579 262.346C199.07 262.346 196.225 259.502 196.225 255.993C196.225 252.484 199.07 249.639 202.579 249.639ZM-19.7894 154.339C-19.7894 150.83 -22.6339 147.985 -26.1428 147.985C-29.6516 147.985 -32.4961 150.83 -32.4961 154.339C-32.4961 157.848 -29.6516 160.692 -26.1428 160.692C-22.6339 160.692 -19.7894 157.848 -19.7894 154.339ZM-26.1428 122.572C-22.6339 122.572 -19.7894 125.416 -19.7894 128.925C-19.7894 132.434 -22.6339 135.279 -26.1428 135.279C-29.6516 135.279 -32.4961 132.434 -32.4961 128.925C-32.4961 125.416 -29.6516 122.572 -26.1428 122.572ZM5.62413 205.166C5.62413 201.657 2.77962 198.812 -0.729264 198.812C-4.23811 198.812 -7.08263 201.657 -7.08263 205.166C-7.08263 208.675 -4.23812 211.519 -0.729265 211.519C2.77962 211.519 5.62413 208.675 5.62413 205.166ZM-0.729262 173.399C2.77962 173.399 5.62413 176.243 5.62413 179.752C5.62413 183.261 2.77962 186.106 -0.729263 186.106C-4.23811 186.106 -7.08263 183.261 -7.08263 179.752C-7.08263 176.243 -4.23811 173.399 -0.729262 173.399ZM5.6241 154.339C5.6241 150.83 2.77962 147.985 -0.72926 147.985C-4.23814 147.985 -7.08262 150.83 -7.08262 154.339C-7.08262 157.848 -4.23814 160.692 -0.729261 160.692C2.77962 160.692 5.6241 157.848 5.6241 154.339ZM-0.729257 122.572C2.77962 122.572 5.62411 125.416 5.62411 128.925C5.6241 132.434 2.77962 135.279 -0.729259 135.279C-4.23814 135.279 -7.08262 132.434 -7.08262 128.925C-7.08262 125.416 -4.23814 122.572 -0.729257 122.572ZM31.0376 230.579C31.0376 227.07 28.1931 224.226 24.6842 224.226C21.1754 224.226 18.3309 227.07 18.3309 230.579C18.3309 234.088 21.1754 236.933 24.6842 236.933C28.1931 236.933 31.0376 234.088 31.0376 230.579ZM24.6842 198.812C28.1931 198.812 31.0376 201.657 31.0376 205.166C31.0376 208.675 28.1931 211.519 24.6842 211.519C21.1753 211.519 18.3309 208.675 18.3309 205.166C18.3309 201.657 21.1753 198.812 24.6842 198.812ZM31.0376 179.752C31.0376 176.243 28.1931 173.399 24.6843 173.399C21.1754 173.399 18.3309 176.243 18.3309 179.752C18.3309 183.261 21.1754 186.106 24.6843 186.106C28.1931 186.106 31.0376 183.261 31.0376 179.752ZM24.6843 147.985C28.1931 147.985 31.0376 150.83 31.0376 154.339C31.0376 157.848 28.1931 160.692 24.6843 160.692C21.1754 160.692 18.3309 157.848 18.3309 154.339C18.3309 150.83 21.1754 147.985 24.6843 147.985ZM31.0376 128.925C31.0376 125.416 28.1931 122.572 24.6843 122.572C21.1754 122.572 18.3309 125.416 18.3309 128.925C18.3309 132.434 21.1754 135.279 24.6843 135.279C28.1931 135.279 31.0376 132.434 31.0376 128.925ZM50.0977 224.226C53.6066 224.226 56.4511 227.07 56.4511 230.579C56.4511 234.088 53.6066 236.933 50.0977 236.933C46.5888 236.933 43.7444 234.088 43.7444 230.579C43.7444 227.07 46.5888 224.226 50.0977 224.226ZM56.4511 205.166C56.4511 201.657 53.6066 198.812 50.0977 198.812C46.5889 198.812 43.7443 201.657 43.7443 205.166C43.7443 208.675 46.5889 211.519 50.0977 211.519C53.6066 211.519 56.4511 208.675 56.4511 205.166ZM50.0977 173.399C53.6066 173.399 56.4511 176.243 56.4511 179.752C56.4511 183.261 53.6066 186.106 50.0977 186.106C46.5889 186.106 43.7443 183.261 43.7443 179.752C43.7443 176.243 46.5889 173.399 50.0977 173.399ZM56.4511 154.339C56.4511 150.83 53.6066 147.985 50.0977 147.985C46.5889 147.985 43.7443 150.83 43.7443 154.339C43.7443 157.848 46.5889 160.692 50.0977 160.692C53.6066 160.692 56.4511 157.848 56.4511 154.339ZM50.0977 122.572C53.6066 122.572 56.4511 125.416 56.4511 128.925C56.4511 132.434 53.6066 135.279 50.0977 135.279C46.5889 135.279 43.7443 132.434 43.7443 128.925C43.7443 125.416 46.5889 122.572 50.0977 122.572ZM81.8648 230.579C81.8648 227.07 79.0203 224.226 75.5114 224.226C72.0025 224.226 69.158 227.07 69.158 230.579C69.158 234.088 72.0025 236.933 75.5114 236.933C79.0203 236.933 81.8648 234.088 81.8648 230.579ZM75.5114 198.812C79.0203 198.812 81.8648 201.657 81.8648 205.166C81.8648 208.675 79.0203 211.519 75.5114 211.519C72.0025 211.519 69.158 208.675 69.158 205.166C69.158 201.657 72.0025 198.812 75.5114 198.812ZM81.8648 179.752C81.8648 176.243 79.0203 173.399 75.5114 173.399C72.0025 173.399 69.1581 176.243 69.1581 179.752C69.1581 183.261 72.0025 186.106 75.5114 186.106C79.0203 186.106 81.8648 183.261 81.8648 179.752ZM75.5114 147.985C79.0203 147.985 81.8648 150.83 81.8648 154.339C81.8648 157.848 79.0203 160.692 75.5114 160.692C72.0026 160.692 69.1581 157.848 69.1581 154.339C69.1581 150.83 72.0026 147.985 75.5114 147.985ZM81.8648 128.925C81.8648 125.416 79.0203 122.572 75.5114 122.572C72.0026 122.572 69.1581 125.416 69.1581 128.925C69.1581 132.434 72.0026 135.279 75.5114 135.279C79.0203 135.279 81.8648 132.434 81.8648 128.925ZM100.925 224.226C104.434 224.226 107.278 227.07 107.278 230.579C107.278 234.088 104.434 236.933 100.925 236.933C97.4161 236.933 94.5715 234.088 94.5715 230.579C94.5715 227.07 97.4161 224.226 100.925 224.226ZM107.278 205.166C107.278 201.657 104.434 198.812 100.925 198.812C97.4161 198.812 94.5715 201.657 94.5715 205.166C94.5715 208.675 97.4161 211.519 100.925 211.519C104.434 211.519 107.278 208.675 107.278 205.166ZM100.925 173.399C104.434 173.399 107.278 176.243 107.278 179.752C107.278 183.261 104.434 186.106 100.925 186.106C97.4161 186.106 94.5715 183.261 94.5715 179.752C94.5715 176.243 97.4161 173.399 100.925 173.399ZM107.278 154.339C107.278 150.83 104.434 147.985 100.925 147.985C97.4161 147.985 94.5716 150.83 94.5716 154.339C94.5716 157.848 97.4161 160.692 100.925 160.692C104.434 160.692 107.278 157.848 107.278 154.339ZM100.925 122.572C104.434 122.572 107.278 125.416 107.278 128.925C107.278 132.434 104.434 135.279 100.925 135.279C97.4161 135.279 94.5716 132.434 94.5716 128.925C94.5716 125.416 97.4161 122.572 100.925 122.572ZM132.692 230.579C132.692 227.07 129.847 224.226 126.338 224.226C122.829 224.226 119.985 227.07 119.985 230.579C119.985 234.088 122.829 236.933 126.338 236.933C129.847 236.933 132.692 234.088 132.692 230.579ZM126.338 198.812C129.847 198.812 132.692 201.657 132.692 205.166C132.692 208.675 129.847 211.519 126.338 211.519C122.829 211.519 119.985 208.675 119.985 205.166C119.985 201.657 122.829 198.812 126.338 198.812ZM132.692 179.752C132.692 176.243 129.847 173.399 126.338 173.399C122.829 173.399 119.985 176.243 119.985 179.752C119.985 183.261 122.829 186.106 126.338 186.106C129.847 186.106 132.692 183.261 132.692 179.752ZM126.338 147.985C129.847 147.985 132.692 150.83 132.692 154.339C132.692 157.848 129.847 160.692 126.338 160.692C122.829 160.692 119.985 157.848 119.985 154.339C119.985 150.83 122.829 147.985 126.338 147.985ZM132.692 128.925C132.692 125.416 129.847 122.572 126.338 122.572C122.829 122.572 119.985 125.416 119.985 128.925C119.985 132.434 122.829 135.279 126.338 135.279C129.847 135.279 132.692 132.434 132.692 128.925ZM151.752 224.226C155.261 224.226 158.105 227.07 158.105 230.579C158.105 234.088 155.261 236.933 151.752 236.933C148.243 236.933 145.398 234.088 145.398 230.579C145.398 227.07 148.243 224.226 151.752 224.226ZM158.105 205.166C158.105 201.657 155.261 198.812 151.752 198.812C148.243 198.812 145.398 201.657 145.398 205.166C145.398 208.675 148.243 211.519 151.752 211.519C155.261 211.519 158.105 208.675 158.105 205.166ZM151.752 173.399C155.261 173.399 158.105 176.243 158.105 179.752C158.105 183.261 155.261 186.106 151.752 186.106C148.243 186.106 145.398 183.261 145.398 179.752C145.398 176.243 148.243 173.399 151.752 173.399ZM158.105 154.339C158.105 150.83 155.261 147.985 151.752 147.985C148.243 147.985 145.398 150.83 145.398 154.339C145.398 157.848 148.243 160.692 151.752 160.692C155.261 160.692 158.105 157.848 158.105 154.339ZM151.752 122.572C155.261 122.572 158.105 125.416 158.105 128.925C158.105 132.434 155.261 135.279 151.752 135.279C148.243 135.279 145.398 132.434 145.398 128.925C145.398 125.416 148.243 122.572 151.752 122.572ZM183.519 230.579C183.519 227.07 180.674 224.226 177.165 224.226C173.656 224.226 170.812 227.07 170.812 230.579C170.812 234.088 173.656 236.933 177.165 236.933C180.674 236.933 183.519 234.088 183.519 230.579ZM177.165 198.812C180.674 198.812 183.519 201.657 183.519 205.166C183.519 208.675 180.674 211.519 177.165 211.519C173.656 211.519 170.812 208.675 170.812 205.166C170.812 201.657 173.656 198.812 177.165 198.812ZM183.519 179.752C183.519 176.243 180.674 173.399 177.165 173.399C173.656 173.399 170.812 176.243 170.812 179.752C170.812 183.261 173.656 186.106 177.165 186.106C180.674 186.106 183.519 183.261 183.519 179.752ZM177.165 147.985C180.674 147.985 183.519 150.83 183.519 154.339C183.519 157.848 180.674 160.692 177.165 160.692C173.656 160.692 170.812 157.848 170.812 154.339C170.812 150.83 173.656 147.985 177.165 147.985ZM183.519 128.925C183.519 125.416 180.674 122.572 177.165 122.572C173.656 122.572 170.812 125.416 170.812 128.925C170.812 132.434 173.656 135.279 177.165 135.279C180.674 135.279 183.519 132.434 183.519 128.925ZM202.579 224.226C206.088 224.226 208.932 227.07 208.932 230.579C208.932 234.088 206.088 236.933 202.579 236.933C199.07 236.933 196.225 234.088 196.225 230.579C196.225 227.07 199.07 224.226 202.579 224.226ZM208.932 205.166C208.932 201.657 206.088 198.812 202.579 198.812C199.07 198.812 196.225 201.657 196.225 205.166C196.225 208.675 199.07 211.519 202.579 211.519C206.088 211.519 208.932 208.675 208.932 205.166ZM202.579 173.399C206.088 173.399 208.932 176.243 208.932 179.752C208.932 183.261 206.088 186.106 202.579 186.106C199.07 186.106 196.225 183.261 196.225 179.752C196.225 176.243 199.07 173.399 202.579 173.399ZM208.932 154.339C208.932 150.83 206.088 147.985 202.579 147.985C199.07 147.985 196.225 150.83 196.225 154.339C196.225 157.848 199.07 160.692 202.579 160.692C206.088 160.692 208.932 157.848 208.932 154.339ZM202.579 122.572C206.088 122.572 208.932 125.416 208.932 128.925C208.932 132.434 206.088 135.279 202.579 135.279C199.07 135.279 196.225 132.434 196.225 128.925C196.225 125.416 199.07 122.572 202.579 122.572ZM399.533 -23.5557C399.533 -20.0468 402.378 -17.2023 405.887 -17.2023C409.395 -17.2023 412.24 -20.0468 412.24 -23.5557C412.24 -27.0646 409.395 -29.9091 405.887 -29.9091C402.378 -29.9091 399.533 -27.0646 399.533 -23.5557ZM380.473 -42.6158C376.964 -42.6158 374.12 -45.4603 374.12 -48.9692C374.12 -52.4781 376.964 -55.3226 380.473 -55.3226C383.982 -55.3226 386.826 -52.4781 386.826 -48.9692C386.826 -45.4603 383.982 -42.6158 380.473 -42.6158ZM374.12 -23.5557C374.12 -20.0468 376.964 -17.2023 380.473 -17.2023C383.982 -17.2023 386.826 -20.0468 386.826 -23.5557C386.826 -27.0646 383.982 -29.9091 380.473 -29.9091C376.964 -29.9091 374.12 -27.0646 374.12 -23.5557ZM355.06 -68.0293C351.551 -68.0293 348.706 -70.8738 348.706 -74.3827C348.706 -77.8916 351.551 -80.7361 355.06 -80.7361C358.568 -80.7361 361.413 -77.8916 361.413 -74.3827C361.413 -70.8738 358.568 -68.0293 355.06 -68.0293ZM348.706 -48.9692C348.706 -45.4603 351.551 -42.6158 355.06 -42.6158C358.568 -42.6158 361.413 -45.4603 361.413 -48.9692C361.413 -52.4781 358.568 -55.3226 355.06 -55.3226C351.551 -55.3226 348.706 -52.4781 348.706 -48.9692ZM355.06 -17.2023C351.551 -17.2023 348.706 -20.0468 348.706 -23.5557C348.706 -27.0646 351.551 -29.9091 355.06 -29.9091C358.568 -29.9091 361.413 -27.0646 361.413 -23.5557C361.413 -20.0468 358.568 -17.2023 355.06 -17.2023ZM323.293 -74.3827C323.293 -70.8738 326.137 -68.0293 329.646 -68.0293C333.155 -68.0293 335.999 -70.8738 335.999 -74.3827C335.999 -77.8916 333.155 -80.7361 329.646 -80.7361C326.137 -80.7361 323.293 -77.8916 323.293 -74.3827ZM329.646 -42.6158C326.137 -42.6158 323.293 -45.4603 323.293 -48.9692C323.293 -52.4781 326.137 -55.3226 329.646 -55.3226C333.155 -55.3226 335.999 -52.4781 335.999 -48.9692C335.999 -45.4603 333.155 -42.6158 329.646 -42.6158ZM323.293 -23.5557C323.293 -20.0468 326.137 -17.2023 329.646 -17.2023C333.155 -17.2023 335.999 -20.0468 335.999 -23.5557C335.999 -27.0646 333.155 -29.9091 329.646 -29.9091C326.137 -29.9091 323.293 -27.0646 323.293 -23.5557ZM304.233 -93.4428C300.724 -93.4428 297.879 -96.2873 297.879 -99.7962C297.879 -103.305 300.724 -106.15 304.233 -106.15C307.741 -106.15 310.586 -103.305 310.586 -99.7962C310.586 -96.2873 307.741 -93.4428 304.233 -93.4428ZM297.879 -74.3827C297.879 -70.8738 300.724 -68.0293 304.233 -68.0293C307.741 -68.0293 310.586 -70.8738 310.586 -74.3827C310.586 -77.8916 307.741 -80.7361 304.233 -80.7361C300.724 -80.7361 297.879 -77.8916 297.879 -74.3827ZM304.233 -42.6158C300.724 -42.6158 297.879 -45.4603 297.879 -48.9692C297.879 -52.4781 300.724 -55.3226 304.233 -55.3226C307.741 -55.3226 310.586 -52.4781 310.586 -48.9692C310.586 -45.4603 307.741 -42.6158 304.233 -42.6158ZM297.879 -23.5557C297.879 -20.0468 300.724 -17.2023 304.233 -17.2023C307.741 -17.2023 310.586 -20.0468 310.586 -23.5557C310.586 -27.0646 307.741 -29.9091 304.233 -29.9091C300.724 -29.9091 297.879 -27.0646 297.879 -23.5557ZM278.819 -93.4428C275.31 -93.4428 272.466 -96.2873 272.466 -99.7962C272.466 -103.305 275.31 -106.15 278.819 -106.15C282.328 -106.15 285.172 -103.305 285.172 -99.7962C285.172 -96.2873 282.328 -93.4428 278.819 -93.4428ZM272.466 -74.3827C272.466 -70.8738 275.31 -68.0293 278.819 -68.0293C282.328 -68.0293 285.173 -70.8738 285.173 -74.3827C285.173 -77.8916 282.328 -80.7361 278.819 -80.7361C275.31 -80.7361 272.466 -77.8916 272.466 -74.3827ZM278.819 -42.6158C275.31 -42.6158 272.466 -45.4603 272.466 -48.9692C272.466 -52.4781 275.31 -55.3226 278.819 -55.3226C282.328 -55.3226 285.173 -52.4781 285.173 -48.9692C285.173 -45.4603 282.328 -42.6158 278.819 -42.6158ZM272.466 -23.5557C272.466 -20.0468 275.31 -17.2023 278.819 -17.2023C282.328 -17.2023 285.173 -20.0468 285.173 -23.5557C285.173 -27.0646 282.328 -29.9091 278.819 -29.9091C275.31 -29.9091 272.466 -27.0646 272.466 -23.5557ZM253.406 -118.856C249.897 -118.856 247.052 -121.701 247.052 -125.21C247.052 -128.719 249.897 -131.563 253.406 -131.563C256.915 -131.563 259.759 -128.719 259.759 -125.21C259.759 -121.701 256.915 -118.856 253.406 -118.856ZM247.052 -99.7962C247.052 -96.2873 249.897 -93.4428 253.406 -93.4428C256.914 -93.4428 259.759 -96.2873 259.759 -99.7962C259.759 -103.305 256.915 -106.15 253.406 -106.15C249.897 -106.15 247.052 -103.305 247.052 -99.7962ZM253.406 -68.0294C249.897 -68.0294 247.052 -70.8738 247.052 -74.3827C247.052 -77.8916 249.897 -80.7361 253.406 -80.7361C256.914 -80.7361 259.759 -77.8916 259.759 -74.3827C259.759 -70.8738 256.914 -68.0294 253.406 -68.0294ZM247.052 -48.9692C247.052 -45.4603 249.897 -42.6158 253.406 -42.6158C256.914 -42.6158 259.759 -45.4603 259.759 -48.9692C259.759 -52.4781 256.914 -55.3226 253.406 -55.3226C249.897 -55.3226 247.052 -52.4781 247.052 -48.9692ZM253.406 -17.2023C249.897 -17.2023 247.052 -20.0468 247.052 -23.5557C247.052 -27.0646 249.897 -29.9091 253.406 -29.9091C256.914 -29.9091 259.759 -27.0646 259.759 -23.5557C259.759 -20.0468 256.914 -17.2023 253.406 -17.2023ZM221.639 -125.21C221.639 -121.701 224.483 -118.856 227.992 -118.856C231.501 -118.856 234.345 -121.701 234.345 -125.21C234.345 -128.719 231.501 -131.563 227.992 -131.563C224.483 -131.563 221.639 -128.719 221.639 -125.21ZM227.992 -93.4428C224.483 -93.4428 221.639 -96.2873 221.639 -99.7962C221.639 -103.305 224.483 -106.15 227.992 -106.15C231.501 -106.15 234.345 -103.305 234.345 -99.7962C234.345 -96.2873 231.501 -93.4428 227.992 -93.4428ZM221.639 -74.3828C221.639 -70.8739 224.483 -68.0294 227.992 -68.0294C231.501 -68.0294 234.345 -70.8739 234.345 -74.3828C234.345 -77.8916 231.501 -80.7361 227.992 -80.7361C224.483 -80.7361 221.639 -77.8916 221.639 -74.3828ZM227.992 -42.6159C224.483 -42.6159 221.639 -45.4604 221.639 -48.9693C221.639 -52.4781 224.483 -55.3226 227.992 -55.3226C231.501 -55.3226 234.345 -52.4781 234.345 -48.9693C234.345 -45.4604 231.501 -42.6159 227.992 -42.6159ZM221.639 -23.5558C221.639 -20.0469 224.483 -17.2024 227.992 -17.2024C231.501 -17.2024 234.345 -20.0469 234.345 -23.5558C234.345 -27.0646 231.501 -29.9091 227.992 -29.9091C224.483 -29.9091 221.639 -27.0646 221.639 -23.5558ZM456.714 84.4516C453.205 84.4516 450.36 81.6071 450.36 78.0983C450.36 74.5894 453.205 71.7449 456.714 71.7449C460.222 71.7449 463.067 74.5894 463.067 78.0983C463.067 81.6071 460.222 84.4516 456.714 84.4516ZM450.36 103.512C450.36 107.021 453.205 109.865 456.714 109.865C460.222 109.865 463.067 107.021 463.067 103.512C463.067 100.003 460.222 97.1583 456.714 97.1583C453.205 97.1583 450.36 100.003 450.36 103.512ZM431.3 33.6246C427.791 33.6246 424.947 30.7801 424.947 27.2713C424.947 23.7624 427.791 20.9179 431.3 20.9179C434.809 20.9179 437.653 23.7624 437.653 27.2713C437.653 30.7801 434.809 33.6246 431.3 33.6246ZM424.947 52.6847C424.947 56.1936 427.791 59.0381 431.3 59.0381C434.809 59.0381 437.653 56.1936 437.653 52.6847C437.653 49.1759 434.809 46.3314 431.3 46.3314C427.791 46.3314 424.947 49.1759 424.947 52.6847ZM431.3 84.4516C427.791 84.4516 424.947 81.6071 424.947 78.0982C424.947 74.5894 427.791 71.7449 431.3 71.7449C434.809 71.7449 437.653 74.5894 437.653 78.0982C437.653 81.6071 434.809 84.4516 431.3 84.4516ZM424.947 103.512C424.947 107.021 427.791 109.865 431.3 109.865C434.809 109.865 437.653 107.021 437.653 103.512C437.653 100.003 434.809 97.1583 431.3 97.1583C427.791 97.1583 424.947 100.003 424.947 103.512ZM405.887 8.21117C402.378 8.21117 399.533 5.36668 399.533 1.8578C399.533 -1.65108 402.378 -4.49556 405.887 -4.49556C409.395 -4.49556 412.24 -1.65108 412.24 1.85781C412.24 5.36669 409.395 8.21117 405.887 8.21117ZM399.533 27.2713C399.533 30.7801 402.378 33.6246 405.887 33.6246C409.395 33.6246 412.24 30.7801 412.24 27.2713C412.24 23.7624 409.395 20.9179 405.887 20.9179C402.378 20.9179 399.533 23.7624 399.533 27.2713ZM405.887 59.0381C402.378 59.0381 399.533 56.1936 399.533 52.6847C399.533 49.1759 402.378 46.3314 405.887 46.3314C409.395 46.3314 412.24 49.1759 412.24 52.6847C412.24 56.1936 409.395 59.0381 405.887 59.0381ZM399.533 78.0982C399.533 81.6071 402.378 84.4516 405.887 84.4516C409.395 84.4516 412.24 81.6071 412.24 78.0982C412.24 74.5894 409.395 71.7449 405.887 71.7449C402.378 71.7449 399.533 74.5894 399.533 78.0982ZM405.887 109.865C402.378 109.865 399.533 107.021 399.533 103.512C399.533 100.003 402.378 97.1583 405.887 97.1583C409.395 97.1583 412.24 100.003 412.24 103.512C412.24 107.021 409.395 109.865 405.887 109.865ZM374.12 1.8578C374.12 5.36668 376.964 8.21116 380.473 8.21117C383.982 8.21117 386.826 5.36668 386.826 1.8578C386.826 -1.65108 383.982 -4.49556 380.473 -4.49556C376.964 -4.49556 374.12 -1.65108 374.12 1.8578ZM380.473 33.6246C376.964 33.6246 374.12 30.7801 374.12 27.2713C374.12 23.7624 376.964 20.9179 380.473 20.9179C383.982 20.9179 386.826 23.7624 386.826 27.2713C386.826 30.7801 383.982 33.6246 380.473 33.6246ZM374.12 52.6847C374.12 56.1936 376.964 59.0381 380.473 59.0381C383.982 59.0381 386.826 56.1936 386.826 52.6847C386.826 49.1759 383.982 46.3314 380.473 46.3314C376.964 46.3314 374.12 49.1759 374.12 52.6847ZM380.473 84.4516C376.964 84.4516 374.12 81.6072 374.12 78.0983C374.12 74.5894 376.964 71.7449 380.473 71.7449C383.982 71.7449 386.826 74.5894 386.826 78.0983C386.826 81.6072 383.982 84.4516 380.473 84.4516ZM374.12 103.512C374.12 107.021 376.964 109.865 380.473 109.865C383.982 109.865 386.826 107.021 386.826 103.512C386.826 100.003 383.982 97.1583 380.473 97.1583C376.964 97.1583 374.12 100.003 374.12 103.512ZM355.06 8.21116C351.551 8.21116 348.706 5.36668 348.706 1.8578C348.706 -1.65108 351.551 -4.49556 355.06 -4.49556C358.568 -4.49556 361.413 -1.65108 361.413 1.8578C361.413 5.36668 358.568 8.21116 355.06 8.21116ZM348.706 27.2713C348.706 30.7801 351.551 33.6246 355.06 33.6246C358.568 33.6246 361.413 30.7801 361.413 27.2713C361.413 23.7624 358.568 20.9179 355.06 20.9179C351.551 20.9179 348.706 23.7624 348.706 27.2713ZM355.06 59.0381C351.551 59.0381 348.706 56.1936 348.706 52.6847C348.706 49.1759 351.551 46.3314 355.06 46.3314C358.568 46.3314 361.413 49.1759 361.413 52.6847C361.413 56.1936 358.568 59.0381 355.06 59.0381ZM348.706 78.0983C348.706 81.6072 351.551 84.4516 355.06 84.4516C358.568 84.4516 361.413 81.6072 361.413 78.0983C361.413 74.5894 358.568 71.7449 355.06 71.7449C351.551 71.7449 348.706 74.5894 348.706 78.0983ZM355.06 109.865C351.551 109.865 348.706 107.021 348.706 103.512C348.706 100.003 351.551 97.1583 355.06 97.1583C358.568 97.1583 361.413 100.003 361.413 103.512C361.413 107.021 358.568 109.865 355.06 109.865ZM323.293 1.85774C323.293 5.36662 326.137 8.21113 329.646 8.21113C333.155 8.21113 335.999 5.36662 335.999 1.85774C335.999 -1.65111 333.155 -4.49563 329.646 -4.49563C326.137 -4.49563 323.293 -1.65111 323.293 1.85774ZM329.646 33.6246C326.137 33.6246 323.293 30.7801 323.293 27.2712C323.293 23.7624 326.137 20.9179 329.646 20.9179C333.155 20.9179 335.999 23.7624 335.999 27.2712C335.999 30.7801 333.155 33.6246 329.646 33.6246ZM323.293 52.6847C323.293 56.1936 326.137 59.0381 329.646 59.0381C333.155 59.0381 335.999 56.1936 335.999 52.6847C335.999 49.1758 333.155 46.3314 329.646 46.3314C326.137 46.3314 323.293 49.1758 323.293 52.6847ZM329.646 84.4516C326.137 84.4516 323.293 81.6071 323.293 78.0982C323.293 74.5894 326.137 71.7449 329.646 71.7449C333.155 71.7449 335.999 74.5894 335.999 78.0982C335.999 81.6071 333.155 84.4516 329.646 84.4516ZM323.293 103.512C323.293 107.021 326.137 109.865 329.646 109.865C333.155 109.865 335.999 107.021 335.999 103.512C335.999 100.003 333.155 97.1583 329.646 97.1583C326.137 97.1583 323.293 100.003 323.293 103.512ZM304.233 8.21113C300.724 8.21113 297.879 5.36661 297.879 1.85773C297.879 -1.65112 300.724 -4.49563 304.233 -4.49563C307.741 -4.49563 310.586 -1.65111 310.586 1.85774C310.586 5.36662 307.741 8.21113 304.233 8.21113ZM297.879 27.2712C297.879 30.7801 300.724 33.6246 304.233 33.6246C307.741 33.6246 310.586 30.7801 310.586 27.2712C310.586 23.7624 307.741 20.9179 304.233 20.9179C300.724 20.9179 297.879 23.7624 297.879 27.2712ZM304.233 59.0381C300.724 59.0381 297.879 56.1936 297.879 52.6847C297.879 49.1759 300.724 46.3314 304.233 46.3314C307.741 46.3314 310.586 49.1759 310.586 52.6847C310.586 56.1936 307.741 59.0381 304.233 59.0381ZM297.879 78.0982C297.879 81.6071 300.724 84.4516 304.233 84.4516C307.741 84.4516 310.586 81.6071 310.586 78.0982C310.586 74.5894 307.741 71.7449 304.233 71.7449C300.724 71.7449 297.879 74.5894 297.879 78.0982ZM304.233 109.865C300.724 109.865 297.879 107.021 297.879 103.512C297.879 100.003 300.724 97.1583 304.233 97.1583C307.741 97.1583 310.586 100.003 310.586 103.512C310.586 107.021 307.741 109.865 304.233 109.865ZM272.466 1.85776C272.466 5.36661 275.31 8.21113 278.819 8.21113C282.328 8.21113 285.173 5.36661 285.173 1.85776C285.173 -1.65112 282.328 -4.49563 278.819 -4.49563C275.31 -4.49563 272.466 -1.65112 272.466 1.85776ZM278.819 33.6246C275.31 33.6246 272.466 30.7801 272.466 27.2712C272.466 23.7624 275.31 20.9179 278.819 20.9179C282.328 20.9179 285.172 23.7624 285.172 27.2712C285.172 30.7801 282.328 33.6246 278.819 33.6246ZM272.466 52.6847C272.466 56.1936 275.31 59.0381 278.819 59.0381C282.328 59.0381 285.172 56.1936 285.172 52.6847C285.172 49.1758 282.328 46.3313 278.819 46.3313C275.31 46.3313 272.466 49.1758 272.466 52.6847ZM278.819 84.4516C275.31 84.4516 272.466 81.6071 272.466 78.0982C272.466 74.5894 275.31 71.7449 278.819 71.7449C282.328 71.7449 285.172 74.5894 285.172 78.0982C285.172 81.6071 282.328 84.4516 278.819 84.4516ZM272.466 103.512C272.466 107.021 275.31 109.865 278.819 109.865C282.328 109.865 285.172 107.021 285.172 103.512C285.172 100.003 282.328 97.1583 278.819 97.1583C275.31 97.1583 272.466 100.003 272.466 103.512ZM253.406 8.21112C249.897 8.21112 247.052 5.36661 247.052 1.85776C247.052 -1.65112 249.897 -4.49563 253.406 -4.49563C256.914 -4.49563 259.759 -1.65112 259.759 1.85776C259.759 5.36661 256.914 8.21112 253.406 8.21112ZM247.052 27.2712C247.052 30.7801 249.897 33.6246 253.406 33.6246C256.914 33.6246 259.759 30.7801 259.759 27.2712C259.759 23.7624 256.914 20.9179 253.406 20.9179C249.897 20.9179 247.052 23.7624 247.052 27.2712ZM253.406 59.0381C249.897 59.0381 247.052 56.1936 247.052 52.6847C247.052 49.1758 249.897 46.3313 253.406 46.3313C256.914 46.3313 259.759 49.1758 259.759 52.6847C259.759 56.1936 256.914 59.0381 253.406 59.0381ZM247.052 78.0982C247.052 81.6071 249.897 84.4516 253.406 84.4516C256.914 84.4516 259.759 81.6071 259.759 78.0982C259.759 74.5894 256.914 71.7449 253.406 71.7449C249.897 71.7449 247.052 74.5894 247.052 78.0982ZM253.406 109.865C249.897 109.865 247.052 107.021 247.052 103.512C247.052 100.003 249.897 97.1583 253.406 97.1583C256.914 97.1583 259.759 100.003 259.759 103.512C259.759 107.021 256.914 109.865 253.406 109.865ZM221.639 1.85776C221.639 5.36661 224.483 8.21112 227.992 8.21112C231.501 8.21112 234.345 5.36661 234.345 1.85776C234.345 -1.65112 231.501 -4.49563 227.992 -4.49563C224.483 -4.49563 221.639 -1.65112 221.639 1.85776ZM227.992 33.6246C224.483 33.6246 221.639 30.7801 221.639 27.2712C221.639 23.7624 224.483 20.9179 227.992 20.9179C231.501 20.9179 234.345 23.7624 234.345 27.2712C234.345 30.7801 231.501 33.6246 227.992 33.6246ZM221.639 52.6847C221.639 56.1936 224.483 59.0381 227.992 59.0381C231.501 59.0381 234.345 56.1936 234.345 52.6847C234.345 49.1758 231.501 46.3313 227.992 46.3313C224.483 46.3313 221.639 49.1758 221.639 52.6847ZM227.992 84.4516C224.483 84.4516 221.639 81.6071 221.639 78.0982C221.639 74.5894 224.483 71.7449 227.992 71.7449C231.501 71.7449 234.345 74.5894 234.345 78.0982C234.345 81.6071 231.501 84.4516 227.992 84.4516ZM221.639 103.512C221.639 107.021 224.483 109.865 227.992 109.865C231.501 109.865 234.345 107.021 234.345 103.512C234.345 100.003 231.501 97.1583 227.992 97.1583C224.483 97.1583 221.639 100.003 221.639 103.512ZM126.338 109.865C129.847 109.865 132.692 107.021 132.692 103.512C132.692 100.003 129.847 97.1583 126.338 97.1583C122.83 97.1583 119.985 100.003 119.985 103.512C119.985 107.021 122.83 109.865 126.338 109.865ZM-19.7891 103.512C-19.7891 107.021 -22.6336 109.865 -26.1424 109.865C-29.6513 109.865 -32.4958 107.021 -32.4958 103.512C-32.4958 100.003 -29.6513 97.1583 -26.1424 97.1583C-22.6336 97.1583 -19.7891 100.003 -19.7891 103.512ZM-26.1425 84.4515C-22.6336 84.4515 -19.7891 81.6071 -19.7891 78.0982C-19.7891 74.5893 -22.6336 71.7448 -26.1425 71.7448C-29.6513 71.7448 -32.4958 74.5893 -32.4958 78.0982C-32.4958 81.6071 -29.6513 84.4515 -26.1425 84.4515ZM24.6842 -17.2024C28.1931 -17.2024 31.0376 -20.0469 31.0376 -23.5558C31.0376 -27.0647 28.1931 -29.9092 24.6842 -29.9092C21.1754 -29.9092 18.3309 -27.0647 18.3309 -23.5558C18.3309 -20.0469 21.1754 -17.2024 24.6842 -17.2024ZM50.0979 -42.6159C53.6067 -42.6159 56.4512 -45.4604 56.4512 -48.9693C56.4512 -52.4782 53.6067 -55.3227 50.0979 -55.3227C46.589 -55.3227 43.7445 -52.4782 43.7445 -48.9693C43.7445 -45.4604 46.589 -42.6159 50.0979 -42.6159ZM56.4512 -23.5558C56.4512 -20.0469 53.6067 -17.2024 50.0979 -17.2024C46.589 -17.2024 43.7445 -20.0469 43.7445 -23.5558C43.7445 -27.0646 46.589 -29.9092 50.0979 -29.9092C53.6068 -29.9092 56.4512 -27.0646 56.4512 -23.5558ZM75.5115 -68.0294C79.0204 -68.0294 81.8649 -70.8739 81.8649 -74.3828C81.8649 -77.8917 79.0204 -80.7362 75.5115 -80.7362C72.0026 -80.7362 69.1581 -77.8917 69.1581 -74.3828C69.1581 -70.8739 72.0026 -68.0294 75.5115 -68.0294ZM81.8649 -48.9692C81.8649 -45.4604 79.0204 -42.6159 75.5115 -42.6159C72.0026 -42.6159 69.1581 -45.4604 69.1581 -48.9692C69.1581 -52.4781 72.0026 -55.3226 75.5115 -55.3226C79.0204 -55.3226 81.8649 -52.4781 81.8649 -48.9692ZM75.5115 -17.2024C79.0204 -17.2024 81.8649 -20.0469 81.8649 -23.5558C81.8649 -27.0646 79.0204 -29.9092 75.5115 -29.9092C72.0026 -29.9092 69.1581 -27.0646 69.1581 -23.5558C69.1581 -20.0469 72.0026 -17.2024 75.5115 -17.2024ZM107.279 -74.3828C107.279 -70.8739 104.434 -68.0294 100.925 -68.0294C97.4163 -68.0294 94.5718 -70.8739 94.5718 -74.3828C94.5718 -77.8917 97.4163 -80.7362 100.925 -80.7362C104.434 -80.7362 107.279 -77.8917 107.279 -74.3828ZM100.925 -42.6159C104.434 -42.6159 107.279 -45.4604 107.279 -48.9693C107.279 -52.4782 104.434 -55.3227 100.925 -55.3227C97.4163 -55.3227 94.5718 -52.4782 94.5718 -48.9693C94.5718 -45.4604 97.4163 -42.6159 100.925 -42.6159ZM107.279 -23.5558C107.279 -20.0469 104.434 -17.2024 100.925 -17.2024C97.4163 -17.2024 94.5717 -20.0469 94.5718 -23.5558C94.5718 -27.0647 97.4163 -29.9092 100.925 -29.9092C104.434 -29.9092 107.279 -27.0647 107.279 -23.5558ZM126.338 -93.4429C129.847 -93.4429 132.692 -96.2874 132.692 -99.7962C132.692 -103.305 129.847 -106.15 126.338 -106.15C122.83 -106.15 119.985 -103.305 119.985 -99.7962C119.985 -96.2874 122.83 -93.4429 126.338 -93.4429ZM132.692 -74.3828C132.692 -70.8739 129.847 -68.0294 126.338 -68.0294C122.83 -68.0294 119.985 -70.8739 119.985 -74.3828C119.985 -77.8917 122.83 -80.7362 126.338 -80.7362C129.847 -80.7362 132.692 -77.8917 132.692 -74.3828ZM126.338 -42.6159C129.847 -42.6159 132.692 -45.4604 132.692 -48.9693C132.692 -52.4782 129.847 -55.3227 126.338 -55.3227C122.83 -55.3227 119.985 -52.4782 119.985 -48.9693C119.985 -45.4604 122.83 -42.6159 126.338 -42.6159ZM132.692 -23.5558C132.692 -20.0469 129.847 -17.2024 126.338 -17.2024C122.83 -17.2024 119.985 -20.0469 119.985 -23.5558C119.985 -27.0647 122.83 -29.9092 126.338 -29.9092C129.847 -29.9092 132.692 -27.0647 132.692 -23.5558ZM151.752 -93.4429C155.261 -93.4429 158.105 -96.2874 158.105 -99.7962C158.105 -103.305 155.261 -106.15 151.752 -106.15C148.243 -106.15 145.398 -103.305 145.398 -99.7962C145.398 -96.2874 148.243 -93.4429 151.752 -93.4429ZM158.105 -74.3828C158.105 -70.8739 155.261 -68.0294 151.752 -68.0294C148.243 -68.0294 145.398 -70.8739 145.398 -74.3828C145.398 -77.8917 148.243 -80.7362 151.752 -80.7362C155.261 -80.7362 158.105 -77.8917 158.105 -74.3828ZM151.752 -42.6159C155.261 -42.6159 158.105 -45.4604 158.105 -48.9693C158.105 -52.4782 155.261 -55.3227 151.752 -55.3227C148.243 -55.3227 145.398 -52.4782 145.398 -48.9693C145.398 -45.4604 148.243 -42.6159 151.752 -42.6159ZM158.105 -23.5558C158.105 -20.0469 155.261 -17.2024 151.752 -17.2024C148.243 -17.2024 145.398 -20.0469 145.398 -23.5558C145.398 -27.0647 148.243 -29.9092 151.752 -29.9092C155.261 -29.9092 158.105 -27.0647 158.105 -23.5558ZM177.165 -118.856C180.674 -118.856 183.519 -121.701 183.519 -125.21C183.519 -128.719 180.674 -131.563 177.165 -131.563C173.657 -131.563 170.812 -128.719 170.812 -125.21C170.812 -121.701 173.657 -118.856 177.165 -118.856ZM183.519 -99.7963C183.519 -96.2874 180.674 -93.4429 177.165 -93.4429C173.657 -93.4429 170.812 -96.2874 170.812 -99.7963C170.812 -103.305 173.657 -106.15 177.165 -106.15C180.674 -106.15 183.519 -103.305 183.519 -99.7963ZM177.165 -68.0294C180.674 -68.0294 183.519 -70.8739 183.519 -74.3828C183.519 -77.8917 180.674 -80.7362 177.165 -80.7362C173.657 -80.7362 170.812 -77.8917 170.812 -74.3828C170.812 -70.8739 173.657 -68.0294 177.165 -68.0294ZM183.519 -48.9693C183.519 -45.4604 180.674 -42.6159 177.165 -42.6159C173.657 -42.6159 170.812 -45.4604 170.812 -48.9693C170.812 -52.4782 173.657 -55.3227 177.165 -55.3227C180.674 -55.3227 183.519 -52.4782 183.519 -48.9693ZM177.165 -17.2024C180.674 -17.2024 183.519 -20.0469 183.519 -23.5558C183.519 -27.0647 180.674 -29.9092 177.165 -29.9092C173.657 -29.9092 170.812 -27.0647 170.812 -23.5558C170.812 -20.0469 173.657 -17.2024 177.165 -17.2024ZM208.932 -125.21C208.932 -121.701 206.088 -118.856 202.579 -118.856C199.07 -118.856 196.226 -121.701 196.226 -125.21C196.226 -128.719 199.07 -131.563 202.579 -131.563C206.088 -131.563 208.932 -128.719 208.932 -125.21ZM202.579 -93.4429C206.088 -93.4429 208.932 -96.2874 208.932 -99.7963C208.932 -103.305 206.088 -106.15 202.579 -106.15C199.07 -106.15 196.226 -103.305 196.226 -99.7963C196.226 -96.2874 199.07 -93.4429 202.579 -93.4429ZM208.932 -74.3828C208.932 -70.8739 206.088 -68.0294 202.579 -68.0294C199.07 -68.0294 196.226 -70.8739 196.226 -74.3828C196.226 -77.8917 199.07 -80.7362 202.579 -80.7362C206.088 -80.7362 208.932 -77.8917 208.932 -74.3828ZM202.579 -42.6159C206.088 -42.6159 208.932 -45.4604 208.932 -48.9693C208.932 -52.4782 206.088 -55.3227 202.579 -55.3227C199.07 -55.3227 196.226 -52.4782 196.226 -48.9693C196.226 -45.4604 199.07 -42.6159 202.579 -42.6159ZM208.932 -23.5558C208.932 -20.0469 206.088 -17.2024 202.579 -17.2024C199.07 -17.2024 196.226 -20.0469 196.226 -23.5558C196.226 -27.0647 199.07 -29.9091 202.579 -29.9091C206.088 -29.9091 208.932 -27.0647 208.932 -23.5558ZM-0.729097 33.6246C2.77978 33.6246 5.6243 30.7801 5.6243 27.2712C5.6243 23.7623 2.77978 20.9179 -0.729096 20.9179C-4.23795 20.9179 -7.08246 23.7623 -7.08246 27.2712C-7.08246 30.7801 -4.23798 33.6246 -0.729097 33.6246ZM5.62423 52.6847C5.62423 56.1936 2.77975 59.038 -0.729099 59.038C-4.23801 59.038 -7.08249 56.1936 -7.08249 52.6847C-7.08249 49.1758 -4.23801 46.3313 -0.729098 46.3313C2.77975 46.3313 5.62423 49.1758 5.62423 52.6847ZM-0.729102 84.4515C2.77975 84.4515 5.62423 81.607 5.62423 78.0982C5.62423 74.5893 2.77975 71.7448 -0.7291 71.7448C-4.23801 71.7448 -7.08249 74.5893 -7.08249 78.0982C-7.08249 81.607 -4.23801 84.4515 -0.729102 84.4515ZM5.62426 103.512C5.62426 107.021 2.77978 109.865 -0.729104 109.865C-4.23798 109.865 -7.08247 107.021 -7.08247 103.512C-7.08247 100.003 -4.23798 97.1583 -0.729103 97.1583C2.77978 97.1583 5.62426 100.003 5.62426 103.512ZM24.6842 8.2111C28.1931 8.2111 31.0376 5.36659 31.0376 1.85771C31.0376 -1.65114 28.1931 -4.49565 24.6842 -4.49565C21.1754 -4.49565 18.3309 -1.65114 18.3309 1.85771C18.3309 5.36659 21.1754 8.2111 24.6842 8.2111ZM31.0376 27.2712C31.0376 30.7801 28.1931 33.6246 24.6842 33.6246C21.1754 33.6246 18.3309 30.7801 18.3309 27.2712C18.3309 23.7623 21.1754 20.9179 24.6842 20.9179C28.1931 20.9179 31.0376 23.7623 31.0376 27.2712ZM24.6842 59.038C28.1931 59.038 31.0376 56.1935 31.0376 52.6847C31.0376 49.1758 28.1931 46.3313 24.6842 46.3313C21.1754 46.3313 18.3308 49.1758 18.3308 52.6847C18.3308 56.1935 21.1754 59.038 24.6842 59.038ZM31.0376 78.0982C31.0376 81.607 28.1931 84.4515 24.6842 84.4515C21.1753 84.4515 18.3308 81.607 18.3308 78.0982C18.3308 74.5893 21.1753 71.7448 24.6842 71.7448C28.1931 71.7448 31.0376 74.5893 31.0376 78.0982ZM24.6842 109.865C28.1931 109.865 31.0376 107.021 31.0376 103.512C31.0376 100.003 28.1931 97.1583 24.6842 97.1583C21.1753 97.1583 18.3308 100.003 18.3308 103.512C18.3308 107.021 21.1753 109.865 24.6842 109.865ZM56.4512 1.85771C56.4512 5.36659 53.6067 8.21111 50.0979 8.21111C46.589 8.21111 43.7445 5.36659 43.7445 1.85771C43.7445 -1.65114 46.589 -4.49565 50.0979 -4.49565C53.6067 -4.49565 56.4512 -1.65114 56.4512 1.85771ZM50.0979 33.6246C53.6067 33.6246 56.4512 30.7801 56.4512 27.2712C56.4512 23.7623 53.6067 20.9179 50.0979 20.9179C46.589 20.9179 43.7445 23.7623 43.7445 27.2712C43.7445 30.7801 46.589 33.6246 50.0979 33.6246ZM56.4512 52.6847C56.4512 56.1935 53.6067 59.038 50.0978 59.038C46.589 59.038 43.7445 56.1935 43.7445 52.6847C43.7445 49.1758 46.589 46.3313 50.0979 46.3313C53.6067 46.3313 56.4512 49.1758 56.4512 52.6847ZM50.0979 84.4515C53.6067 84.4515 56.4512 81.607 56.4512 78.0982C56.4512 74.5893 53.6067 71.7448 50.0979 71.7448C46.589 71.7448 43.7445 74.5893 43.7445 78.0982C43.7445 81.607 46.589 84.4515 50.0979 84.4515ZM56.4512 103.512C56.4512 107.021 53.6067 109.865 50.0979 109.865C46.589 109.865 43.7445 107.021 43.7445 103.512C43.7445 100.003 46.589 97.1583 50.0979 97.1583C53.6067 97.1583 56.4512 100.003 56.4512 103.512ZM75.5115 8.21108C79.0204 8.21108 81.8649 5.3666 81.8649 1.85772C81.8649 -1.65117 79.0204 -4.49565 75.5115 -4.49565C72.0026 -4.49565 69.1581 -1.65117 69.1581 1.85771C69.1581 5.36659 72.0026 8.21108 75.5115 8.21108ZM81.8649 27.2712C81.8649 30.7801 79.0204 33.6246 75.5115 33.6246C72.0026 33.6246 69.1581 30.7801 69.1581 27.2712C69.1581 23.7623 72.0026 20.9178 75.5115 20.9178C79.0204 20.9178 81.8649 23.7623 81.8649 27.2712ZM75.5115 59.038C79.0204 59.038 81.8649 56.1935 81.8649 52.6847C81.8649 49.1758 79.0204 46.3313 75.5115 46.3313C72.0026 46.3313 69.1581 49.1758 69.1581 52.6847C69.1581 56.1935 72.0026 59.038 75.5115 59.038ZM81.8649 78.0982C81.8649 81.607 79.0203 84.4516 75.5115 84.4516C72.0026 84.4516 69.1581 81.607 69.1581 78.0982C69.1581 74.5893 72.0026 71.7448 75.5115 71.7448C79.0204 71.7448 81.8649 74.5893 81.8649 78.0982ZM75.5115 109.865C79.0203 109.865 81.8649 107.021 81.8649 103.512C81.8649 100.003 79.0203 97.1583 75.5115 97.1583C72.0026 97.1583 69.1581 100.003 69.1581 103.512C69.1581 107.021 72.0026 109.865 75.5115 109.865ZM107.279 1.85772C107.279 5.3666 104.434 8.21108 100.925 8.21108C97.4163 8.21108 94.5717 5.3666 94.5717 1.85772C94.5717 -1.65116 97.4163 -4.49565 100.925 -4.49565C104.434 -4.49565 107.279 -1.65116 107.279 1.85772ZM100.925 33.6246C104.434 33.6246 107.279 30.7801 107.279 27.2712C107.279 23.7623 104.434 20.9178 100.925 20.9178C97.4163 20.9178 94.5717 23.7623 94.5717 27.2712C94.5717 30.7801 97.4163 33.6246 100.925 33.6246ZM107.279 52.6847C107.278 56.1935 104.434 59.038 100.925 59.038C97.4163 59.038 94.5717 56.1935 94.5717 52.6847C94.5717 49.1758 97.4163 46.3313 100.925 46.3313C104.434 46.3313 107.279 49.1758 107.279 52.6847ZM100.925 84.4516C104.434 84.4516 107.278 81.607 107.278 78.0982C107.278 74.5893 104.434 71.7448 100.925 71.7448C97.4163 71.7448 94.5717 74.5893 94.5717 78.0982C94.5717 81.607 97.4163 84.4516 100.925 84.4516ZM107.278 103.512C107.278 107.021 104.434 109.865 100.925 109.865C97.4163 109.865 94.5717 107.021 94.5717 103.512C94.5717 100.003 97.4163 97.1583 100.925 97.1583C104.434 97.1583 107.278 100.003 107.278 103.512ZM126.338 8.21114C129.847 8.21114 132.692 5.36663 132.692 1.85778C132.692 -1.6511 129.847 -4.49561 126.338 -4.49561C122.83 -4.49561 119.985 -1.6511 119.985 1.85778C119.985 5.36663 122.83 8.21114 126.338 8.21114ZM132.692 27.2712C132.692 30.7801 129.847 33.6246 126.338 33.6246C122.83 33.6246 119.985 30.7801 119.985 27.2712C119.985 23.7623 122.83 20.9178 126.338 20.9178C129.847 20.9178 132.692 23.7624 132.692 27.2712ZM126.338 59.038C129.847 59.038 132.692 56.1935 132.692 52.6847C132.692 49.1758 129.847 46.3313 126.338 46.3313C122.83 46.3313 119.985 49.1758 119.985 52.6847C119.985 56.1935 122.83 59.038 126.338 59.038ZM132.692 78.0982C132.692 81.6071 129.847 84.4516 126.338 84.4516C122.83 84.4516 119.985 81.6071 119.985 78.0982C119.985 74.5893 122.83 71.7448 126.338 71.7448C129.847 71.7448 132.692 74.5893 132.692 78.0982ZM158.105 1.85778C158.105 5.36663 155.261 8.21115 151.752 8.21115C148.243 8.21114 145.398 5.36663 145.398 1.85778C145.398 -1.6511 148.243 -4.49561 151.752 -4.49561C155.261 -4.49561 158.105 -1.6511 158.105 1.85778ZM151.752 33.6246C155.261 33.6246 158.105 30.7801 158.105 27.2712C158.105 23.7624 155.261 20.9178 151.752 20.9178C148.243 20.9178 145.398 23.7624 145.398 27.2712C145.398 30.7801 148.243 33.6246 151.752 33.6246ZM158.105 52.6847C158.105 56.1935 155.261 59.038 151.752 59.038C148.243 59.038 145.398 56.1935 145.398 52.6847C145.398 49.1758 148.243 46.3313 151.752 46.3313C155.261 46.3313 158.105 49.1758 158.105 52.6847ZM151.752 84.4516C155.261 84.4516 158.105 81.6071 158.105 78.0982C158.105 74.5893 155.261 71.7448 151.752 71.7448C148.243 71.7448 145.398 74.5893 145.398 78.0982C145.398 81.6071 148.243 84.4516 151.752 84.4516ZM158.105 103.512C158.105 107.021 155.261 109.865 151.752 109.865C148.243 109.865 145.398 107.021 145.398 103.512C145.398 100.003 148.243 97.1583 151.752 97.1583C155.261 97.1583 158.105 100.003 158.105 103.512ZM177.165 8.21115C180.674 8.21115 183.519 5.36664 183.519 1.85779C183.519 -1.6511 180.674 -4.49561 177.165 -4.49561C173.657 -4.49561 170.812 -1.6511 170.812 1.85778C170.812 5.36663 173.657 8.21115 177.165 8.21115ZM183.519 27.2712C183.519 30.7801 180.674 33.6246 177.165 33.6246C173.657 33.6246 170.812 30.7801 170.812 27.2712C170.812 23.7624 173.657 20.9178 177.165 20.9178C180.674 20.9178 183.519 23.7624 183.519 27.2712ZM177.165 59.038C180.674 59.038 183.519 56.1935 183.519 52.6847C183.519 49.1758 180.674 46.3313 177.165 46.3313C173.657 46.3313 170.812 49.1758 170.812 52.6847C170.812 56.1935 173.657 59.038 177.165 59.038ZM183.519 78.0982C183.519 81.6071 180.674 84.4516 177.165 84.4516C173.657 84.4516 170.812 81.6071 170.812 78.0982C170.812 74.5893 173.657 71.7448 177.165 71.7448C180.674 71.7448 183.519 74.5893 183.519 78.0982ZM177.165 109.865C180.674 109.865 183.519 107.021 183.519 103.512C183.519 100.003 180.674 97.1583 177.165 97.1583C173.657 97.1583 170.812 100.003 170.812 103.512C170.812 107.021 173.657 109.865 177.165 109.865ZM208.932 1.85776C208.932 5.36664 206.088 8.21115 202.579 8.21115C199.07 8.21115 196.226 5.36664 196.226 1.85776C196.226 -1.65109 199.07 -4.49561 202.579 -4.49561C206.088 -4.49561 208.932 -1.65109 208.932 1.85776ZM202.579 33.6246C206.088 33.6246 208.932 30.7801 208.932 27.2712C208.932 23.7624 206.088 20.9178 202.579 20.9178C199.07 20.9178 196.226 23.7624 196.226 27.2712C196.226 30.7801 199.07 33.6246 202.579 33.6246ZM208.932 52.6847C208.932 56.1935 206.088 59.0381 202.579 59.0381C199.07 59.0381 196.226 56.1935 196.226 52.6847C196.226 49.1758 199.07 46.3313 202.579 46.3313C206.088 46.3313 208.932 49.1758 208.932 52.6847ZM202.579 84.4516C206.088 84.4516 208.932 81.6071 208.932 78.0982C208.932 74.5893 206.088 71.7448 202.579 71.7448C199.07 71.7448 196.226 74.5893 196.226 78.0982C196.226 81.6071 199.07 84.4516 202.579 84.4516ZM208.932 103.512C208.932 107.021 206.088 109.865 202.579 109.865C199.07 109.865 196.226 107.021 196.226 103.512C196.226 100.003 199.07 97.1583 202.579 97.1583C206.088 97.1583 208.932 100.003 208.932 103.512Z" fill="url(#paint0_linear_312_13440)"/>
<defs>
<linearGradient id="paint0_linear_312_13440" x1="215.285" y1="-131.563" x2="215.285" y2="364" gradientUnits="userSpaceOnUse">
<stop offset="0.219273" stop-color="white"/>
<stop offset="1" stop-color="white" stop-opacity="0"/>
</linearGradient>
</defs>
</svg>
