<svg width="132" height="133" viewBox="0 0 132 133" fill="none" xmlns="http://www.w3.org/2000/svg">
<circle cx="3.47368" cy="73.8068" r="3.47368" fill="#F05E00"/>
<circle cx="3.47368" cy="87.7015" r="3.47368" fill="#F05E00"/>
<circle cx="3.47368" cy="101.596" r="3.47368" fill="#F05E00"/>
<circle cx="3.47368" cy="115.491" r="3.47368" fill="#F05E00"/>
<circle cx="3.47368" cy="129.386" r="3.47368" fill="#F05E00"/>
<circle cx="17.3682" cy="73.8068" r="3.47368" fill="#F05E00"/>
<circle cx="17.3682" cy="87.7015" r="3.47368" fill="#F05E00"/>
<circle cx="17.3682" cy="101.596" r="3.47368" fill="#F05E00"/>
<circle cx="17.3682" cy="115.491" r="3.47368" fill="#F05E00"/>
<circle cx="17.3682" cy="129.386" r="3.47368" fill="#F05E00"/>
<circle cx="31.2627" cy="73.8068" r="3.47368" fill="#F05E00"/>
<circle cx="31.2627" cy="87.7015" r="3.47368" fill="#F05E00"/>
<circle cx="31.2627" cy="101.596" r="3.47368" fill="#F05E00"/>
<circle cx="31.2627" cy="115.491" r="3.47368" fill="#F05E00"/>
<circle cx="31.2627" cy="129.386" r="3.47368" fill="#F05E00"/>
<circle cx="45.1583" cy="73.8068" r="3.47368" fill="#F05E00"/>
<circle cx="45.1583" cy="87.7015" r="3.47368" fill="#F05E00"/>
<circle cx="45.1583" cy="101.596" r="3.47368" fill="#F05E00"/>
<circle cx="45.1583" cy="115.491" r="3.47368" fill="#F05E00"/>
<circle cx="45.1583" cy="129.386" r="3.47368" fill="#F05E00"/>
<circle cx="59.0528" cy="73.8068" r="3.47368" fill="#F05E00"/>
<circle cx="59.0528" cy="87.7015" r="3.47368" fill="#F05E00"/>
<circle cx="59.0528" cy="101.596" r="3.47368" fill="#F05E00"/>
<circle cx="59.0528" cy="115.491" r="3.47368" fill="#F05E00"/>
<circle cx="59.0528" cy="129.386" r="3.47368" fill="#F05E00"/>
<circle cx="3.47368" cy="4.33306" r="3.47368" fill="#F05E00"/>
<circle cx="3.47368" cy="18.2278" r="3.47368" fill="#F05E00"/>
<circle cx="3.47368" cy="32.1225" r="3.47368" fill="#F05E00"/>
<circle cx="3.47368" cy="46.0173" r="3.47368" fill="#F05E00"/>
<circle cx="3.47368" cy="59.912" r="3.47368" fill="#F05E00"/>
<circle cx="17.3682" cy="4.33306" r="3.47368" fill="#F05E00"/>
<circle cx="17.3682" cy="18.2278" r="3.47368" fill="#F05E00"/>
<circle cx="17.3682" cy="32.1225" r="3.47368" fill="#F05E00"/>
<circle cx="17.3682" cy="46.0173" r="3.47368" fill="#F05E00"/>
<circle cx="17.3682" cy="59.912" r="3.47368" fill="#F05E00"/>
<circle cx="31.2627" cy="4.33306" r="3.47368" fill="#F05E00"/>
<circle cx="31.2627" cy="18.2278" r="3.47368" fill="#F05E00"/>
<circle cx="31.2627" cy="32.1225" r="3.47368" fill="#F05E00"/>
<circle cx="31.2627" cy="46.0173" r="3.47368" fill="#F05E00"/>
<circle cx="31.2627" cy="59.912" r="3.47368" fill="#F05E00"/>
<circle cx="45.1583" cy="4.33306" r="3.47368" fill="#F05E00"/>
<circle cx="45.1583" cy="18.2278" r="3.47368" fill="#F05E00"/>
<circle cx="45.1583" cy="32.1225" r="3.47368" fill="#F05E00"/>
<circle cx="45.1583" cy="46.0173" r="3.47368" fill="#F05E00"/>
<circle cx="45.1583" cy="59.912" r="3.47368" fill="#F05E00"/>
<circle cx="59.0528" cy="4.33306" r="3.47368" fill="#F05E00"/>
<circle cx="59.0528" cy="18.2278" r="3.47368" fill="#F05E00"/>
<circle cx="59.0528" cy="32.1225" r="3.47368" fill="#F05E00"/>
<circle cx="59.0528" cy="46.0173" r="3.47368" fill="#F05E00"/>
<circle cx="59.0528" cy="59.912" r="3.47368" fill="#F05E00"/>
<circle cx="72.9473" cy="73.8068" r="3.47368" fill="#F05E00"/>
<circle cx="72.9473" cy="87.7015" r="3.47368" fill="#F05E00"/>
<circle cx="72.9473" cy="101.596" r="3.47368" fill="#F05E00"/>
<circle cx="72.9473" cy="115.491" r="3.47368" fill="#F05E00"/>
<circle cx="72.9473" cy="129.386" r="3.47368" fill="#F05E00"/>
<circle cx="86.8419" cy="73.8068" r="3.47368" fill="#F05E00"/>
<circle cx="86.8419" cy="87.7015" r="3.47368" fill="#F05E00"/>
<circle cx="86.8419" cy="101.596" r="3.47368" fill="#F05E00"/>
<circle cx="86.8419" cy="115.491" r="3.47368" fill="#F05E00"/>
<circle cx="86.8419" cy="129.386" r="3.47368" fill="#F05E00"/>
<circle cx="100.736" cy="73.8068" r="3.47368" fill="#F05E00"/>
<circle cx="100.736" cy="87.7015" r="3.47368" fill="#F05E00"/>
<circle cx="100.736" cy="101.596" r="3.47368" fill="#F05E00"/>
<circle cx="100.736" cy="115.491" r="3.47368" fill="#F05E00"/>
<circle cx="100.736" cy="129.386" r="3.47368" fill="#F05E00"/>
<circle cx="114.632" cy="73.8068" r="3.47368" fill="#F05E00"/>
<circle cx="114.632" cy="87.7015" r="3.47368" fill="#F05E00"/>
<circle cx="114.632" cy="101.596" r="3.47368" fill="#F05E00"/>
<circle cx="114.632" cy="115.491" r="3.47368" fill="#F05E00"/>
<circle cx="114.632" cy="129.386" r="3.47368" fill="#F05E00"/>
<circle cx="128.526" cy="73.8068" r="3.47368" fill="#F05E00"/>
<circle cx="128.526" cy="87.7015" r="3.47368" fill="#F05E00"/>
<circle cx="128.526" cy="101.596" r="3.47368" fill="#F05E00"/>
<circle cx="128.526" cy="115.491" r="3.47368" fill="#F05E00"/>
<circle cx="128.526" cy="129.386" r="3.47368" fill="#F05E00"/>
</svg>
