<svg width="64" height="64" viewBox="0 0 64 64" fill="none" xmlns="http://www.w3.org/2000/svg">
<path d="M41.9744 17.9302C43.2363 18.2496 44.3736 18.6546 45.2387 19.1659C46.0057 19.6193 47.12 20.4954 47.12 21.92C47.12 22.0747 47.1069 22.2229 47.0825 22.3648L43.8526 52.8329C43.7341 53.9582 43.2146 55.1749 42.0903 55.9583C40.451 57.1003 37.0715 58.88 31.9773 58.88C26.883 58.88 23.5035 57.1003 21.8643 55.9583C20.7399 55.1749 20.2204 53.9582 20.102 52.8329L16.9175 22.3648C16.8931 22.2229 16.88 22.0747 16.88 21.92C16.88 20.4954 17.9943 19.6193 18.7614 19.1659C19.6409 18.646 20.8018 18.2361 22.089 17.9143C24.6894 17.2642 28.1927 16.88 32 16.88C34.3935 16.88 36.6668 17.0318 38.6711 17.3061L41.9744 17.9302ZM37.9395 20.5984C36.1812 20.3716 34.1619 20.24 32 20.24C28.3846 20.24 25.1679 20.608 22.904 21.174C21.9422 21.4144 21.2186 21.6745 20.7268 21.92C21.2186 22.1655 21.9422 22.4256 22.9039 22.6661C25.1679 23.232 28.3846 23.6 32 23.6C33.9185 23.6 35.7247 23.4964 37.3359 23.3146L37.9395 20.5984ZM38.9204 26.499C36.8561 26.7953 34.4932 26.96 32 26.96C28.1927 26.96 24.6894 26.5758 22.089 25.9257C21.5783 25.798 21.0874 25.6565 20.6261 25.4997L23.4435 52.4811C23.4862 52.8866 23.6464 53.1048 23.785 53.2014C24.9858 54.038 27.708 55.52 31.9773 55.52C36.2465 55.52 38.9688 54.038 40.1696 53.2014C40.3082 53.1048 40.4683 52.8866 40.511 52.4811L43.3739 25.4997C42.9126 25.6565 42.4218 25.798 41.911 25.9257C41.0354 26.1446 40.0574 26.3334 38.9999 26.4875C38.9736 26.4919 38.9471 26.4958 38.9204 26.499ZM20.1307 21.5312C20.1307 21.5312 20.138 21.5376 20.1475 21.5512C20.1345 21.5381 20.1307 21.5312 20.1307 21.5312ZM43.8693 21.5312C43.8693 21.5312 43.8655 21.5381 43.8526 21.5512C43.862 21.5376 43.8693 21.5312 43.8693 21.5312ZM43.2732 21.92C42.8072 21.6874 42.133 21.4416 41.2451 21.2119L40.912 22.7111C40.974 22.6963 41.0354 22.6812 41.0961 22.6661C42.0579 22.4256 42.7814 22.1655 43.2732 21.92Z" fill="#2A72C7"/>
<path d="M51.8289 6.24364C52.1735 7.10512 51.7545 8.08283 50.893 8.42742L43.3166 11.458L41.9744 17.9302L40.96 22.784L37.3359 23.3145L38.6711 17.3061L40.2291 9.86314C40.3495 9.32129 40.7298 8.87389 41.2451 8.66774L49.6451 5.30774C50.5066 4.96315 51.4843 5.38217 51.8289 6.24364Z" fill="#F2BA01"/>
</svg>
