<svg width="64" height="64" viewBox="0 0 64 64" fill="none" xmlns="http://www.w3.org/2000/svg">
<path d="M42.08 11.84C42.08 9.98433 43.5843 8.48001 45.44 8.48001H52.16C54.0157 8.48001 55.52 9.98434 55.52 11.84V52.16H57.2C58.1278 52.16 58.88 52.9122 58.88 53.84C58.88 54.7679 58.1278 55.52 57.2 55.52H6.8C5.87216 55.52 5.12 54.7679 5.12 53.84C5.12 52.9122 5.87216 52.16 6.8 52.16H8.48V42.08C8.48 40.2243 9.98432 38.72 11.84 38.72H18.56C20.4157 38.72 21.92 40.2243 21.92 42.08V52.16H25.28V28.64C25.28 26.7843 26.7843 25.28 28.64 25.28H35.36C37.2157 25.28 38.72 26.7843 38.72 28.64V52.16H42.08V11.84ZM45.44 52.16H52.16V11.84H45.44V52.16ZM35.36 52.16V28.64H28.64V52.16H35.36ZM18.56 52.16V42.08H11.84V52.16H18.56Z" fill="#2A72C7"/>
<path d="M55.52 52.16L57.2 52.16C58.1278 52.16 58.88 52.9122 58.88 53.84C58.88 54.7679 58.1278 55.52 57.2 55.52H6.8C5.87216 55.52 5.12 54.7679 5.12 53.84C5.12 52.9122 5.87216 52.16 6.8 52.16H8.48L55.52 52.16Z" fill="#F2BA01"/>
<path d="M10.6667 9.17333C10.6667 8.34858 11.3352 7.67999 12.16 7.67999H24.1067C24.9314 7.67999 25.6 8.34858 25.6 9.17333V21.12C25.6 21.9447 24.9314 22.6133 24.1067 22.6133C23.2819 22.6133 22.6133 21.9447 22.6133 21.12V12.7786L10.2293 25.1626C9.64609 25.7458 8.70056 25.7458 8.11738 25.1626C7.5342 24.5794 7.5342 23.6339 8.11738 23.0507L20.5014 10.6667H12.16C11.3352 10.6667 10.6667 9.99807 10.6667 9.17333Z" fill="#F2BA01"/>
</svg>
