<svg width="64" height="64" viewBox="0 0 64 64" fill="none" xmlns="http://www.w3.org/2000/svg">
<path d="M24.7159 40.3577L24.429 40.5081L24.6472 40.7475C26.3424 42.6075 29.5197 44.1172 33.1065 44.7492C36.691 45.3811 40.1946 45.0499 42.4237 43.8823L42.7106 43.732L42.4925 43.4925C40.7978 41.6318 37.6205 40.1227 34.0332 39.4902C30.4465 38.8572 26.945 39.189 24.7159 40.3577Z" fill="#F2BA01" stroke="#2A72C7" stroke-width="0.5"/>
<path d="M20.0112 20.8072L19.7718 20.5891L19.6214 20.8759C18.4527 23.1051 18.1215 26.6072 18.754 30.194C19.3859 33.7807 20.895 36.9587 22.7556 38.6529L22.995 38.8708L23.1453 38.5841C24.3141 36.3555 24.6453 32.8534 24.0128 29.2661C23.3809 25.6793 21.8718 22.5019 20.0112 20.8072Z" fill="#F2BA01" stroke="#2A72C7" stroke-width="0.5"/>
<path d="M40.479 24.5372C40.3366 24.5372 40.1959 24.5333 40.0574 24.5251C39.5022 24.4928 39.0592 24.0504 39.0269 23.4952C38.8374 20.2218 40.894 16.0143 44.3934 12.5143C47.8923 9.01539 52.0991 6.96148 55.3735 7.14765C55.9287 7.17995 56.3717 7.62239 56.404 8.17762C56.5934 11.451 54.5368 15.6584 51.0374 19.1585C47.687 22.509 43.6865 24.5372 40.479 24.5372ZM54.1771 9.37459C51.6824 9.68287 48.5751 11.4307 45.9419 14.0628C43.3098 16.6955 41.562 19.8035 41.2538 22.2982C43.7484 21.9899 46.8558 20.2421 49.4889 17.6099C52.121 14.9773 53.8683 11.8693 54.1771 9.37459Z" fill="#2A72C7"/>
<path d="M54.4252 9.40535L54.4646 9.08721L54.1465 9.12652C51.5768 9.44407 48.4209 11.2314 45.7652 13.8861L45.7652 13.8861C43.1105 16.5414 41.3232 19.6979 41.0057 22.2676L40.9664 22.5856L41.2845 22.5463C43.8541 22.2288 47.01 20.4415 49.6657 17.7868L49.6658 17.7867C52.3205 15.1315 54.1071 11.975 54.4252 9.40535Z" fill="#F2BA01" stroke="#2A72C7" stroke-width="0.5"/>
<path d="M13.8417 50.8049C13.6446 50.8049 13.4459 50.7518 13.2673 50.6417C10.5389 48.9574 8.32241 44.9525 7.48246 40.1898C6.64252 35.4271 7.35598 30.9053 9.34359 28.3893C9.68855 27.954 10.3056 27.8434 10.7782 28.1363C13.5066 29.8206 15.7231 33.8255 16.5636 38.5882C17.403 43.3515 16.6895 47.8727 14.7025 50.3887C14.4873 50.6603 14.167 50.8049 13.8417 50.8049ZM10.482 30.6507C9.34852 32.8131 9.01232 36.2539 9.63927 39.8087C10.2662 43.3641 11.7583 46.4819 13.563 48.1268C14.697 45.9644 15.0327 42.5241 14.4057 38.9688C13.7793 35.4129 12.2872 32.2951 10.482 30.6507Z" fill="#2A72C7"/>
<path d="M23.2639 41.3823C23.0668 41.3823 22.868 41.3292 22.6895 41.2191C19.9611 39.5348 17.7446 35.53 16.9046 30.7667C16.0647 26.004 16.7782 21.4828 18.7658 18.9662C19.1102 18.5303 19.7273 18.4208 20.2004 18.7132C22.9288 20.3975 25.1453 24.4024 25.9852 29.1656C26.8252 33.9283 26.1117 38.4501 24.1241 40.9662C23.9095 41.2383 23.5892 41.3823 23.2639 41.3823ZM19.9041 21.2281C18.7702 23.391 18.4345 26.8314 19.0615 30.3867C19.6884 33.942 21.1805 37.0604 22.9852 38.7047C24.1192 36.5419 24.4548 33.1015 23.8279 29.5462C23.2009 25.9909 21.7094 22.873 19.9041 21.2281Z" fill="#2A72C7"/>
<path d="M32.6863 31.9599C32.4892 31.9599 32.2899 31.9068 32.1114 31.7967C29.3829 30.1124 27.1664 26.1075 26.327 21.3443C25.4876 16.5816 26.2005 12.0603 28.1881 9.54429C28.5331 9.10843 29.1496 8.99891 29.6227 9.29131C32.3512 10.9756 34.5671 14.9805 35.4076 19.7438C36.2481 24.507 35.5341 29.0282 33.5465 31.5443C33.3318 31.8153 33.0115 31.9599 32.6863 31.9599ZM29.3265 11.8063C28.1925 13.9691 27.8569 17.4095 28.4838 20.9648C29.1102 24.5201 30.6023 27.6385 32.4076 29.2823C33.5416 27.12 33.8772 23.6796 33.2503 20.1238C32.6239 16.5684 31.1318 13.4506 29.3265 11.8063Z" fill="#2A72C7"/>
<path d="M29.4948 11.6215L29.2554 11.4035L29.1051 11.6902C27.9364 13.9194 27.6051 17.4215 28.2376 21.0083C28.8695 24.5951 30.3786 27.773 32.2392 29.4672L32.4786 29.6852L32.629 29.3985C33.7977 27.1699 34.1289 23.6677 33.4964 20.0804C32.8645 16.4936 31.3554 13.3162 29.4948 11.6215Z" fill="#F2BA01" stroke="#2A72C7" stroke-width="0.5"/>
<path d="M27.2314 56.4162C25.9858 56.4162 24.6837 56.3023 23.363 56.0696C18.6004 55.2296 14.595 53.0131 12.9108 50.2846C12.6184 49.8115 12.7273 49.1944 13.1637 48.85C15.6797 46.8623 20.202 46.1499 24.964 46.9894C29.7266 47.8293 33.732 50.0459 35.4168 52.7738C35.7086 53.2469 35.6002 53.8635 35.1638 54.2084C33.3449 55.6452 30.479 56.4162 27.2314 56.4162ZM15.4257 49.9889C17.07 51.7942 20.1883 53.2863 23.743 53.9133C27.2982 54.5397 30.7385 54.2046 32.9008 53.0706C31.2565 51.2658 28.1387 49.7737 24.5835 49.1468C21.0277 48.5198 17.588 48.8555 15.4257 49.9889Z" fill="#2A72C7"/>
<path d="M36.6531 46.9944C35.4075 46.9944 34.1054 46.8805 32.7847 46.6478C28.0226 45.8078 24.0173 43.5913 22.333 40.8628C22.0406 40.3897 22.1496 39.7726 22.586 39.4282C25.1025 37.44 29.6237 36.7287 34.3868 37.567C39.1494 38.407 43.1542 40.624 44.8385 43.352C45.1303 43.8251 45.0214 44.4422 44.5855 44.7866C42.7671 46.2234 39.9001 46.9944 36.6531 46.9944ZM24.8479 40.5665C26.4922 42.3719 29.61 43.864 33.1652 44.4909C36.7188 45.1173 40.1608 44.7822 42.3236 43.6482C40.6793 41.8429 37.561 40.3508 34.0057 39.7238C30.4516 39.0974 27.0108 39.4325 24.8479 40.5665Z" fill="#2A72C7"/>
<path d="M46.0759 37.572C44.8296 37.572 43.5281 37.4581 42.2069 37.2254C37.4448 36.3854 33.44 34.1689 31.7546 31.4404C31.4623 30.9673 31.5712 30.3502 32.0076 30.0058C34.5236 28.0181 39.0437 27.3052 43.8085 28.1446C48.5711 28.9845 52.5759 31.2011 54.2601 33.9296C54.552 34.4027 54.443 35.0198 54.0072 35.3642C52.1887 36.8005 49.3228 37.572 46.0759 37.572ZM34.2701 31.1441C35.9149 32.9489 39.0327 34.4416 42.588 35.068C46.141 35.6944 49.5829 35.3587 51.7458 34.2258C50.1015 32.4205 46.9837 30.9284 43.4279 30.3014C39.8727 29.6739 36.4329 30.0101 34.2701 31.1441Z" fill="#2A72C7"/>
<path d="M34.1541 30.9226L33.8672 31.073L34.0854 31.3124C35.7806 33.1724 38.9579 34.6821 42.5446 35.3141C46.1291 35.946 49.6328 35.6147 51.8618 34.4472L52.1488 34.2969L51.9306 34.0574C50.2359 32.1967 47.0586 30.6876 43.4714 30.0551C39.8846 29.4221 36.3831 29.7539 34.1541 30.9226Z" fill="#F2BA01" stroke="#2A72C7" stroke-width="0.5"/>
<path d="M10.0756 54.572C9.7953 54.572 9.51496 54.4652 9.30141 54.2511C8.87377 53.8235 8.87377 53.1303 9.30141 52.7026L39.3461 22.6573C39.7738 22.2296 40.467 22.2296 40.8946 22.6573C41.3222 23.0849 41.3222 23.7781 40.8946 24.2058L10.8499 54.2511C10.6363 54.4652 10.356 54.572 10.0756 54.572Z" fill="#2A72C7"/>
</svg>
