<svg width="64" height="64" viewBox="0 0 64 64" fill="none" xmlns="http://www.w3.org/2000/svg">
<path fill-rule="evenodd" clip-rule="evenodd" d="M42.08 55.52C49.5027 55.52 55.52 49.5027 55.52 42.08C55.52 34.6573 49.5027 28.64 42.08 28.64C34.6573 28.64 28.64 34.6573 28.64 42.08C28.64 49.5027 34.6573 55.52 42.08 55.52ZM58.88 42.08C58.88 51.3584 51.3584 58.88 42.08 58.88C32.8016 58.88 25.28 51.3584 25.28 42.08C25.28 32.8016 32.8016 25.28 42.08 25.28C51.3584 25.28 58.88 32.8016 58.88 42.08Z" fill="#F2BA01"/>
<path d="M37.565 36.998C38.447 36.998 39.175 37.1053 39.749 37.32C40.3277 37.5347 40.757 37.8613 41.037 38.3C41.3217 38.7387 41.464 39.2964 41.464 39.973C41.464 40.477 41.3707 40.9064 41.184 41.261C40.9973 41.6157 40.7523 41.9097 40.449 42.143C40.1457 42.3764 39.8213 42.563 39.476 42.703L42.381 47.232H40.484L38.013 43.13H36.368V47.232H34.688V36.998H37.565ZM37.453 38.398H36.368V41.744H37.53C38.3093 41.744 38.874 41.5994 39.224 41.31C39.5787 41.0207 39.756 40.5937 39.756 40.029C39.756 39.4364 39.567 39.0164 39.189 38.769C38.8157 38.5217 38.237 38.398 37.453 38.398Z" fill="#F2BA01"/>
<path d="M47.652 39.336C48.5713 39.336 49.3087 39.672 49.864 40.344C50.424 41.016 50.704 42.0147 50.704 43.34C50.704 44.2174 50.5733 44.957 50.312 45.559C50.0553 46.1564 49.6937 46.609 49.227 46.917C48.765 47.2204 48.226 47.372 47.61 47.372C47.218 47.372 46.8773 47.3207 46.588 47.218C46.2987 47.1154 46.0513 46.9824 45.846 46.819C45.6407 46.651 45.468 46.469 45.328 46.273H45.23C45.2533 46.4597 45.2743 46.6674 45.293 46.896C45.3163 47.12 45.328 47.3254 45.328 47.512V50.669H43.676V39.483H45.02L45.251 40.554H45.328C45.4727 40.3347 45.6477 40.1317 45.853 39.945C46.063 39.7584 46.315 39.6114 46.609 39.504C46.9077 39.392 47.2553 39.336 47.652 39.336ZM47.211 40.68C46.7583 40.68 46.3943 40.771 46.119 40.953C45.8483 41.1304 45.65 41.3987 45.524 41.758C45.4027 42.1174 45.3373 42.5677 45.328 43.109V43.34C45.328 43.914 45.3863 44.4017 45.503 44.803C45.6243 45.1997 45.8227 45.503 46.098 45.713C46.378 45.9184 46.756 46.021 47.232 46.021C47.6333 46.021 47.9647 45.9114 48.226 45.692C48.492 45.4727 48.6903 45.16 48.821 44.754C48.9517 44.348 49.017 43.8697 49.017 43.319C49.017 42.4837 48.8677 41.835 48.569 41.373C48.275 40.911 47.8223 40.68 47.211 40.68Z" fill="#F2BA01"/>
<path d="M8.48 5.12C6.62432 5.12 5.12 6.62432 5.12 8.48V35.36C5.12 37.2157 6.62432 38.72 8.48 38.72H22.1987C22.3927 37.5636 22.6852 36.4407 23.0671 35.36H15.2C15.2 31.6486 12.1913 28.64 8.48 28.64V15.2C12.1913 15.2 15.2 12.1913 15.2 8.48H48.8C48.8 12.1913 51.8086 15.2 55.52 15.2V27.0534C56.7972 28.1964 57.9277 29.4999 58.88 30.9322V8.48C58.88 6.62432 57.3757 5.12 55.52 5.12H8.48Z" fill="#2A72C7"/>
<path d="M38.7143 22.1997C38.7181 22.1069 38.72 22.0137 38.72 21.92C38.72 18.2086 35.7114 15.2 32 15.2C28.2886 15.2 25.28 18.2086 25.28 21.92C25.28 24.2199 26.4354 26.25 28.1975 27.4614C31.0419 24.7593 34.6743 22.8787 38.7143 22.1997Z" fill="#2A72C7"/>
</svg>
