<svg width="64" height="64" viewBox="0 0 64 64" fill="none" xmlns="http://www.w3.org/2000/svg">
<path d="M55.52 52.16C55.52 52.16 58.88 52.16 58.88 48.8C58.88 45.44 55.52 35.36 42.08 35.36C28.64 35.36 25.28 45.44 25.28 48.8C25.28 52.16 28.64 52.16 28.64 52.16H55.52ZM28.7151 48.8C28.7034 48.7987 28.6871 48.7965 28.6674 48.7932C28.6581 48.7917 28.6489 48.79 28.64 48.7883C28.6449 47.9011 29.2007 45.3288 31.1911 43.0067C33.0528 40.8346 36.3098 38.72 42.08 38.72C47.8502 38.72 51.1072 40.8346 52.9689 43.0067C54.9593 45.3288 55.5151 47.9011 55.52 48.7883C55.5111 48.79 55.5019 48.7917 55.4926 48.7932C55.4728 48.7965 55.4566 48.7987 55.4449 48.8H28.7151Z" fill="#2A72C7"/>
<path d="M42.08 28.64C45.7914 28.64 48.8 25.6314 48.8 21.92C48.8 18.2086 45.7914 15.2 42.08 15.2C38.3686 15.2 35.36 18.2086 35.36 21.92C35.36 25.6314 38.3686 28.64 42.08 28.64ZM52.16 21.92C52.16 27.487 47.647 32 42.08 32C36.513 32 32 27.487 32 21.92C32 16.353 36.513 11.84 42.08 11.84C47.647 11.84 52.16 16.353 52.16 21.92Z" fill="#2A72C7"/>
<path d="M28.4247 36.3007C27.1889 35.9054 25.816 35.618 24.2931 35.4711C23.5393 35.3983 22.7488 35.36 21.92 35.36C8.48 35.36 5.12 45.44 5.12 48.8C5.12 51.04 6.24 52.16 8.48 52.16H22.647C22.1739 51.2055 21.92 50.0739 21.92 48.8C21.92 45.4054 23.1875 41.9389 25.5818 39.0432C26.3998 38.0539 27.3493 37.1311 28.4247 36.3007ZM21.6513 38.7215C19.6438 41.7897 18.56 45.2877 18.56 48.8H8.48C8.48 47.9239 9.03186 45.3391 11.0311 43.0067C12.8637 40.8686 16.0484 38.7861 21.6513 38.7215Z" fill="#2A72C7"/>
<path d="M10.16 23.6C10.16 18.033 14.673 13.52 20.24 13.52C25.807 13.52 30.32 18.033 30.32 23.6C30.32 29.167 25.807 33.68 20.24 33.68C14.673 33.68 10.16 29.167 10.16 23.6ZM20.24 16.88C16.5286 16.88 13.52 19.8886 13.52 23.6C13.52 27.3114 16.5286 30.32 20.24 30.32C23.9513 30.32 26.96 27.3114 26.96 23.6C26.96 19.8886 23.9513 16.88 20.24 16.88Z" fill="#2A72C7"/>
<path d="M28.4247 36.3007C27.1889 35.9054 25.816 35.618 24.2931 35.4711C23.5393 35.3983 22.7488 35.36 21.92 35.36C8.48 35.36 5.12 45.44 5.12 48.8C5.12 51.04 6.24 52.16 8.48 52.16H22.647C22.1739 51.2055 21.92 50.0739 21.92 48.8C21.92 45.4054 23.1875 41.9389 25.5818 39.0432C26.3998 38.0539 27.3493 37.1311 28.4247 36.3007Z" fill="#F2BA01"/>
<path d="M10.16 23.6C10.16 18.033 14.673 13.52 20.24 13.52C25.807 13.52 30.32 18.033 30.32 23.6C30.32 29.167 25.807 33.68 20.24 33.68C14.673 33.68 10.16 29.167 10.16 23.6Z" fill="#F2BA01"/>
</svg>
