<svg width="64" height="64" viewBox="0 0 64 64" fill="none" xmlns="http://www.w3.org/2000/svg">
<path d="M5.12 18.56C5.12 18.56 5.12 11.84 11.84 11.84H52.16C52.16 11.84 58.88 11.84 58.88 18.56V38.72C58.88 38.72 58.88 45.44 52.16 45.44H38.72C38.72 47.68 39 49.36 39.56 50.48H42.08C43.0078 50.48 43.76 51.2321 43.76 52.16C43.76 53.0878 43.0078 53.76 42.08 53.76L21.888 53.68C20.9602 53.68 20.24 53.0878 20.24 52.16C20.24 51.2321 20.9922 50.48 21.92 50.48H24.44C25 49.36 25.28 47.68 25.28 45.44H11.84C11.84 45.44 5.12 45.44 5.12 38.72V18.56ZM9.81879 15.6857C9.46426 15.922 9.18597 16.2612 8.96527 16.7026C8.73799 17.1572 8.6076 17.6524 8.53928 18.0623C8.50644 18.2594 8.49133 18.4162 8.48458 18.5106C8.48178 18.5498 8.48052 18.5769 8.48 18.5903V38.72C8.48 39.812 8.74335 40.4077 8.96568 40.7412C9.20204 41.0957 9.54123 41.374 9.98263 41.5947C10.4372 41.822 10.9324 41.9524 11.3424 42.0207C11.5394 42.0535 11.6962 42.0686 11.7906 42.0754C11.8298 42.0782 11.8569 42.0794 11.8703 42.08H52.16C53.252 42.08 53.8477 41.8166 54.1812 41.5943C54.5357 41.3579 54.814 41.0187 55.0347 40.5773C55.262 40.1228 55.3924 39.6275 55.4607 39.2176C55.4935 39.0206 55.5087 38.8637 55.5154 38.7693C55.5182 38.7302 55.5195 38.703 55.52 38.6896V18.56C55.52 17.4679 55.2566 16.8723 55.0343 16.5388C54.798 16.1842 54.4588 15.9059 54.0174 15.6852C53.5628 15.458 53.0676 15.3276 52.6576 15.2592C52.4606 15.2264 52.3038 15.2113 52.2094 15.2046C52.1702 15.2018 52.1431 15.2005 52.1297 15.2H11.84C10.7479 15.2 10.1523 15.4633 9.81879 15.6857Z" fill="#2A72C7"/>
<path d="M35.1717 20.0282C35.2757 19.6904 35.0861 19.3322 34.7482 19.2283C34.4104 19.1244 34.0523 19.314 33.9483 19.6518L28.8283 36.2918C28.7244 36.6296 28.914 36.9877 29.2518 37.0917C29.5896 37.1956 29.9478 37.006 30.0517 36.6682L35.1717 20.0282Z" fill="#F2BA01"/>
<path d="M27.9725 23.2274C28.2225 23.4774 28.2225 23.8826 27.9725 24.1325L23.9451 28.16L27.9725 32.1874C28.2225 32.4374 28.2225 32.8426 27.9725 33.0925C27.7226 33.3425 27.3174 33.3425 27.0674 33.0925L22.5874 28.6125C22.3375 28.3626 22.3375 27.9574 22.5874 27.7074L27.0674 23.2274C27.3174 22.9775 27.7226 22.9775 27.9725 23.2274Z" fill="#F2BA01"/>
<path d="M36.0274 23.2274C35.7775 23.4774 35.7775 23.8826 36.0274 24.1325L40.0549 28.16L36.0274 32.1874C35.7775 32.4374 35.7775 32.8426 36.0274 33.0925C36.2774 33.3425 36.6826 33.3425 36.9325 33.0925L41.4125 28.6125C41.6625 28.3626 41.6625 27.9574 41.4125 27.7074L36.9325 23.2274C36.6826 22.9775 36.2774 22.9775 36.0274 23.2274Z" fill="#F2BA01"/>
<rect x="20.224" y="50.432" width="23.552" height="3.328" rx="1.664" fill="#F2BA01"/>
</svg>
