<svg width="64" height="64" viewBox="0 0 64 64" fill="none" xmlns="http://www.w3.org/2000/svg">
<path fill-rule="evenodd" clip-rule="evenodd" d="M5.12 9.22599C5.12 7.09856 7.10955 5.12 9.248 5.12H32.48C34.6184 5.12 36.352 7.09856 36.352 9.22599V25.0539C36.352 27.1813 34.6184 28.736 32.48 28.736H13.9219C13.4085 28.736 12.416 29.1169 12.416 29.1169L7.424 34.5765C6.81419 35.1831 5.12 34.5457 5.12 33.6877V9.22599ZM15.056 16.9301C15.056 17.9938 14.1892 18.8561 13.12 18.8561C12.0508 18.8561 11.184 17.9938 11.184 16.9301C11.184 15.8664 12.0508 15.0041 13.12 15.0041C14.1892 15.0041 15.056 15.8664 15.056 16.9301ZM22.8 16.9301C22.8 17.9938 21.9332 18.8561 20.864 18.8561C19.7948 18.8561 18.928 17.9938 18.928 16.9301C18.928 15.8664 19.7948 15.0041 20.864 15.0041C21.9332 15.0041 22.8 15.8664 22.8 16.9301ZM28.608 18.8561C29.6772 18.8561 30.544 17.9938 30.544 16.9301C30.544 15.8664 29.6772 15.0041 28.608 15.0041C27.5388 15.0041 26.672 15.8664 26.672 16.9301C26.672 17.9938 27.5388 18.8561 28.608 18.8561Z" fill="#F2BA01"/>
<path d="M53.2628 51.3851L53.2629 51.385L53.2672 51.3894L56.192 54.3943V33.29C56.192 32.8577 56.0437 32.5831 55.8246 32.4073C55.5927 32.2212 55.2329 32.1074 54.752 32.1074H31.52C31.0391 32.1074 30.7212 32.221 30.5265 32.3945C30.3396 32.561 30.208 32.8348 30.208 33.29V48.6982C30.208 49.1549 30.3411 49.4695 30.5421 49.6698C30.7433 49.8704 31.0599 50.0036 31.52 50.0036H50.0781C51.2215 50.0036 52.4761 50.6024 53.2628 51.3851ZM56.3052 58.9127L56.2987 58.9063L56.2926 58.8996L51.3634 53.5086C51.343 53.5013 51.3194 53.4928 51.293 53.4834C51.1957 53.4491 51.061 53.4033 50.9116 53.3578C50.5965 53.2617 50.2706 53.184 50.0781 53.184H31.52C29.1945 53.184 27.264 51.4816 27.264 49.1179V33.29C27.264 30.9808 29.1404 28.8 31.52 28.8H54.752C55.939 28.8 57.0645 29.3472 57.8887 30.167C58.7128 30.9866 59.264 32.1071 59.264 33.29V57.7517C59.264 58.0983 59.093 58.3904 58.8793 58.6073C58.6649 58.825 58.384 58.9933 58.0936 59.1041C57.8029 59.2151 57.4807 59.277 57.1742 59.2617C56.8702 59.2467 56.5464 59.1527 56.3052 58.9127ZM50.88 43.3042C49.6006 43.3042 48.56 42.2718 48.56 40.9941C48.56 39.7165 49.6006 38.6841 50.88 38.6841C52.1594 38.6841 53.2 39.7165 53.2 40.9941C53.2 42.2718 52.1594 43.3042 50.88 43.3042ZM43.136 43.3042C41.8566 43.3042 40.816 42.2718 40.816 40.9941C40.816 39.7165 41.8566 38.6841 43.136 38.6841C44.4154 38.6841 45.456 39.7165 45.456 40.9941C45.456 42.2718 44.4154 43.3042 43.136 43.3042ZM35.392 43.3042C34.1126 43.3042 33.072 42.2718 33.072 40.9941C33.072 39.7165 34.1126 38.6841 35.392 38.6841C36.6714 38.6841 37.712 39.7165 37.712 40.9941C37.712 42.2718 36.6714 43.3042 35.392 43.3042Z" fill="#2A72C7" stroke="#2A72C7" stroke-width="0.768"/>
</svg>
