<svg width="64" height="64" viewBox="0 0 64 64" fill="none" xmlns="http://www.w3.org/2000/svg">
<path d="M21.4959 28.0914L20.1737 32H16.8L22.4598 16.8H26.3649L32 32H28.4533L27.131 28.0914H21.4959ZM26.4637 25.8532L24.4 19.7064H24.2517L22.188 25.8532H26.4637Z" fill="#2A72C7"/>
<path d="M7.67999 13.76C7.67999 10.4021 10.4021 7.67999 13.76 7.67999H35.04C38.3979 7.67999 41.12 10.4021 41.12 13.76V22.88H50.24C53.5979 22.88 56.32 25.6021 56.32 28.96V50.24C56.32 53.5979 53.5979 56.32 50.24 56.32H28.96C25.6021 56.32 22.88 53.5979 22.88 50.24V41.12H13.76C10.4021 41.12 7.67999 38.3979 7.67999 35.04V13.76ZM13.76 10.72C12.081 10.72 10.72 12.081 10.72 13.76V35.04C10.72 36.7189 12.081 38.08 13.76 38.08H35.04C36.7189 38.08 38.08 36.7189 38.08 35.04V13.76C38.08 12.081 36.7189 10.72 35.04 10.72H13.76ZM35.4586 41.1058C36.0452 42.0204 36.6816 42.8776 37.373 43.6766C35.101 45.4253 32.2892 46.7198 28.96 47.6055C29.4999 48.2641 30.3322 49.5359 30.6471 50.24C34.0663 49.1499 36.9681 47.6737 39.42 45.6978C41.782 47.7191 44.7063 49.2407 48.3279 50.1718C48.7328 49.3997 49.5876 48.1279 50.24 47.4693C46.8208 46.6971 43.9865 45.3572 41.6695 43.563C43.739 41.2919 45.3811 38.5439 46.5958 35.1827H50.24V32H41.12V35.04C41.12 35.0877 41.1194 35.1353 41.1183 35.1827H43.4466C42.4793 37.7491 41.1971 39.8839 39.5775 41.6553C39.1301 41.1802 38.7098 40.6824 38.3157 40.163C37.4806 40.6981 36.506 41.0346 35.4586 41.1058Z" fill="#2A72C7"/>
<path fill-rule="evenodd" clip-rule="evenodd" d="M50.2225 22.784H41.0764V35.1394C40.7875 38.9904 37.8351 40.9159 35.5245 41.0764H22.784V50.2225C22.784 53.5901 25.5139 56.32 28.8815 56.32H50.2225C53.5901 56.32 56.32 53.5901 56.32 50.2225V28.8815C56.32 25.5139 53.5901 22.784 50.2225 22.784ZM37.373 43.6766C36.6816 42.8776 36.0452 42.0204 35.4586 41.1058C36.506 41.0346 37.4806 40.6981 38.3157 40.163C38.7098 40.6824 39.1301 41.1802 39.5775 41.6553C41.1971 39.8839 42.4793 37.7491 43.4466 35.1828H41.1183C41.1194 35.1353 41.12 35.0877 41.12 35.04V32H50.24V35.1828H46.5958C45.3811 38.5439 43.739 41.292 41.6695 43.563C43.9865 45.3572 46.8208 46.6971 50.24 47.4693C49.5876 48.1279 48.7328 49.3997 48.3279 50.1719C44.7063 49.2407 41.782 47.7191 39.42 45.6978C36.9681 47.6737 34.0663 49.1499 30.6471 50.24C30.3322 49.536 29.4999 48.2642 28.96 47.6055C32.2892 46.7198 35.101 45.4253 37.373 43.6766Z" fill="#F2BA01"/>
</svg>
