<svg width="162" height="179" viewBox="0 0 162 179" fill="none" xmlns="http://www.w3.org/2000/svg">
<g opacity="0.5">
<path opacity="0.3" d="M59.9857 33.8381L114 178.419H0L59.9857 33.8381Z" fill="#F2CE4D"/>
<path fill-rule="evenodd" clip-rule="evenodd" d="M103.358 59.6453C103.158 58.7105 103.052 57.7408 103.052 56.7464C103.052 49.1231 109.25 42.9432 116.895 42.9432C124.54 42.9432 130.738 49.1231 130.738 56.7464C130.738 57.7408 130.633 58.7105 130.432 59.6453H142.883C142.989 58.6935 143.043 57.7263 143.043 56.7464C143.043 42.3469 131.336 30.6737 116.895 30.6737C102.971 30.6737 91.5882 41.527 90.792 55.2127H90.7471V177.908H103.052V78.8694C103.052 78.8694 103.052 78.8695 103.052 78.8695V59.6453H103.358Z" fill="#2A72C7"/>
<path fill-rule="evenodd" clip-rule="evenodd" d="M75.079 28.8834C75.261 28.0061 75.3595 27.0983 75.3659 26.1687V25.9767C75.3141 18.3976 69.1364 12.2695 61.5234 12.2695C53.8782 12.2695 47.6805 18.4494 47.6805 26.0727C47.6805 27.0358 47.7794 27.9759 47.9677 28.8834H35.5259C35.4266 27.9601 35.3757 27.0223 35.3757 26.0727C35.3757 11.6731 47.0824 0 61.5234 0C75.4479 0 86.8303 10.8533 87.6265 24.539H87.6706V25.9399C87.6707 25.9548 87.6708 25.9696 87.6708 25.9845C87.6709 26.0139 87.671 26.0433 87.671 26.0727C87.671 26.117 87.6709 26.1612 87.6706 26.2055V177.908H75.3659V56.5691H75.3662V28.8834H75.079Z" fill="#2A72C7"/>
<path fill-rule="evenodd" clip-rule="evenodd" d="M59.6659 81.1786C59.875 80.2249 59.9851 79.2343 59.9851 78.2181C59.9851 70.5948 53.7874 64.4149 46.1422 64.4149C38.497 64.4149 32.2994 70.5948 32.2994 78.2181C32.2994 79.2343 32.4095 80.2249 32.6186 81.1786H20.1613C20.0512 80.207 19.9946 79.2191 19.9946 78.2181C19.9946 63.8185 31.7013 52.1454 46.1422 52.1454C60.0668 52.1454 71.4492 62.9987 72.2454 76.6844H72.2899V177.908H59.9851V100.341C59.9851 100.341 59.985 100.341 59.9849 100.341V81.1786H59.6659Z" fill="#2A72C7"/>
<circle cx="46.1426" cy="78.4428" r="7.69048" fill="#F05E00"/>
<circle cx="61.5237" cy="26.1476" r="7.69048" fill="#F05E00"/>
<circle cx="116.895" cy="56.9095" r="7.69048" fill="#F05E00"/>
<path opacity="0.3" d="M44.6045 86.1333L56.9092 178.419H7.69019L44.6045 86.1333Z" fill="#F2CE4D"/>
<path opacity="0.3" d="M118.433 64.6L106.129 178.419H161.5L118.433 64.6Z" fill="#F2CE4D"/>
</g>
</svg>
