<svg width="118" height="32" viewBox="0 0 118 32" fill="none" xmlns="http://www.w3.org/2000/svg">
<path d="M0 12.2391C0 11.1879 0.190505 10.2133 0.570665 9.3152C0.951675 8.41795 1.47726 7.63807 2.14828 6.97641C2.8193 6.31474 3.60429 5.79341 4.50153 5.4124C5.39878 5.03139 6.36491 4.84088 7.39823 4.84088C8.43155 4.84088 9.39683 5.03564 10.2949 5.426C11.193 5.81637 11.9721 6.34196 12.6337 7.00362C13.2954 7.66529 13.821 8.44517 14.2113 9.34241C14.6009 10.2397 14.7965 11.2058 14.7965 12.2391C14.7965 13.2724 14.6017 14.2377 14.2113 15.1358C13.821 16.0331 13.2954 16.8129 12.6337 17.4746C11.9712 18.1363 11.1922 18.6627 10.2949 19.0522C9.39768 19.4417 8.4324 19.6373 7.39823 19.6373C6.61835 19.6373 5.83422 19.4783 5.04498 19.1611C4.2566 18.8439 3.6264 18.4679 3.15439 18.0325V27.6692H0V12.2391ZM3.15524 12.2391C3.15524 12.82 3.26835 13.3677 3.49543 13.8848C3.72165 14.4019 4.02612 14.8501 4.40628 15.2311C4.78729 15.6121 5.23634 15.9157 5.75257 16.1419C6.26966 16.369 6.81736 16.4821 7.39823 16.4821C7.97825 16.4821 8.5268 16.369 9.04304 16.1419C9.56012 15.9157 10.0092 15.6112 10.3893 15.2311C10.7695 14.8501 11.074 14.4019 11.3002 13.8848C11.5264 13.3677 11.6404 12.82 11.6404 12.2391C11.6404 11.6591 11.5264 11.1105 11.3002 10.5935C11.0731 10.0764 10.7695 9.62817 10.3893 9.24716C10.0092 8.86615 9.55927 8.56253 9.04304 8.33631C8.52595 8.11008 7.9774 7.99612 7.39823 7.99612C6.81736 7.99612 6.26966 8.10923 5.75257 8.33631C5.23549 8.56338 4.78729 8.867 4.40628 9.24716C4.02612 9.62817 3.72165 10.0764 3.49543 10.5935C3.26835 11.1105 3.15524 11.6591 3.15524 12.2391Z" fill="#2A72C7"/>
<path d="M33.0908 12.2119C33.0908 11.1786 33.2856 10.2133 33.6751 9.31519C34.0646 8.41795 34.5953 7.63807 35.2663 6.9764C35.9365 6.31474 36.7215 5.78915 37.6187 5.39878C38.5168 5.00927 39.4821 4.81366 40.5154 4.81366C41.5487 4.81366 42.5149 5.00842 43.4121 5.39878C44.3094 5.78915 45.0892 6.31474 45.7509 6.9764C46.4126 7.63807 46.9382 8.41795 47.3285 9.31519C47.718 10.2124 47.9128 11.1786 47.9128 12.2119V19.0386H44.7576V18.2766C43.5244 19.1653 42.11 19.6093 40.5146 19.6093C39.3902 19.6093 38.3697 19.4188 37.4546 19.0386C36.5386 18.6576 35.7587 18.132 35.1158 17.461C34.472 16.79 33.9736 16.0058 33.6198 15.1086C33.2669 14.2113 33.0908 13.2461 33.0908 12.2119ZM36.2452 12.2119C36.2452 12.7928 36.3583 13.3405 36.5862 13.8575C36.8133 14.3746 37.1178 14.8237 37.5005 15.2038C37.8824 15.5848 38.3323 15.8885 38.851 16.1147C39.3698 16.3418 39.9201 16.4549 40.5027 16.4549C41.0844 16.4549 41.6346 16.3511 42.1526 16.1419C42.6714 15.9335 43.1213 15.6384 43.5031 15.2583C43.885 14.8773 44.1903 14.4291 44.4174 13.912C44.6444 13.3949 44.7584 12.8285 44.7584 12.2119C44.7584 11.6319 44.6444 11.0833 44.4174 10.5662C44.1903 10.0491 43.8858 9.60095 43.5031 9.21994C43.1213 8.83893 42.6714 8.53531 42.1526 8.30909C41.6338 8.08286 41.0844 7.9689 40.5027 7.9689C39.9201 7.9689 39.3698 8.08201 38.851 8.30909C38.3323 8.53616 37.8824 8.83978 37.5005 9.21994C37.1186 9.60095 36.8142 10.0491 36.5862 10.5662C36.3592 11.0833 36.2452 11.6319 36.2452 12.2119Z" fill="#2A72C7"/>
<path d="M53.3369 10.2269L58.3138 5.4396H62.5568L56.6001 11.233L62.5568 19.0394H58.4499L54.2341 13.5182L53.3641 14.361V19.0394H50.1816V0H53.3369V10.2269Z" fill="#2A72C7"/>
<path d="M66.5516 12.4296C66.5695 12.9918 66.6962 13.5174 66.9318 14.0072C67.1673 14.4963 67.4761 14.9232 67.8571 15.2855C68.2372 15.6486 68.682 15.9344 69.1898 16.1428C69.6975 16.3511 70.2316 16.4557 70.7946 16.4557C71.7369 16.4557 72.544 16.2244 73.215 15.7626C73.886 15.2999 74.3759 14.6791 74.6838 13.8992H78.1375C77.8288 14.9325 77.4206 15.8128 76.9137 16.5374C76.406 17.2628 75.826 17.8522 75.1737 18.3055C74.5205 18.7588 73.8223 19.0896 73.079 19.298C72.3356 19.5064 71.5736 19.611 70.7937 19.611C69.7604 19.611 68.7951 19.4162 67.897 19.0267C66.9998 18.6372 66.2182 18.1116 65.5531 17.4491C64.8872 16.7874 64.3616 16.0075 63.9755 15.1103C63.5886 14.2131 63.3955 13.2469 63.3955 12.2136C63.3955 11.1803 63.5886 10.215 63.9755 9.3169C64.3616 8.41966 64.8872 7.63978 65.5531 6.97811C66.2174 6.31645 66.9998 5.79086 67.897 5.40049C68.7951 5.01098 69.7604 4.81537 70.7937 4.81537C71.9359 4.81537 72.9599 5.02373 73.8673 5.44131C74.7739 5.85889 75.5445 6.41595 76.1789 7.11419C76.8125 7.81242 77.3075 8.62377 77.6613 9.54823C78.0151 10.4727 78.2005 11.4346 78.2183 12.4313H66.5516V12.4296ZM74.6838 10.3077C74.4116 9.54568 73.9311 8.89847 73.2422 8.36267C72.5534 7.82858 71.7471 7.56068 70.8218 7.56068C69.8973 7.56068 69.0903 7.82858 68.4014 8.36267C67.7116 8.89762 67.2311 9.54568 66.9598 10.3077H74.6838Z" fill="#2A72C7"/>
<path d="M102.961 12.2119C102.961 11.1786 103.156 10.2133 103.545 9.31519C103.935 8.41795 104.465 7.63807 105.136 6.9764C105.807 6.31474 106.592 5.78915 107.489 5.39878C108.387 5.00927 109.352 4.81366 110.386 4.81366C111.419 4.81366 112.385 5.00842 113.282 5.39878C114.179 5.78915 114.959 6.31474 115.621 6.9764C116.283 7.63807 116.808 8.41795 117.199 9.31519C117.588 10.2124 117.783 11.1786 117.783 12.2119V19.0386H114.628V18.2766C113.394 19.1653 111.98 19.6093 110.385 19.6093C109.26 19.6093 108.24 19.4188 107.325 19.0386C106.409 18.6576 105.629 18.132 104.986 17.461C104.342 16.79 103.844 16.0058 103.49 15.1086C103.137 14.2113 102.961 13.2461 102.961 12.2119ZM106.115 12.2119C106.115 12.7928 106.228 13.3405 106.456 13.8575C106.684 14.3746 106.988 14.8237 107.371 15.2038C107.753 15.584 108.202 15.8885 108.721 16.1147C109.24 16.3418 109.79 16.4549 110.373 16.4549C110.954 16.4549 111.505 16.3511 112.023 16.1419C112.541 15.9335 112.991 15.6384 113.373 15.2583C113.755 14.8773 114.06 14.4291 114.287 13.912C114.515 13.3949 114.629 12.8285 114.629 12.2119C114.629 11.6319 114.515 11.0833 114.287 10.5662C114.06 10.0491 113.756 9.60095 113.373 9.21994C112.991 8.83893 112.541 8.53531 112.023 8.30909C111.504 8.08286 110.954 7.9689 110.373 7.9689C109.79 7.9689 109.24 8.08201 108.721 8.30909C108.202 8.53616 107.752 8.83978 107.371 9.21994C106.989 9.60095 106.684 10.0491 106.456 10.5662C106.228 11.0833 106.115 11.6319 106.115 12.2119Z" fill="#2A72C7"/>
<path d="M16.9922 9.31519C17.3826 8.41795 17.9082 7.63807 18.5698 6.9764C19.2324 6.31474 20.0114 5.78915 20.9086 5.39878C21.8067 5.00927 22.772 4.81366 23.8053 4.81366C24.8387 4.81366 25.8048 5.00842 26.702 5.39878C27.5993 5.78915 28.3843 6.31474 29.0544 6.9764C29.7254 7.63807 30.2561 8.41795 30.6457 9.31519C31.0352 10.2124 31.2299 11.1777 31.2299 12.2119H28.0747C28.0747 11.6319 27.9616 11.0833 27.7336 10.5662C27.5057 10.0491 27.2021 9.60095 26.8194 9.21994C26.4375 8.83893 25.9876 8.53531 25.4688 8.30909C24.9501 8.08286 24.3998 7.9689 23.8172 7.9689C23.2355 7.9689 22.6853 8.08201 22.1673 8.30909C21.6485 8.53616 21.1986 8.83978 20.8168 9.21994C20.4341 9.60095 20.1296 10.0491 19.9025 10.5662C19.6746 11.0833 19.5615 11.6319 19.5615 12.2119V18.2774V19.0395H16.4062V12.2127C16.408 11.1786 16.6019 10.2133 16.9922 9.31519Z" fill="#2A72C7"/>
<path d="M80.639 9.31519C81.0293 8.41795 81.5549 7.63807 82.2166 6.9764C82.8791 6.31474 83.6581 5.78915 84.5554 5.39878C85.4535 5.00927 86.4187 4.81366 87.4521 4.81366C88.4854 4.81366 89.4515 5.00842 90.3488 5.39878C91.246 5.78915 92.031 6.31474 92.7012 6.9764C93.3722 7.63807 93.9029 8.41795 94.2924 9.31519C94.6819 10.2124 94.8767 11.1777 94.8767 12.2119H91.7231C91.7231 11.6319 91.61 11.0833 91.3821 10.5662C91.1542 10.0491 90.8505 9.60095 90.4678 9.21994C90.086 8.83893 89.6361 8.53531 89.1173 8.30909C88.5985 8.08286 88.0482 7.9689 87.4657 7.9689C86.8839 7.9689 86.3337 8.08201 85.8158 8.30909C85.297 8.53616 84.8471 8.83978 84.4652 9.21994C84.0834 9.60095 83.778 10.0491 83.551 10.5662C83.323 11.0833 83.2099 11.6319 83.2099 12.2119V18.2774V19.0395H80.0547V12.2127C80.0547 11.1786 80.2494 10.2133 80.639 9.31519Z" fill="#2A72C7"/>
<path d="M100.829 5.43961H97.6191V21.3221H100.829V5.43961Z" fill="#2A72C7"/>
<path d="M99.8332 21.3213H97.6203H96.0427H92.833C92.833 21.8656 92.9283 22.3818 93.1188 22.8717C93.3093 23.3615 93.5814 23.7868 93.9344 24.1499C94.2882 24.5122 94.71 24.798 95.1999 25.0063C95.6889 25.2147 96.2332 25.3193 96.8319 25.3193C97.3941 25.3193 97.9197 25.2334 98.4095 25.0608C98.8994 24.8881 99.3204 24.6296 99.6742 24.286C100.028 23.9416 100.309 23.5197 100.517 23.0213C100.725 22.5221 100.83 21.9557 100.83 21.3213H99.8332Z" fill="#2A72C7"/>
<path d="M87.5192 14.1612C88.0992 14.1612 88.5797 13.9707 88.9607 13.5897C89.3417 13.2095 89.5322 12.7468 89.5322 12.2025C89.5322 11.6225 89.3417 11.142 88.9607 10.761C88.5806 10.38 88.1 10.1895 87.5192 10.1895C86.9749 10.1895 86.5131 10.38 86.1321 10.761C85.751 11.142 85.5605 11.6225 85.5605 12.2025C85.5605 12.7468 85.751 13.2086 86.1321 13.5897C86.5122 13.9707 86.9749 14.1612 87.5192 14.1612Z" fill="#F05E00"/>
<path d="M110.345 14.1612C110.925 14.1612 111.406 13.9707 111.787 13.5897C112.168 13.2095 112.358 12.7468 112.358 12.2025C112.358 11.6225 112.168 11.142 111.787 10.761C111.407 10.38 110.926 10.1895 110.345 10.1895C109.801 10.1895 109.339 10.38 108.958 10.761C108.577 11.142 108.387 11.6225 108.387 12.2025C108.387 12.7468 108.577 13.2086 108.958 13.5897C109.339 13.9707 109.802 14.1612 110.345 14.1612Z" fill="#F05E00"/>
<path d="M93.1501 30.6866C91.9841 30.1942 90.9737 29.5062 90.1488 28.6404C89.317 27.7678 88.6715 26.7838 88.2301 25.7173C87.7879 24.65 87.5583 23.501 87.5463 22.3019C87.5361 21.3162 87.7011 20.3288 88.0354 19.3567L90.671 20.4691C90.4907 21.0644 90.4039 21.6751 90.4133 22.2917C90.426 23.1166 90.5834 23.905 90.8819 24.6356C91.1804 25.367 91.6192 26.0414 92.1873 26.6401C92.7623 27.2456 93.4537 27.7219 94.2412 28.0544C95.0288 28.387 95.8512 28.5503 96.6855 28.5401C97.5113 28.529 98.3005 28.3742 99.0328 28.0774C99.7667 27.7806 100.443 27.3434 101.04 26.7779C101.391 26.4462 101.702 26.0677 101.967 25.6485L104.623 26.7694C104.189 27.551 103.656 28.2458 103.033 28.8403C102.162 29.6695 101.182 30.309 100.121 30.7411C99.0583 31.1723 97.9102 31.3968 96.7084 31.4095C95.5135 31.4223 94.3161 31.1782 93.1501 30.6866Z" fill="#F05E00"/>
</svg>
