<svg width="64" height="64" viewBox="0 0 64 64" fill="none" xmlns="http://www.w3.org/2000/svg">
<path d="M11.84 8.48C11.84 6.62432 13.3443 5.12 15.2 5.12H48.8C50.6556 5.12 52.16 6.62432 52.16 8.48V30.32C52.16 31.2478 51.4078 32 50.48 32C49.5521 32 48.8 31.2478 48.8 30.32V10.23C48.8 9.2635 48.0165 8.48 47.05 8.48H16.95C15.9835 8.48 15.2 9.2635 15.2 10.23V53.77C15.2 54.7365 15.9835 55.52 16.95 55.52H23.53C24.4965 55.52 25.28 54.7365 25.28 53.77V47.12C25.28 46.1922 26.0321 45.44 26.96 45.44H30.25C31.2165 45.44 32 46.2235 32 47.19V57.13C32 58.0965 31.2165 58.88 30.25 58.88H15.2C13.3443 58.88 11.84 57.3757 11.84 55.52V8.48Z" fill="#2A72C7"/>
<path d="M20.24 11.84C19.3121 11.84 18.56 12.5922 18.56 13.52V16.88C18.56 17.8078 19.3121 18.56 20.24 18.56H23.6C24.5278 18.56 25.28 17.8078 25.28 16.88V13.52C25.28 12.5922 24.5278 11.84 23.6 11.84H20.24Z" fill="#F2BA01"/>
<path d="M30.32 11.84C29.3921 11.84 28.64 12.5922 28.64 13.52V16.88C28.64 17.8078 29.3921 18.56 30.32 18.56H33.68C34.6078 18.56 35.36 17.8078 35.36 16.88V13.52C35.36 12.5922 34.6078 11.84 33.68 11.84H30.32Z" fill="#F2BA01"/>
<path d="M40.4 11.84C39.4721 11.84 38.72 12.5922 38.72 13.52V16.88C38.72 17.8078 39.4721 18.56 40.4 18.56H43.76C44.6878 18.56 45.44 17.8078 45.44 16.88V13.52C45.44 12.5922 44.6878 11.84 43.76 11.84H40.4Z" fill="#F2BA01"/>
<path d="M20.24 21.92C19.3121 21.92 18.56 22.6722 18.56 23.6V26.96C18.56 27.8878 19.3121 28.64 20.24 28.64H23.6C24.5278 28.64 25.28 27.8878 25.28 26.96V23.6C25.28 22.6722 24.5278 21.92 23.6 21.92H20.24Z" fill="#F2BA01"/>
<path d="M30.32 21.92C29.3921 21.92 28.64 22.6722 28.64 23.6V26.96C28.64 27.8878 29.3921 28.64 30.32 28.64H33.68C34.6078 28.64 35.36 27.8878 35.36 26.96V23.6C35.36 22.6722 34.6078 21.92 33.68 21.92H30.32Z" fill="#F2BA01"/>
<path d="M40.4 21.92C39.4721 21.92 38.72 22.6722 38.72 23.6V26.96C38.72 27.8878 39.4721 28.64 40.4 28.64H43.76C44.6878 28.64 45.44 27.8878 45.44 26.96V23.6C45.44 22.6722 44.6878 21.92 43.76 21.92H40.4Z" fill="#F2BA01"/>
<path d="M20.24 32C19.3121 32 18.56 32.7522 18.56 33.68V37.04C18.56 37.9678 19.3121 38.72 20.24 38.72H23.6C24.5278 38.72 25.28 37.9678 25.28 37.04V33.68C25.28 32.7522 24.5278 32 23.6 32H20.24Z" fill="#F2BA01"/>
<path d="M30.32 32C29.3921 32 28.64 32.7522 28.64 33.68V37.04C28.64 37.9678 29.3921 38.72 30.32 38.72H33.68C34.6078 38.72 35.36 37.9678 35.36 37.04V33.68C35.36 32.7522 34.6078 32 33.68 32H30.32Z" fill="#F2BA01"/>
<path d="M47.1481 37.5633C47.202 37.5416 47.262 37.5416 47.3159 37.5633L49.3911 38.3974L41.772 41.4598L39.6129 40.5919L47.1481 37.5633ZM54.8511 40.5919L47.232 43.6543L45.0729 42.7865L52.692 39.7241L54.8511 40.5919ZM48.46 56.3281V45.8142L56.924 42.4123V52.9262L48.46 56.3281ZM37.54 42.4123L46.004 45.8142V56.3281L37.54 52.9262V42.4123ZM48.2296 35.277C47.5892 35.0196 46.8747 35.0196 46.2344 35.277L35.8551 39.4488C35.3883 39.6365 35.084 40.0898 35.084 40.5919V53.2641C35.084 54.0653 35.5695 54.7877 36.3128 55.0864L46.7751 59.2916C47.0684 59.4095 47.3956 59.4095 47.6888 59.2916L58.1512 55.0864C58.8945 54.7877 59.38 54.0653 59.38 53.2641V40.5919C59.38 40.0898 59.0757 39.6365 58.6088 39.4488L48.2296 35.277Z" fill="#F2BA01" stroke="#F2BA01"/>
</svg>
