<svg width="64" height="64" viewBox="0 0 64 64" fill="none" xmlns="http://www.w3.org/2000/svg">
<rect x="10.24" y="40.96" width="17.92" height="2.56" fill="#2A72C7"/>
<path d="M14.592 14.2284V26.112H24.32V7.168C16.416 7.168 14.592 12.5064 14.592 14.2284Z" fill="#F2BA01"/>
<path d="M38.1741 26.112H52.992V54.784H38.1741V26.112ZM11.008 26.112H28.2955V54.784H11.008V26.112Z" stroke="#2A72C7" stroke-width="3" stroke-linecap="round" stroke-linejoin="round"/>
<path d="M14.592 14.2284V26.112H24.32V7.168C16.416 7.168 14.592 12.5064 14.592 14.2284Z" stroke="#2A72C7" stroke-width="3" stroke-linecap="round" stroke-linejoin="round"/>
<path d="M38.7829 15.513C38.0038 16.846 36.2781 17.3027 34.9286 16.5331C33.579 15.7635 33.1166 14.059 33.8958 12.726C34.675 11.3929 36.4006 10.9362 37.7502 11.7058C39.0997 12.4755 39.5621 14.18 38.7829 15.513Z" fill="#2A72C7"/>
<path d="M38.4499 8.90289C38.227 9.29938 38.3719 9.79903 38.7734 10.0189C39.175 10.2388 39.6812 10.0956 39.9041 9.69908L41.3797 7.07379C41.6026 6.6773 41.4577 6.17765 41.0562 5.95779C40.6546 5.73793 40.1484 5.88111 39.9255 6.2776L38.4499 8.90289Z" fill="#F2BA01"/>
<path d="M44.965 12.5368C45.4066 12.4119 45.6621 11.9573 45.5357 11.5215C45.4093 11.0857 44.949 10.8336 44.5074 10.9585L41.5839 11.7855C41.1424 11.9104 40.8868 12.3649 41.0132 12.8007C41.1396 13.2366 41.5999 13.4886 42.0415 13.3637L44.965 12.5368Z" fill="#F2BA01"/>
<path d="M34.1682 9.05299C34.2946 9.48882 34.7549 9.74088 35.1965 9.61598C35.638 9.49109 35.8935 9.03653 35.7672 8.60071L34.9305 5.71496C34.8042 5.27913 34.3438 5.02708 33.9023 5.15197C33.4607 5.27687 33.2052 5.73142 33.3316 6.16725L34.1682 9.05299Z" fill="#F2BA01"/>
<path d="M31.2471 12.1478C31.6486 12.3677 32.1548 12.2245 32.3777 11.828C32.6005 11.4315 32.4557 10.9319 32.0541 10.712L29.3953 9.25625C28.9937 9.03639 28.4875 9.17958 28.2646 9.57607C28.0418 9.97256 28.1866 10.4722 28.5882 10.6921L31.2471 12.1478Z" fill="#F2BA01"/>
<path d="M43.5862 18.9037C43.9877 19.1236 44.4939 18.9804 44.7168 18.5839C44.9397 18.1874 44.7948 17.6878 44.3932 17.4679L41.7344 16.0121C41.3328 15.7923 40.8266 15.9355 40.6038 16.332C40.3809 16.7284 40.5258 17.2281 40.9273 17.448L43.5862 18.9037Z" fill="#F2BA01"/>
<path d="M38.0509 22.445C38.1773 22.8809 38.6376 23.1329 39.0792 23.008C39.5207 22.8831 39.7762 22.4286 39.6499 21.9927L38.8132 19.107C38.6869 18.6712 38.2265 18.4191 37.7849 18.544C37.3434 18.6689 37.0879 19.1235 37.2143 19.5593L38.0509 22.445Z" fill="#F2BA01"/>
<path d="M31.6017 21.0862C31.3788 21.4827 31.5237 21.9823 31.9253 22.2022C32.3268 22.4221 32.833 22.2789 33.0559 21.8824L34.5316 19.2571C34.7544 18.8606 34.6096 18.361 34.208 18.1411C33.8064 17.9212 33.3002 18.0644 33.0774 18.4609L31.6017 21.0862Z" fill="#F2BA01"/>
</svg>
