<svg width="64" height="64" viewBox="0 0 64 64" fill="none" xmlns="http://www.w3.org/2000/svg">
<path d="M11.5141 8.24722C11.0559 7.9199 10.4281 7.97185 10.0299 8.37005L8.37006 10.0299C7.97186 10.4281 7.9199 11.0559 8.24722 11.5141L14.3707 20.087C14.9413 20.8859 15.8627 21.36 16.8444 21.36H17.0608C17.867 21.36 18.6403 21.6803 19.2104 22.2504L36.56 39.6L35.6341 42.3776C35.27 43.47 35.5543 44.6743 36.3685 45.4885L46.3096 55.4296C46.9032 56.0232 47.6812 56.32 48.4592 56.32C49.2372 56.32 50.0152 56.0232 50.6088 55.4296L55.4296 50.6088C56.0232 50.0152 56.32 49.2372 56.32 48.4592C56.32 47.6812 56.0232 46.9032 55.4296 46.3096L45.4885 36.3685C44.6743 35.5543 43.47 35.27 42.3776 35.6341L39.6 36.56L22.2504 19.2104C21.6803 18.6403 21.36 17.867 21.36 17.0608V16.8444C21.36 15.8627 20.8859 14.9413 20.087 14.3707L11.5141 8.24722ZM40.0452 40.0452C40.6388 39.4516 41.6012 39.4516 42.1948 40.0452L51.054 48.9044C51.6476 49.498 51.6476 50.4604 51.054 51.054C50.4604 51.6476 49.498 51.6476 48.9044 51.054L40.0452 42.1948C39.4516 41.6012 39.4516 40.6388 40.0452 40.0452Z" fill="#F2BA01"/>
<path d="M38.392 19.1739L19.387 38.4521C18.5669 38.21 17.6986 38.08 16.8 38.08C11.7632 38.08 7.68 42.1631 7.68 47.2C7.68 52.2368 11.7632 56.32 16.8 56.32C21.8368 56.32 25.92 52.2368 25.92 47.2C25.92 46.3014 25.79 45.4331 25.5479 44.613L44.8262 25.608C45.5831 25.8115 46.3789 25.92 47.2 25.92C52.2368 25.92 56.32 21.8368 56.32 16.8C56.32 16.6684 56.3172 16.5375 56.3117 16.4074C56.2742 15.5211 55.2266 15.2222 54.5994 15.8494L49.9419 20.5069C49.6676 20.7812 49.2736 20.899 48.8937 20.8204L44.901 19.9934C44.4512 19.9002 44.0997 19.5488 44.0065 19.099L43.1796 15.1063C43.1009 14.7264 43.2188 14.3324 43.4931 14.0581L48.1506 9.4006C48.7778 8.77336 48.4789 7.72583 47.5926 7.68829C47.4624 7.68278 47.3315 7.67999 47.2 7.67999C42.1632 7.67999 38.08 11.7632 38.08 16.8C38.08 17.6212 38.1885 18.417 38.392 19.1739ZM16.8 41.1199L18.232 41.8557L19.84 41.9345L20.7123 43.2877L22.0654 44.1599L22.1443 45.7679L22.88 47.1999L22.1443 48.6319L22.0654 50.2399L20.7123 51.1122L19.84 52.4654L18.232 52.5442L16.8 53.2799L15.368 52.5442L13.76 52.4654L12.8877 51.1122L11.5346 50.2399L11.4557 48.6319L10.72 47.1999L11.4557 45.7679L11.5346 44.1599L12.8877 43.2877L13.76 41.9345L15.368 41.8557L16.8 41.1199Z" fill="#2A72C7"/>
</svg>
