<svg width="64" height="64" viewBox="0 0 64 64" fill="none" xmlns="http://www.w3.org/2000/svg">
<path d="M33.5674 12.8653C33.5674 9.79955 36.0526 7.31427 39.1184 7.31427L50.2204 7.31427C53.2862 7.31427 55.7714 9.79955 55.7714 12.8653V23.9673C55.7714 27.0331 53.2862 29.5184 50.2204 29.5184H39.1184C36.0526 29.5184 33.5674 27.0331 33.5674 23.9673V12.8653ZM39.1184 11.015C38.0965 11.015 37.268 11.8434 37.268 12.8653V23.9673C37.268 24.9892 38.0965 25.8177 39.1184 25.8177H50.2204C51.2423 25.8177 52.0708 24.9892 52.0708 23.9673V12.8653C52.0708 11.8434 51.2423 11.015 50.2204 11.015H39.1184ZM8.22858 40.3374C8.22858 37.2717 10.7139 34.7864 13.7796 34.7864H24.8816C27.9474 34.7864 30.4327 37.2717 30.4327 40.3374V51.4394C30.4327 54.5052 27.9474 56.9905 24.8816 56.9905H13.7796C10.7139 56.9905 8.22858 54.5052 8.22858 51.4394V40.3374ZM13.7796 38.4871C12.7577 38.4871 11.9293 39.3155 11.9293 40.3374V51.4394C11.9293 52.4614 12.7577 53.2898 13.7796 53.2898H24.8816C25.9036 53.2898 26.732 52.4614 26.732 51.4394V40.3374C26.732 39.3155 25.9036 38.4871 24.8816 38.4871H13.7796Z" fill="#2A72C7"/>
<path d="M8.22858 12.8653C8.22858 9.79955 10.7139 7.31427 13.7796 7.31427L24.8816 7.31427C27.9474 7.31427 30.4327 9.79955 30.4327 12.8653V23.9673C30.4327 27.0331 27.9474 29.5184 24.8816 29.5184H13.7796C10.7139 29.5184 8.22858 27.0331 8.22858 23.9673V12.8653ZM33.5674 40.3374C33.5674 37.2717 36.0526 34.7864 39.1184 34.7864H50.2204C53.2862 34.7864 55.7714 37.2717 55.7714 40.3374V51.4394C55.7714 54.5052 53.2862 56.9905 50.2204 56.9905H39.1184C36.0526 56.9905 33.5674 54.5052 33.5674 51.4394V40.3374Z" fill="#F2BA01"/>
</svg>
