<svg width="109" height="92" viewBox="0 0 109 92" fill="none" xmlns="http://www.w3.org/2000/svg">
<path d="M53.3708 12.6258C49.0022 8.31864 41.6187 10.2237 39.8794 16.1068L21.0888 79.6639C19.2993 85.7166 24.7953 91.4081 30.9069 89.8313L96.8926 72.806C103.004 71.2292 105.06 63.589 100.566 59.1576L53.3708 12.6258Z" fill="url(#paint0_linear_722_17684)"/>
<path d="M42.3834 51.9184C42.3834 44.5258 48.3763 38.533 55.7688 38.533C58.2089 38.533 60.4931 39.1848 62.4606 40.3229C63.0424 40.6595 63.7868 40.4607 64.1233 39.8789C64.4598 39.2972 64.261 38.5528 63.6793 38.2163C61.3512 36.8696 58.6482 36.0992 55.7688 36.0992C47.0322 36.0992 39.9497 43.1817 39.9497 51.9184C39.9497 60.655 47.0322 67.7375 55.7688 67.7375C64.5055 67.7375 71.5879 60.655 71.5879 51.9184C71.5879 51.2463 71.0431 50.7015 70.3711 50.7015C69.699 50.7015 69.1542 51.2463 69.1542 51.9184C69.1542 59.3109 63.1614 65.3038 55.7688 65.3038C48.3763 65.3038 42.3834 59.3109 42.3834 51.9184Z" fill="white"/>
<path d="M73.6652 40.6103C74.1405 40.135 74.1405 39.3646 73.6652 38.8894C73.19 38.4142 72.4196 38.4142 71.9444 38.8894L55.7688 55.0649L49.3281 48.6242C48.8529 48.149 48.0825 48.149 47.6072 48.6242C47.132 49.0994 47.132 49.8699 47.6072 50.3451L54.9084 57.6462C55.3836 58.1214 56.1541 58.1214 56.6293 57.6462L73.6652 40.6103Z" fill="white"/>
<path d="M106.456 35.594C108.832 34.1701 108.832 30.7274 106.456 29.3034L80.7909 13.9198C78.3467 12.4548 75.2386 14.2155 75.2386 17.0652L75.2386 47.8323C75.2386 50.6819 78.3468 52.4426 80.791 50.9776L106.456 35.594Z" fill="url(#paint1_linear_722_17684)"/>
<path d="M6.29561 64.0926C5.18553 65.797 6.29324 68.0696 8.31965 68.2452L30.2116 70.1421C32.2964 70.3227 33.7816 68.1604 32.8647 66.2793L22.9653 45.9695C22.0484 44.0884 19.4302 43.9262 18.2881 45.6797L6.29561 64.0926Z" fill="url(#paint2_linear_722_17684)"/>
<defs>
<linearGradient id="paint0_linear_722_17684" x1="86.5088" y1="0" x2="4.76948" y2="21.0899" gradientUnits="userSpaceOnUse">
<stop stop-color="#6AD87B"/>
<stop offset="0.333333" stop-color="#4CBE5E"/>
<stop offset="0.666667" stop-color="#32A544"/>
<stop offset="1" stop-color="#1D8B2F"/>
</linearGradient>
<linearGradient id="paint1_linear_722_17684" x1="108.238" y1="51.505" x2="108.238" y2="13.3924" gradientUnits="userSpaceOnUse">
<stop stop-color="#FEF8E6" stop-opacity="0"/>
<stop offset="0.333333" stop-color="#FCEFC4" stop-opacity="0.25"/>
<stop offset="0.666667" stop-color="#FBE6A2" stop-opacity="0.5"/>
<stop offset="1" stop-color="#F9DD80"/>
</linearGradient>
<linearGradient id="paint2_linear_722_17684" x1="6.13145" y1="66.7422" x2="27.915" y2="56.1244" gradientUnits="userSpaceOnUse">
<stop stop-color="#95B9E3"/>
<stop offset="1" stop-color="#95B9E3" stop-opacity="0"/>
</linearGradient>
</defs>
</svg>
