<svg width="110" height="92" viewBox="0 0 110 92" fill="none" xmlns="http://www.w3.org/2000/svg">
<path d="M54.2575 12.6258C49.8889 8.31864 42.5055 10.2237 40.7661 16.1068L21.9755 79.6639C20.186 85.7166 25.682 91.4081 31.7936 89.8313L97.7793 72.806C103.891 71.2292 105.947 63.589 101.453 59.1576L54.2575 12.6258Z" fill="url(#paint0_linear_593_26699)"/>
<path fill-rule="evenodd" clip-rule="evenodd" d="M67.6078 71.3881C72.3122 71.3881 76.1258 67.5745 76.1258 62.8702C76.1258 58.1658 72.3122 54.3522 67.6078 54.3522C62.9035 54.3522 59.0898 58.1658 59.0898 62.8702C59.0898 67.5745 62.9035 71.3881 67.6078 71.3881ZM71.6935 60.454C72.0393 59.8778 71.8524 59.1303 71.2761 58.7845C70.6998 58.4388 69.9524 58.6256 69.6066 59.2019L66.7579 63.9498L65.4262 62.6181C64.951 62.1429 64.1805 62.1429 63.7053 62.6181C63.2301 63.0933 63.2301 63.8638 63.7053 64.339L65.588 66.2217C66.4277 67.0614 67.8329 66.8884 68.4438 65.8701L71.6935 60.454Z" fill="white"/>
<path fill-rule="evenodd" clip-rule="evenodd" d="M63.9571 44.6173C63.9571 48.6496 60.6883 51.9184 56.656 51.9184C52.6237 51.9184 49.3548 48.6496 49.3548 44.6173C49.3548 40.585 52.6237 37.3162 56.656 37.3162C60.6883 37.3162 63.9571 40.585 63.9571 44.6173ZM56.656 49.4847C59.3442 49.4847 61.5234 47.3055 61.5234 44.6173C61.5234 41.9291 59.3442 39.7499 56.656 39.7499C53.9678 39.7499 51.7886 41.9291 51.7886 44.6173C51.7886 47.3055 53.9678 49.4847 56.656 49.4847ZM57.2794 66.5207C57.0046 65.7432 56.8151 64.9254 56.7221 64.0785H44.4874C44.4909 63.4779 44.8616 61.6787 46.5125 60.0278C48.0999 58.4404 51.0849 56.7858 56.6559 56.7858C57.29 56.7858 57.8906 56.8073 58.4594 56.8476C59.0073 56.0169 59.6654 55.2652 60.4128 54.6134C59.2774 54.445 58.0286 54.3521 56.656 54.3521C44.4874 54.3521 42.0537 61.6533 42.0537 64.087C42.0537 66.5207 44.4874 66.5207 44.4874 66.5207H57.2794Z" fill="white"/>
<path d="M107.343 35.594C109.719 34.1701 109.719 30.7274 107.343 29.3034L81.6777 13.9198C79.2335 12.4548 76.1254 14.2155 76.1254 17.0652L76.1254 47.8323C76.1254 50.6819 79.2335 52.4426 81.6777 50.9776L107.343 35.594Z" fill="url(#paint1_linear_593_26699)"/>
<path d="M7.18233 64.0926C6.07225 65.797 7.17996 68.0696 9.20637 68.2452L31.0983 70.1421C33.1831 70.3227 34.6683 68.1604 33.7515 66.2793L23.852 45.9695C22.9351 44.0884 20.3169 43.9262 19.1748 45.6797L7.18233 64.0926Z" fill="url(#paint2_linear_593_26699)"/>
<defs>
<linearGradient id="paint0_linear_593_26699" x1="87.3955" y1="0" x2="5.6562" y2="21.0899" gradientUnits="userSpaceOnUse">
<stop stop-color="#6AD87B"/>
<stop offset="0.333333" stop-color="#4CBE5E"/>
<stop offset="0.666667" stop-color="#32A544"/>
<stop offset="1" stop-color="#1D8B2F"/>
</linearGradient>
<linearGradient id="paint1_linear_593_26699" x1="109.125" y1="51.505" x2="109.125" y2="13.3924" gradientUnits="userSpaceOnUse">
<stop stop-color="#FEF8E6" stop-opacity="0"/>
<stop offset="0.333333" stop-color="#FCEFC4" stop-opacity="0.25"/>
<stop offset="0.666667" stop-color="#FBE6A2" stop-opacity="0.5"/>
<stop offset="1" stop-color="#F9DD80"/>
</linearGradient>
<linearGradient id="paint2_linear_593_26699" x1="7.01816" y1="66.7422" x2="28.8017" y2="56.1244" gradientUnits="userSpaceOnUse">
<stop stop-color="#95B9E3"/>
<stop offset="1" stop-color="#95B9E3" stop-opacity="0"/>
</linearGradient>
</defs>
</svg>
