<svg width="124" height="254" viewBox="0 0 124 254" fill="none" xmlns="http://www.w3.org/2000/svg">
<path d="M124 126.995C124 197.029 66.479 254 -4.22964 254C-12.5441 254.002 -20.8393 253.209 -29 251.633L-20.9378 210.858C-15.4328 211.918 -9.83763 212.45 -4.22964 212.448C7.17443 212.564 18.4886 210.44 29.0585 206.198C39.6284 201.956 49.2443 195.68 57.3499 187.734C65.4556 179.788 71.8902 170.329 76.2817 159.904C80.6731 149.479 82.9342 138.296 82.9342 127C82.9342 115.704 80.6731 104.521 76.2817 94.0959C71.8902 83.6712 65.4556 74.2122 57.3499 66.266C49.2443 58.3199 39.6284 52.0444 29.0585 47.8023C18.4886 43.5603 7.17443 41.4359 -4.22965 41.552L-4.22965 -1.08275e-06C66.479 -4.17352e-06 124 56.9714 124 126.995Z" fill="#95B9E3"/>
</svg>
