<svg width="518" height="267" viewBox="0 0 518 267" fill="none" xmlns="http://www.w3.org/2000/svg">
<path d="M47.9245 47.0526H40.071C36.7392 47.0526 34.3377 46.2088 32.8665 44.5213C31.3953 42.7905 30.6597 40.5188 30.6597 37.7062C30.6597 31.4753 35.3113 28.3599 44.6144 28.3599C53.3549 28.3599 59.932 29.658 64.3456 32.2542L60.5811 35.11C57.5521 33.7254 52.2299 33.0331 44.6144 33.0331C40.8931 33.0331 38.3835 33.4441 37.0854 34.2663C35.8305 35.0884 35.2031 36.2351 35.2031 37.7062C35.2031 39.1774 35.5493 40.3241 36.2416 41.1462C36.9339 41.9684 38.2104 42.3794 40.071 42.3794H48.1192C53.9607 42.3794 59.218 43.3746 63.8912 45.3651C68.6077 47.3555 72.4803 50.0815 75.5093 53.5431C78.5382 56.9615 80.8531 60.9207 82.4541 65.4208C84.0551 69.8776 84.8556 74.659 84.8556 79.7648C84.8556 83.9188 84.2715 87.8564 83.1032 91.5776C81.9349 95.2988 80.1608 98.7172 77.7809 101.833C75.4443 104.948 72.6102 107.652 69.2784 109.946C65.9898 112.196 62.0522 113.948 57.4656 115.203C52.9222 116.501 47.9894 117.15 42.6672 117.15C34.3161 117.15 26.4842 115.874 19.1715 113.321C11.9021 110.811 5.8443 107.285 0.998047 102.741L4.76255 99.9504C9.17611 103.931 14.6931 107.025 21.3134 109.232C27.977 111.395 35.0949 112.477 42.6672 112.477C48.5952 112.477 53.9391 111.633 58.6988 109.946C63.5018 108.215 67.4394 105.857 70.5116 102.871C73.627 99.8855 76.0069 96.4238 77.6511 92.4863C79.3387 88.5487 80.1824 84.3082 80.1824 79.7648C80.1824 73.7503 78.9709 68.3199 76.5477 63.4736C74.1246 58.5841 70.425 54.6249 65.4489 51.596C60.5161 48.5671 54.6747 47.0526 47.9245 47.0526ZM40.071 51.7258H47.4702C56.254 51.7258 63.1124 54.4085 68.0452 59.774C73.0212 65.1395 75.5093 71.8031 75.5093 79.7648C75.5093 87.8564 72.6318 94.5632 66.8769 99.8855C61.1219 105.164 53.052 107.804 42.6672 107.804C35.744 107.804 29.2751 106.852 23.2605 104.948C17.246 103.044 12.2483 100.361 8.26743 96.8998L11.9021 93.9791C15.4503 96.8782 19.9071 99.1282 25.2726 100.729C30.6814 102.33 36.4796 103.131 42.6672 103.131C51.7972 103.131 58.7637 100.946 63.5667 96.5753C68.4129 92.205 70.8361 86.6015 70.8361 79.7648C70.8361 73.0147 68.8024 67.4328 64.735 63.0193C60.7109 58.6057 54.9343 56.399 47.4053 56.399H40.071C33.7536 56.399 29.0155 54.6681 25.8568 51.2065C22.698 47.7449 21.1187 43.2448 21.1187 37.7062C21.1187 32.1677 23.0658 27.6676 26.9601 24.206C30.8977 20.7443 36.7825 19.0135 44.6144 19.0135C50.1097 19.0135 55.2156 19.6626 59.932 20.9607C64.6484 22.2155 68.5428 24.0329 71.6149 26.4127L67.9153 29.2686C62.5066 25.5473 54.7396 23.6867 44.6144 23.6867C38.0806 23.6867 33.2992 24.9848 30.2703 27.581C27.2847 30.134 25.7918 33.509 25.7918 37.7062C25.7918 41.9467 26.8952 45.3434 29.102 47.8964C31.3521 50.4493 35.0084 51.7258 40.071 51.7258ZM40.071 61.0721H47.2106C53.528 61.0721 58.2661 62.8246 61.4248 66.3295C64.5835 69.8343 66.1629 74.3128 66.1629 79.7648C66.1629 85.3034 64.1941 89.8035 60.2565 93.2651C56.3622 96.7267 50.4991 98.4575 42.6672 98.4575C37.1719 98.4575 32.0444 97.8301 27.2847 96.5753C22.5682 95.2772 18.6739 93.4382 15.6017 91.0583L19.3013 88.2025C24.7101 91.9238 32.4987 93.7844 42.6672 93.7844C49.201 93.7844 53.9607 92.5079 56.9464 89.955C59.9753 87.3587 61.4897 83.962 61.4897 79.7648C61.4897 75.5676 60.3647 72.1926 58.1147 69.6396C55.8646 67.0434 52.2083 65.7453 47.1457 65.7453H40.071C31.2006 65.7453 24.2558 63.1058 19.2364 57.8269C14.2603 52.5046 11.7723 45.7978 11.7723 37.7062C11.7723 29.6147 14.6498 22.9295 20.4047 17.6505C26.1596 12.3283 34.2295 9.66718 44.6144 9.66718C51.5376 9.66718 57.9848 10.6191 63.9561 12.523C69.9707 14.4269 74.9684 17.1097 78.9492 20.5713L75.3145 23.492C71.7664 20.5929 67.3096 18.3429 61.9441 16.7419C56.5786 15.1409 50.802 14.3404 44.6144 14.3404C35.4844 14.3404 28.4962 16.5255 23.65 20.8958C18.847 25.2661 16.4455 30.8696 16.4455 37.7062C16.4455 44.4997 18.4792 50.1031 22.5466 54.5167C26.614 58.887 32.4554 61.0721 40.071 61.0721ZM40.071 70.4185H47.2106C50.5424 70.4185 52.9439 71.2839 54.4151 73.0147C55.8862 74.7455 56.6218 76.9955 56.6218 79.7648C56.6218 85.9957 51.9703 89.1112 42.6672 89.1112C33.8834 89.1112 27.2847 87.8131 22.8711 85.2169L26.6356 82.361C29.6645 83.7457 35.0084 84.438 42.6672 84.438C46.3884 84.438 48.8765 84.0269 50.1313 83.2048C51.4294 82.3827 52.0785 81.236 52.0785 79.7648C52.0785 78.3369 51.7107 77.2119 50.9751 76.3898C50.2828 75.5244 48.9846 75.0917 47.0808 75.0917H40.071C34.0997 75.0917 28.6909 74.1181 23.8447 72.1709C19.0417 70.2238 15.0825 67.541 11.967 64.1227C8.89485 60.7043 6.53663 56.7451 4.89236 52.245C3.24809 47.7449 2.42596 42.8987 2.42596 37.7062C2.42596 33.5523 3.01011 29.6147 4.1784 25.8935C5.3467 22.1723 7.09914 18.7539 9.43573 15.6385C11.8156 12.523 14.6498 9.84027 17.9383 7.59022C21.2701 5.2969 25.2077 3.52282 29.7511 2.26799C34.3377 0.969884 39.2921 0.320831 44.6144 0.320831C52.9655 0.320831 60.7758 1.5973 68.0452 4.15024C75.3145 6.65991 81.3724 10.1864 86.2186 14.7298L82.4541 17.5207C78.0406 13.5399 72.5236 10.4677 65.9033 8.30418C59.2829 6.0974 52.1866 4.99401 44.6144 4.99401C38.6864 4.99401 33.3209 5.85941 28.5179 7.59022C23.7581 9.27775 19.8206 11.6143 16.7051 14.6C13.6329 17.5856 11.2531 21.0472 9.56554 24.9848C7.92127 28.9224 7.09914 33.1629 7.09914 37.7062C7.09914 43.8073 8.33234 49.3026 10.7987 54.1922C13.2651 59.0817 17.0296 63.0193 22.0922 66.0049C27.1549 68.9473 33.1478 70.4185 40.071 70.4185Z" fill="url(#paint0_linear_327_14095)"/>
<path d="M126.623 112.477H121.95V4.99401H126.623V112.477ZM117.277 112.477H112.604V4.99401H117.277V112.477ZM107.931 112.477H103.258V4.99401H107.931V112.477ZM98.5844 112.477H93.9112V4.99401H98.5844V112.477ZM160.764 58.7355L188.218 4.99401H193.411L165.956 58.7355L193.411 112.477H188.218L160.764 58.7355ZM150.314 58.7355L177.769 4.99401H182.961L155.506 58.7355L182.961 112.477H177.769L150.314 58.7355ZM139.864 58.7355L167.319 4.99401H172.511L145.057 58.7355L172.511 112.477H167.319L139.864 58.7355ZM129.349 58.7355L156.869 4.99401H162.062L134.542 58.7355L162.062 112.477H156.869L129.349 58.7355Z" fill="url(#paint1_linear_327_14095)"/>
<path d="M229.143 4.99401H233.816V112.477H229.143V4.99401ZM219.796 4.99401H224.469V112.477H219.796V4.99401ZM210.45 4.99401H215.123V112.477H210.45V4.99401ZM201.103 4.99401H205.777V112.477H201.103V4.99401Z" fill="url(#paint2_linear_327_14095)"/>
<path d="M244.818 4.99401H249.492V112.477H244.818V4.99401ZM272.858 4.99401H277.531V89.1112H314.916V93.7844H277.531V98.4575H314.916V103.131H277.531V107.804H314.916V112.477H272.858V4.99401ZM263.511 4.99401H268.184V112.477H263.511V4.99401ZM254.165 4.99401H258.838V112.477H254.165V4.99401Z" fill="url(#paint3_linear_327_14095)"/>
<path d="M323.972 4.99401H328.645V112.477H323.972V4.99401ZM352.011 4.99401H356.684V89.1112H394.069V93.7844H356.684V98.4575H394.069V103.131H356.684V107.804H394.069V112.477H352.011V4.99401ZM342.664 4.99401H347.338V112.477H342.664V4.99401ZM333.318 4.99401H337.991V112.477H333.318V4.99401Z" fill="url(#paint4_linear_327_14095)"/>
<path d="M402.411 23.6867V4.99401H407.084V23.6867H402.411ZM402.411 37.7062V33.0331C404.228 33.0331 405.743 32.8384 406.954 32.4489C408.209 32.0595 409.139 31.6268 409.745 31.1508C410.351 30.6748 410.805 29.9393 411.108 28.944C411.454 27.9488 411.649 27.1483 411.692 26.5425C411.736 25.8935 411.757 24.9415 411.757 23.6867V4.99401H416.43V23.6867C416.43 24.6387 416.409 25.3959 416.366 25.9584C416.366 26.5209 416.279 27.3647 416.106 28.4897C415.933 29.5715 415.673 30.4801 415.327 31.2157C414.981 31.908 414.462 32.7085 413.769 33.6172C413.12 34.5259 412.298 35.2615 411.303 35.824C410.351 36.3432 409.118 36.7976 407.603 37.187C406.089 37.5332 404.358 37.7062 402.411 37.7062ZM402.411 47.0526V42.3794C404.445 42.3794 406.284 42.2712 407.928 42.0549C409.615 41.7953 411.065 41.4924 412.277 41.1462C413.488 40.8001 414.57 40.2808 415.522 39.5885C416.474 38.8962 417.253 38.2688 417.858 37.7062C418.464 37.1005 418.983 36.3 419.416 35.3048C419.849 34.2663 420.173 33.4009 420.39 32.7085C420.606 32.0162 420.758 31.0426 420.844 29.7878C420.974 28.533 421.039 27.5594 421.039 26.8671C421.082 26.1315 421.104 25.0714 421.104 23.6867V4.99401H425.777V23.6867C425.777 25.0714 425.755 26.1747 425.712 26.9969C425.712 27.7757 425.625 28.9008 425.452 30.372C425.323 31.8431 425.128 33.0331 424.868 33.9417C424.609 34.8504 424.197 35.9538 423.635 37.2519C423.116 38.55 422.467 39.6101 421.688 40.4323C420.952 41.2544 419.979 42.1414 418.767 43.0934C417.599 44.0021 416.257 44.716 414.743 45.2353C413.229 45.7545 411.411 46.1872 409.291 46.5334C407.214 46.8795 404.921 47.0526 402.411 47.0526Z" fill="url(#paint5_linear_327_14095)"/>
<path d="M478.708 47.0526H470.855C467.523 47.0526 465.122 46.2088 463.65 44.5213C462.179 42.7905 461.444 40.5188 461.444 37.7062C461.444 31.4753 466.095 28.3599 475.398 28.3599C484.139 28.3599 490.716 29.658 495.129 32.2542L491.365 35.11C488.336 33.7254 483.014 33.0331 475.398 33.0331C471.677 33.0331 469.167 33.4441 467.869 34.2663C466.614 35.0884 465.987 36.2351 465.987 37.7062C465.987 39.1774 466.333 40.3241 467.025 41.1462C467.718 41.9684 468.994 42.3794 470.855 42.3794H478.903C484.745 42.3794 490.002 43.3746 494.675 45.3651C499.391 47.3555 503.264 50.0815 506.293 53.5431C509.322 56.9615 511.637 60.9207 513.238 65.4208C514.839 69.8776 515.639 74.659 515.639 79.7648C515.639 83.9188 515.055 87.8564 513.887 91.5776C512.719 95.2988 510.945 98.7172 508.565 101.833C506.228 104.948 503.394 107.652 500.062 109.946C496.774 112.196 492.836 113.948 488.249 115.203C483.706 116.501 478.773 117.15 473.451 117.15C465.1 117.15 457.268 115.874 449.955 113.321C442.686 110.811 436.628 107.285 431.782 102.741L435.546 99.9504C439.96 103.931 445.477 107.025 452.097 109.232C458.761 111.395 465.879 112.477 473.451 112.477C479.379 112.477 484.723 111.633 489.483 109.946C494.286 108.215 498.223 105.857 501.295 102.871C504.411 99.8855 506.791 96.4238 508.435 92.4863C510.122 88.5487 510.966 84.3082 510.966 79.7648C510.966 73.7503 509.755 68.3199 507.332 63.4736C504.908 58.5841 501.209 54.6249 496.233 51.596C491.3 48.5671 485.459 47.0526 478.708 47.0526ZM470.855 51.7258H478.254C487.038 51.7258 493.896 54.4085 498.829 59.774C503.805 65.1395 506.293 71.8031 506.293 79.7648C506.293 87.8564 503.416 94.5632 497.661 99.8855C491.906 105.164 483.836 107.804 473.451 107.804C466.528 107.804 460.059 106.852 454.044 104.948C448.03 103.044 443.032 100.361 439.051 96.8998L442.686 93.9791C446.234 96.8782 450.691 99.1282 456.056 100.729C461.465 102.33 467.263 103.131 473.451 103.131C482.581 103.131 489.548 100.946 494.351 96.5753C499.197 92.205 501.62 86.6015 501.62 79.7648C501.62 73.0147 499.586 67.4328 495.519 63.0193C491.495 58.6057 485.718 56.399 478.189 56.399H470.855C464.537 56.399 459.799 54.6681 456.641 51.2065C453.482 47.7449 451.903 43.2448 451.903 37.7062C451.903 32.1677 453.85 27.6676 457.744 24.206C461.682 20.7443 467.566 19.0135 475.398 19.0135C480.894 19.0135 485.999 19.6626 490.716 20.9607C495.432 22.2155 499.327 24.0329 502.399 26.4127L498.699 29.2686C493.29 25.5473 485.523 23.6867 475.398 23.6867C468.864 23.6867 464.083 24.9848 461.054 27.581C458.068 30.134 456.576 33.509 456.576 37.7062C456.576 41.9467 457.679 45.3434 459.886 47.8964C462.136 50.4493 465.792 51.7258 470.855 51.7258ZM470.855 61.0721H477.994C484.312 61.0721 489.05 62.8246 492.209 66.3295C495.367 69.8343 496.947 74.3128 496.947 79.7648C496.947 85.3034 494.978 89.8035 491.04 93.2651C487.146 96.7267 481.283 98.4575 473.451 98.4575C467.956 98.4575 462.828 97.8301 458.068 96.5753C453.352 95.2772 449.458 93.4382 446.386 91.0583L450.085 88.2025C455.494 91.9238 463.283 93.7844 473.451 93.7844C479.985 93.7844 484.745 92.5079 487.73 89.955C490.759 87.3587 492.274 83.962 492.274 79.7648C492.274 75.5676 491.149 72.1926 488.898 69.6396C486.648 67.0434 482.992 65.7453 477.93 65.7453H470.855C461.984 65.7453 455.04 63.1058 450.02 57.8269C445.044 52.5046 442.556 45.7978 442.556 37.7062C442.556 29.6147 445.434 22.9295 451.189 17.6505C456.943 12.3283 465.013 9.66718 475.398 9.66718C482.321 9.66718 488.769 10.6191 494.74 12.523C500.755 14.4269 505.752 17.1097 509.733 20.5713L506.098 23.492C502.55 20.5929 498.093 18.3429 492.728 16.7419C487.362 15.1409 481.586 14.3404 475.398 14.3404C466.268 14.3404 459.28 16.5255 454.434 20.8958C449.631 25.2661 447.229 30.8696 447.229 37.7062C447.229 44.4997 449.263 50.1031 453.33 54.5167C457.398 58.887 463.239 61.0721 470.855 61.0721ZM470.855 70.4185H477.994C481.326 70.4185 483.728 71.2839 485.199 73.0147C486.67 74.7455 487.406 76.9955 487.406 79.7648C487.406 85.9957 482.754 89.1112 473.451 89.1112C464.667 89.1112 458.068 87.8131 453.655 85.2169L457.419 82.361C460.448 83.7457 465.792 84.438 473.451 84.438C477.172 84.438 479.66 84.0269 480.915 83.2048C482.213 82.3827 482.862 81.236 482.862 79.7648C482.862 78.3369 482.495 77.2119 481.759 76.3898C481.067 75.5244 479.768 75.0917 477.865 75.0917H470.855C464.884 75.0917 459.475 74.1181 454.629 72.1709C449.826 70.2238 445.866 67.541 442.751 64.1227C439.679 60.7043 437.32 56.7451 435.676 52.245C434.032 47.7449 433.21 42.8987 433.21 37.7062C433.21 33.5523 433.794 29.6147 434.962 25.8935C436.131 22.1723 437.883 18.7539 440.22 15.6385C442.599 12.523 445.434 9.84027 448.722 7.59022C452.054 5.2969 455.992 3.52282 460.535 2.26799C465.122 0.969884 470.076 0.320831 475.398 0.320831C483.749 0.320831 491.56 1.5973 498.829 4.15024C506.098 6.65991 512.156 10.1864 517.002 14.7298L513.238 17.5207C508.824 13.5399 503.307 10.4677 496.687 8.30418C490.067 6.0974 482.97 4.99401 475.398 4.99401C469.47 4.99401 464.105 5.85941 459.302 7.59022C454.542 9.27775 450.604 11.6143 447.489 14.6C444.417 17.5856 442.037 21.0472 440.349 24.9848C438.705 28.9224 437.883 33.1629 437.883 37.7062C437.883 43.8073 439.116 49.3026 441.583 54.1922C444.049 59.0817 447.813 63.0193 452.876 66.0049C457.939 68.9473 463.932 70.4185 470.855 70.4185Z" fill="url(#paint6_linear_327_14095)"/>
<path d="M41.2549 228.428L38.6891 239.144L12.8806 141.871H18.4649L41.2549 228.428ZM46.9146 207.525L44.1225 217.939L24.1246 141.871H29.6335L46.9146 207.525ZM52.5744 185.866L49.7068 196.431L35.2932 141.871H40.953L52.5744 185.866ZM74.0815 266.839H68.4217L101.475 142.022L101.399 141.871H107.135V142.022L121.85 192.734L135.358 141.871H141.018L107.889 266.839H102.229L87.4386 216.203L74.0815 266.839ZM62.762 266.839H57.1777L90.2307 141.871H95.815L62.762 266.839ZM51.5179 266.839H45.9336L79.0621 141.871H84.5709L51.5179 266.839ZM141.697 266.839H136.037L169.09 141.871H174.75L141.697 266.839ZM130.377 266.839H124.793L157.846 141.871H163.43L130.377 266.839ZM119.133 266.839H113.549L146.677 141.871H152.186L119.133 266.839ZM37.4817 256.123L67.7426 141.871H73.4023L40.2738 266.839H34.6141L1.56104 141.871H7.2208L37.4817 256.123ZM90.3062 205.562L104.946 256.576L107.814 245.785L93.0983 194.922L90.3062 205.562ZM95.8905 184.282L110.606 235.144L113.473 224.504L98.7581 173.566L95.8905 184.282ZM101.475 163.152L116.266 214.014L119.058 203.299L104.418 152.285L101.475 163.152Z" fill="url(#paint7_linear_327_14095)"/>
<path d="M210.71 266.839H205.276V141.871H210.71V266.839ZM199.843 266.839H194.41V141.871H199.843V266.839ZM188.976 266.839H183.543V141.871H188.976V266.839ZM221.577 239.672H279.382V245.105H221.577V250.539H279.382V255.972H221.577V261.406H279.382V266.839H216.143V141.871H279.382V147.305H221.577V152.738H279.382V158.171H221.577V163.605H279.382V169.038H221.577V190.772H251.234V196.205H221.577V201.638H251.234V207.072H221.577V212.505H251.234V217.939H221.577V239.672Z" fill="url(#paint8_linear_327_14095)"/>
<path d="M318.436 266.839H313.002V141.871H318.436V266.839ZM307.569 266.839H302.135V141.871H307.569V266.839ZM296.702 266.839H291.269V141.871H296.702V266.839ZM329.302 239.672H387.107V245.105H329.302V250.539H387.107V255.972H329.302V261.406H387.107V266.839H323.869V141.871H387.107V147.305H329.302V152.738H387.107V158.171H329.302V163.605H387.107V169.038H329.302V190.772H358.959V196.205H329.302V201.638H358.959V207.072H329.302V212.505H358.959V217.939H329.302V239.672Z" fill="url(#paint9_linear_327_14095)"/>
<path d="M437.028 266.839H431.595V141.871H437.028V266.839ZM426.161 266.839H420.728V141.871H426.161V266.839ZM415.294 266.839H409.861V141.871H415.294V266.839ZM404.428 266.839H398.994V141.871H404.428V266.839ZM476.722 204.355L508.643 141.871H514.68L482.759 204.355L514.68 266.839H508.643L476.722 204.355ZM464.572 204.355L496.493 141.871H502.53L470.609 204.355L502.53 266.839H496.493L464.572 204.355ZM452.423 204.355L484.344 141.871H490.381L458.46 204.355L490.381 266.839H484.344L452.423 204.355ZM440.197 204.355L472.194 141.871H478.231L446.235 204.355L478.231 266.839H472.194L440.197 204.355Z" fill="url(#paint10_linear_327_14095)"/>
<defs>
<linearGradient id="paint0_linear_327_14095" x1="0.998047" y1="0.320831" x2="517.002" y2="0.320831" gradientUnits="userSpaceOnUse">
<stop stop-color="#F2BA01"/>
<stop offset="0.142857" stop-color="#F5B203"/>
<stop offset="0.285714" stop-color="#F8A908"/>
<stop offset="0.428571" stop-color="#FBA00F"/>
<stop offset="0.571429" stop-color="#FD9817"/>
<stop offset="0.714286" stop-color="#FE8F1E"/>
<stop offset="0.857143" stop-color="#FF8624"/>
<stop offset="1" stop-color="#FF7D2A"/>
</linearGradient>
<linearGradient id="paint1_linear_327_14095" x1="0.998047" y1="0.320831" x2="517.002" y2="0.320831" gradientUnits="userSpaceOnUse">
<stop stop-color="#F2BA01"/>
<stop offset="0.142857" stop-color="#F5B203"/>
<stop offset="0.285714" stop-color="#F8A908"/>
<stop offset="0.428571" stop-color="#FBA00F"/>
<stop offset="0.571429" stop-color="#FD9817"/>
<stop offset="0.714286" stop-color="#FE8F1E"/>
<stop offset="0.857143" stop-color="#FF8624"/>
<stop offset="1" stop-color="#FF7D2A"/>
</linearGradient>
<linearGradient id="paint2_linear_327_14095" x1="0.998047" y1="0.320831" x2="517.002" y2="0.320831" gradientUnits="userSpaceOnUse">
<stop stop-color="#F2BA01"/>
<stop offset="0.142857" stop-color="#F5B203"/>
<stop offset="0.285714" stop-color="#F8A908"/>
<stop offset="0.428571" stop-color="#FBA00F"/>
<stop offset="0.571429" stop-color="#FD9817"/>
<stop offset="0.714286" stop-color="#FE8F1E"/>
<stop offset="0.857143" stop-color="#FF8624"/>
<stop offset="1" stop-color="#FF7D2A"/>
</linearGradient>
<linearGradient id="paint3_linear_327_14095" x1="0.998047" y1="0.320831" x2="517.002" y2="0.320831" gradientUnits="userSpaceOnUse">
<stop stop-color="#F2BA01"/>
<stop offset="0.142857" stop-color="#F5B203"/>
<stop offset="0.285714" stop-color="#F8A908"/>
<stop offset="0.428571" stop-color="#FBA00F"/>
<stop offset="0.571429" stop-color="#FD9817"/>
<stop offset="0.714286" stop-color="#FE8F1E"/>
<stop offset="0.857143" stop-color="#FF8624"/>
<stop offset="1" stop-color="#FF7D2A"/>
</linearGradient>
<linearGradient id="paint4_linear_327_14095" x1="0.998047" y1="0.320831" x2="517.002" y2="0.320831" gradientUnits="userSpaceOnUse">
<stop stop-color="#F2BA01"/>
<stop offset="0.142857" stop-color="#F5B203"/>
<stop offset="0.285714" stop-color="#F8A908"/>
<stop offset="0.428571" stop-color="#FBA00F"/>
<stop offset="0.571429" stop-color="#FD9817"/>
<stop offset="0.714286" stop-color="#FE8F1E"/>
<stop offset="0.857143" stop-color="#FF8624"/>
<stop offset="1" stop-color="#FF7D2A"/>
</linearGradient>
<linearGradient id="paint5_linear_327_14095" x1="0.998047" y1="0.320831" x2="517.002" y2="0.320831" gradientUnits="userSpaceOnUse">
<stop stop-color="#F2BA01"/>
<stop offset="0.142857" stop-color="#F5B203"/>
<stop offset="0.285714" stop-color="#F8A908"/>
<stop offset="0.428571" stop-color="#FBA00F"/>
<stop offset="0.571429" stop-color="#FD9817"/>
<stop offset="0.714286" stop-color="#FE8F1E"/>
<stop offset="0.857143" stop-color="#FF8624"/>
<stop offset="1" stop-color="#FF7D2A"/>
</linearGradient>
<linearGradient id="paint6_linear_327_14095" x1="0.998047" y1="0.320831" x2="517.002" y2="0.320831" gradientUnits="userSpaceOnUse">
<stop stop-color="#F2BA01"/>
<stop offset="0.142857" stop-color="#F5B203"/>
<stop offset="0.285714" stop-color="#F8A908"/>
<stop offset="0.428571" stop-color="#FBA00F"/>
<stop offset="0.571429" stop-color="#FD9817"/>
<stop offset="0.714286" stop-color="#FE8F1E"/>
<stop offset="0.857143" stop-color="#FF8624"/>
<stop offset="1" stop-color="#FF7D2A"/>
</linearGradient>
<linearGradient id="paint7_linear_327_14095" x1="1.56104" y1="141.871" x2="514.68" y2="141.871" gradientUnits="userSpaceOnUse">
<stop stop-color="#F2BA01"/>
<stop offset="0.142857" stop-color="#F5B203"/>
<stop offset="0.285714" stop-color="#F8A908"/>
<stop offset="0.428571" stop-color="#FBA00F"/>
<stop offset="0.571429" stop-color="#FD9817"/>
<stop offset="0.714286" stop-color="#FE8F1E"/>
<stop offset="0.857143" stop-color="#FF8624"/>
<stop offset="1" stop-color="#FF7D2A"/>
</linearGradient>
<linearGradient id="paint8_linear_327_14095" x1="1.56104" y1="141.871" x2="514.68" y2="141.871" gradientUnits="userSpaceOnUse">
<stop stop-color="#F2BA01"/>
<stop offset="0.142857" stop-color="#F5B203"/>
<stop offset="0.285714" stop-color="#F8A908"/>
<stop offset="0.428571" stop-color="#FBA00F"/>
<stop offset="0.571429" stop-color="#FD9817"/>
<stop offset="0.714286" stop-color="#FE8F1E"/>
<stop offset="0.857143" stop-color="#FF8624"/>
<stop offset="1" stop-color="#FF7D2A"/>
</linearGradient>
<linearGradient id="paint9_linear_327_14095" x1="1.56104" y1="141.871" x2="514.68" y2="141.871" gradientUnits="userSpaceOnUse">
<stop stop-color="#F2BA01"/>
<stop offset="0.142857" stop-color="#F5B203"/>
<stop offset="0.285714" stop-color="#F8A908"/>
<stop offset="0.428571" stop-color="#FBA00F"/>
<stop offset="0.571429" stop-color="#FD9817"/>
<stop offset="0.714286" stop-color="#FE8F1E"/>
<stop offset="0.857143" stop-color="#FF8624"/>
<stop offset="1" stop-color="#FF7D2A"/>
</linearGradient>
<linearGradient id="paint10_linear_327_14095" x1="1.56104" y1="141.871" x2="514.68" y2="141.871" gradientUnits="userSpaceOnUse">
<stop stop-color="#F2BA01"/>
<stop offset="0.142857" stop-color="#F5B203"/>
<stop offset="0.285714" stop-color="#F8A908"/>
<stop offset="0.428571" stop-color="#FBA00F"/>
<stop offset="0.571429" stop-color="#FD9817"/>
<stop offset="0.714286" stop-color="#FE8F1E"/>
<stop offset="0.857143" stop-color="#FF8624"/>
<stop offset="1" stop-color="#FF7D2A"/>
</linearGradient>
</defs>
</svg>
