<svg width="93" height="49" viewBox="0 0 93 49" fill="none" xmlns="http://www.w3.org/2000/svg">
<ellipse cx="24.2351" cy="24.9312" rx="24" ry="24" fill="#2A72C7"/>
<path fill-rule="evenodd" clip-rule="evenodd" d="M48.5293 24.9313H52.6645C52.6645 20.0782 48.7303 16.144 43.8772 16.144C39.0241 16.144 35.09 20.0782 35.09 24.9313H39.2251C39.2251 22.362 41.3079 20.2792 43.8772 20.2792C46.4465 20.2792 48.5293 22.362 48.5293 24.9313ZM39.2251 24.9313C39.2251 29.7844 35.2909 33.7186 30.4379 33.7186C25.5848 33.7186 21.6506 29.7844 21.6506 24.9313H25.7858C25.7858 27.5006 27.8686 29.5834 30.4379 29.5834C33.0072 29.5834 35.09 27.5006 35.09 24.9313H39.2251ZM66.1033 24.9314H61.9682C61.9682 27.5007 59.8854 29.5835 57.3161 29.5835C54.7468 29.5835 52.664 27.5007 52.664 24.9314H48.5288C48.5288 29.7845 52.463 33.7187 57.3161 33.7187C62.1692 33.7187 66.1033 29.7845 66.1033 24.9314ZM75.4079 24.9313H79.5431C79.5431 20.0782 75.6089 16.144 70.7559 16.144C65.9028 16.144 61.9686 20.0782 61.9686 24.9313H66.1038C66.1038 22.362 68.1866 20.2792 70.7559 20.2792C73.3251 20.2792 75.4079 22.362 75.4079 24.9313ZM92.9824 24.9313H88.8473C88.8473 27.5006 86.7645 29.5834 84.1952 29.5834C81.6259 29.5834 79.5431 27.5006 79.5431 24.9313H75.4079C75.4079 29.7844 79.3421 33.7186 84.1952 33.7186C89.0482 33.7186 92.9824 29.7844 92.9824 24.9313Z" fill="url(#paint0_linear_192_26371)"/>
<defs>
<linearGradient id="paint0_linear_192_26371" x1="21.6506" y1="16.144" x2="92.9824" y2="16.144" gradientUnits="userSpaceOnUse">
<stop stop-color="#F2BA01"/>
<stop offset="0.142857" stop-color="#F5B203"/>
<stop offset="0.285714" stop-color="#F8A908"/>
<stop offset="0.428571" stop-color="#FBA00F"/>
<stop offset="0.571429" stop-color="#FD9817"/>
<stop offset="0.714286" stop-color="#FE8F1E"/>
<stop offset="0.857143" stop-color="#FF8624"/>
<stop offset="1" stop-color="#FF7D2A"/>
</linearGradient>
</defs>
</svg>
