<svg width="132" height="132" viewBox="0 0 132 132" fill="none" xmlns="http://www.w3.org/2000/svg">
<circle cx="3.47368" cy="72.9473" r="3.47368" fill="#2A72C7"/>
<circle cx="3.47368" cy="86.8421" r="3.47368" fill="#2A72C7"/>
<circle cx="3.47368" cy="100.737" r="3.47368" fill="#2A72C7"/>
<circle cx="3.47368" cy="114.632" r="3.47368" fill="#2A72C7"/>
<circle cx="3.47368" cy="128.526" r="3.47368" fill="#2A72C7"/>
<circle cx="17.3682" cy="72.9473" r="3.47368" fill="#2A72C7"/>
<circle cx="17.3682" cy="86.8421" r="3.47368" fill="#2A72C7"/>
<circle cx="17.3682" cy="100.737" r="3.47368" fill="#2A72C7"/>
<circle cx="17.3682" cy="114.632" r="3.47368" fill="#2A72C7"/>
<circle cx="17.3682" cy="128.526" r="3.47368" fill="#F05E00"/>
<circle cx="31.2627" cy="72.9473" r="3.47368" fill="#2A72C7"/>
<circle cx="31.2627" cy="86.8421" r="3.47368" fill="#2A72C7"/>
<circle cx="31.2627" cy="100.737" r="3.47368" fill="#2A72C7"/>
<circle cx="31.2627" cy="114.632" r="3.47368" fill="#F05E00"/>
<circle cx="31.2627" cy="128.526" r="3.47368" fill="#F05E00"/>
<circle cx="45.1583" cy="72.9473" r="3.47368" fill="#2A72C7"/>
<circle cx="45.1583" cy="86.8421" r="3.47368" fill="#2A72C7"/>
<circle cx="45.1583" cy="100.737" r="3.47368" fill="#F05E00"/>
<circle cx="45.1583" cy="114.632" r="3.47368" fill="#F05E00"/>
<circle cx="45.1583" cy="128.526" r="3.47368" fill="#F05E00"/>
<circle cx="59.0528" cy="72.9473" r="3.47368" fill="#2A72C7"/>
<circle cx="59.0528" cy="86.8421" r="3.47368" fill="#F05E00"/>
<circle cx="59.0528" cy="100.737" r="3.47368" fill="#F05E00"/>
<circle cx="59.0528" cy="114.632" r="3.47368" fill="#F05E00"/>
<circle cx="59.0528" cy="128.526" r="3.47368" fill="#F05E00"/>
<circle cx="3.47368" cy="3.47368" r="3.47368" fill="#2A72C7"/>
<circle cx="3.47368" cy="17.3685" r="3.47368" fill="#2A72C7"/>
<circle cx="3.47368" cy="31.2632" r="3.47368" fill="#2A72C7"/>
<circle cx="3.47368" cy="45.158" r="3.47368" fill="#2A72C7"/>
<circle cx="3.47368" cy="59.0525" r="3.47368" fill="#2A72C7"/>
<circle cx="17.3682" cy="3.47368" r="3.47368" fill="#2A72C7"/>
<circle cx="17.3682" cy="17.3685" r="3.47368" fill="#2A72C7"/>
<circle cx="17.3682" cy="31.2632" r="3.47368" fill="#2A72C7"/>
<circle cx="17.3682" cy="45.158" r="3.47368" fill="#2A72C7"/>
<circle cx="17.3682" cy="59.0525" r="3.47368" fill="#2A72C7"/>
<circle cx="31.2627" cy="3.47368" r="3.47368" fill="#2A72C7"/>
<circle cx="31.2627" cy="17.3685" r="3.47368" fill="#2A72C7"/>
<circle cx="31.2627" cy="31.2632" r="3.47368" fill="#2A72C7"/>
<circle cx="31.2627" cy="45.158" r="3.47368" fill="#2A72C7"/>
<circle cx="31.2627" cy="59.0525" r="3.47368" fill="#2A72C7"/>
<circle cx="45.1583" cy="3.47368" r="3.47368" fill="#2A72C7"/>
<circle cx="45.1583" cy="17.3685" r="3.47368" fill="#2A72C7"/>
<circle cx="45.1583" cy="31.2632" r="3.47368" fill="#2A72C7"/>
<circle cx="45.1583" cy="45.158" r="3.47368" fill="#2A72C7"/>
<circle cx="45.1583" cy="59.0525" r="3.47368" fill="#2A72C7"/>
<circle cx="59.0528" cy="3.47368" r="3.47368" fill="#2A72C7"/>
<circle cx="59.0528" cy="17.3685" r="3.47368" fill="#2A72C7"/>
<circle cx="59.0528" cy="31.2632" r="3.47368" fill="#2A72C7"/>
<circle cx="59.0528" cy="45.158" r="3.47368" fill="#2A72C7"/>
<circle cx="59.0528" cy="59.0525" r="3.47368" fill="#2A72C7"/>
<circle cx="72.9473" cy="72.9473" r="3.47368" fill="#F05E00"/>
<circle cx="72.9473" cy="86.8421" r="3.47368" fill="#F05E00"/>
<circle cx="72.9473" cy="100.737" r="3.47368" fill="#F05E00"/>
<circle cx="72.9473" cy="114.632" r="3.47368" fill="#F05E00"/>
<circle cx="72.9473" cy="128.526" r="3.47368" fill="#F05E00"/>
<circle cx="86.8419" cy="72.9473" r="3.47368" fill="#F05E00"/>
<circle cx="86.8419" cy="86.8421" r="3.47368" fill="#F05E00"/>
<circle cx="86.8419" cy="100.737" r="3.47368" fill="#F05E00"/>
<circle cx="86.8419" cy="114.632" r="3.47368" fill="#F05E00"/>
<circle cx="86.8419" cy="128.526" r="3.47368" fill="#F05E00"/>
<circle cx="100.736" cy="72.9473" r="3.47368" fill="#F05E00"/>
<circle cx="100.736" cy="86.8421" r="3.47368" fill="#F05E00"/>
<circle cx="100.736" cy="100.737" r="3.47368" fill="#F05E00"/>
<circle cx="100.736" cy="114.632" r="3.47368" fill="#F05E00"/>
<circle cx="100.736" cy="128.526" r="3.47368" fill="#F05E00"/>
<circle cx="114.632" cy="72.9473" r="3.47368" fill="#F05E00"/>
<circle cx="114.632" cy="86.8421" r="3.47368" fill="#F05E00"/>
<circle cx="114.632" cy="100.737" r="3.47368" fill="#F05E00"/>
<circle cx="114.632" cy="114.632" r="3.47368" fill="#F05E00"/>
<circle cx="114.632" cy="128.526" r="3.47368" fill="#F05E00"/>
<circle cx="128.526" cy="72.9473" r="3.47368" fill="#F05E00"/>
<circle cx="128.526" cy="86.8421" r="3.47368" fill="#F05E00"/>
<circle cx="128.526" cy="100.737" r="3.47368" fill="#F05E00"/>
<circle cx="128.526" cy="114.632" r="3.47368" fill="#F05E00"/>
<circle cx="128.526" cy="128.526" r="3.47368" fill="#F05E00"/>
</svg>
